<?xml version="1.0" encoding="UTF-8" standalone="no"?>
<!DOCTYPE svg PUBLIC "-//W3C//DTD SVG 1.1//EN" "http://www.w3.org/Graphics/SVG/1.1/DTD/svg11.dtd">
<svg width="100%" height="100%" viewBox="0 0 4961 4961" version="1.1" xmlns="http://www.w3.org/2000/svg" xmlns:xlink="http://www.w3.org/1999/xlink" xml:space="preserve" xmlns:serif="http://www.serif.com/" style="fill-rule:evenodd;clip-rule:evenodd;stroke-linejoin:round;stroke-miterlimit:2;">
    <g transform="matrix(1,0,0,1,-15919.8,0)">
        <g id="Layout" transform="matrix(1,0,0,0.707071,15919.8,0)">
            <rect x="0" y="0" width="4960.63" height="7015.75" style="fill:none;"/>
            <g transform="matrix(0.965926,-0.366044,0.258819,1.3661,-174.37,2304.33)">
                <path d="M2804.18,2350.09L2298.44,2485.58C2260.79,2495.67 2231.33,2487.31 2213.39,2469.37C2195.45,2451.43 2187.09,2421.97 2197.18,2384.32L2220.41,2297.63C2230.51,2259.95 2252.46,2238.61 2276.96,2232.04C2301.46,2225.48 2331.15,2232.98 2358.73,2260.57L2446.3,2348.14C2474.26,2376.1 2499.38,2382.83 2537.57,2372.59L2818.3,2297.4L2804.18,2350.09ZM2881.53,2280.46L2982.09,2253.52C3020.83,2243.14 3048.15,2240.98 3072.81,2247.59C3097.47,2254.2 3120.05,2269.72 3148.41,2298.09L3327.77,2477.45C3356.13,2505.8 3371.66,2528.38 3378.26,2553.04C3384.87,2577.7 3382.71,2605.02 3372.33,2643.76L3327.28,2811.9C3323.9,2824.49 3310.94,2831.98 3298.35,2828.6C3285.75,2825.23 3278.27,2812.27 3281.64,2799.67L3326.7,2631.53C3334.29,2603.18 3337.46,2583.32 3332.63,2565.27C3327.79,2547.23 3315.11,2531.61 3294.36,2510.85L3115,2331.49C3094.25,2310.74 3078.62,2298.06 3060.58,2293.22C3042.54,2288.39 3022.67,2291.56 2994.32,2299.16L2867.41,2333.15L2881.53,2280.46ZM2464.14,2404.5C2449.62,2397.99 2435.71,2387.65 2421.25,2373.19L2333.68,2285.62C2317.33,2269.27 2300.65,2262.38 2286.13,2266.27C2271.61,2270.16 2260.62,2284.47 2254.64,2306.8L2231.41,2393.49C2225.43,2415.8 2227.81,2433.68 2238.44,2444.32C2249.08,2454.95 2266.96,2457.33 2289.27,2451.35L2464.14,2404.5Z" style="fill:rgb(255,189,36);"/>
            </g>
            <g transform="matrix(1,-3.92543e-17,2.77556e-17,1.41429,-204.574,-0.055301)">
                <path d="M3790.51,2516.03L3403.76,2739.32L3403.76,2684.77L3743.28,2488.75C3759.36,2498.04 3775.99,2507.65 3790.51,2516.03ZM3778.7,2468.29L4312.23,2160.26C4337.65,2145.59 4353.94,2133.78 4363.28,2117.6C4372.62,2101.42 4374.7,2081.41 4374.7,2052.06L4374.7,1830.75C4374.7,1817.71 4385.28,1807.13 4398.32,1807.13C4411.36,1807.13 4421.94,1817.71 4421.94,1830.75L4421.94,2052.06C4421.94,2092.17 4416.96,2119.12 4404.19,2141.22C4391.43,2163.33 4370.58,2181.12 4335.85,2201.18L3826.47,2495.27C3822.59,2493.48 3818.46,2491.26 3813.92,2488.63C3803.24,2482.47 3791.1,2475.45 3778.7,2468.29ZM3347.07,2772.05L2827.37,3072.1C2801.95,3086.77 2785.66,3098.58 2776.32,3114.76C2766.98,3130.94 2764.9,3150.95 2764.9,3180.3L2764.9,3315.84C2764.9,3355.95 2759.91,3382.9 2747.15,3405C2736.58,3423.32 2720.46,3438.67 2695.5,3454.79C2694.36,3455.8 2693.09,3456.71 2691.72,3457.5L2070.45,3816.19C2035.72,3836.25 2009.89,3845.4 1984.36,3845.4C1958.83,3845.4 1933,3836.25 1898.27,3816.19L970.14,3280.34C958.85,3273.82 954.976,3259.36 961.494,3248.07C968.013,3236.78 982.472,3232.91 993.763,3239.42L1921.89,3775.28C1947.31,3789.95 1965.68,3798.16 1984.36,3798.16C2003.04,3798.16 2021.41,3789.95 2046.83,3775.28L2655.19,3424.04C2680.61,3409.37 2696.9,3397.56 2706.24,3381.38C2715.58,3365.2 2717.66,3345.19 2717.66,3315.84L2717.66,3180.3C2717.66,3140.19 2722.64,3113.24 2735.41,3091.14C2748.17,3069.03 2769.01,3051.24 2803.75,3031.18L3347.07,2717.5L3347.07,2772.05Z" style="fill:rgb(255,0,0);"/>
            </g>
            <g transform="matrix(1,0,0,1.41429,379.982,660.482)">
                <path d="M2814.52,3694.33L2814.52,3938.5C2814.52,3951.54 2803.94,3962.13 2790.9,3962.13C2777.86,3962.13 2767.28,3951.54 2767.28,3938.5L2767.28,3694.33C2772.36,3701.97 2781.04,3707.01 2790.9,3707.01C2800.75,3707.01 2809.44,3701.97 2814.52,3694.33Z" style="fill:rgb(191,134,255);"/>
            </g>
            <g transform="matrix(1,0,0,1.41429,379.982,660.482)">
                <path d="M3132.79,1965.79C3196.64,1928.93 3236.7,1905.81 3236.7,1905.81C3262.11,1891.14 3278.41,1879.33 3287.75,1863.15C3297.09,1846.98 3299.17,1826.96 3299.17,1797.61L3299.17,1354.98C3299.17,1325.63 3297.09,1305.62 3287.75,1289.44C3278.41,1273.27 3262.11,1261.46 3236.7,1246.78L2894.28,1049.09C2868.87,1034.42 2850.49,1026.21 2831.81,1026.21C2813.13,1026.21 2794.76,1034.42 2769.34,1049.09L2345.1,1294.03C2310.37,1314.08 2284.54,1323.24 2259.01,1323.24C2233.48,1323.24 2207.65,1314.08 2172.92,1294.03L705.352,446.729C670.618,426.675 649.775,408.885 637.011,386.776C624.246,364.668 619.261,337.721 619.261,297.614L619.261,-207.165C619.261,-220.203 629.846,-230.787 642.883,-230.787C655.92,-230.787 666.505,-220.203 666.505,-207.165L666.505,297.614C666.505,326.964 668.585,346.976 677.925,363.154C687.266,379.333 703.557,391.14 728.974,405.814L2196.54,1253.11C2221.96,1267.79 2240.33,1275.99 2259.01,1275.99C2277.69,1275.99 2296.06,1267.79 2321.48,1253.11L2745.72,1008.18C2780.46,988.123 2806.28,978.967 2831.81,978.967C2857.34,978.967 2883.17,988.123 2917.91,1008.18L3260.32,1205.87C3295.05,1225.92 3315.9,1243.71 3328.66,1265.82C3341.43,1287.93 3346.41,1314.88 3346.41,1354.98L3346.41,1797.61C3346.41,1837.72 3341.43,1864.67 3328.66,1886.78C3315.9,1908.88 3295.05,1926.67 3260.32,1946.73C3260.32,1946.73 3202.74,1979.96 3180.01,1993.08C3162.79,1983.13 3145.97,1973.41 3132.79,1965.79ZM3144.58,2013.53C3133.72,2019.8 3122.05,2026.54 3109.57,2033.75C3032.53,2078.23 2972.95,2099.69 2913.64,2099.69C2877.1,2099.69 2840.45,2091.54 2799.68,2074.88C2810.51,2104.46 2814.47,2140.73 2814.47,2190.45C2814.47,2547.69 2814.52,3678.66 2814.52,3678.66C2814.52,3691.7 2803.94,3702.28 2790.9,3702.28C2777.86,3702.28 2767.28,3691.7 2767.28,3678.66C2767.28,3678.66 2767.23,2547.69 2767.23,2190.45C2767.23,2137.05 2763.55,2102.03 2747.3,2073.87C2731.08,2045.74 2702.65,2025.05 2656.49,1998.4L2656.36,1998.32C2608.46,1970.67 2571.11,1949.12 2554.06,1939.28L2554.06,1939.28C2542.77,1932.76 2538.89,1918.3 2545.41,1907.01L2545.41,1907.01C2551.93,1895.72 2566.38,1891.84 2577.68,1898.36L2577.68,1898.36C2594.88,1908.29 2632.19,1929.82 2679.98,1957.41L2680.08,1957.47C2698.75,1968.24 2719.35,1980.13 2741.34,1992.83C2809.29,2032.06 2861.33,2052.45 2913.64,2052.45C2965.95,2052.45 3018,2032.06 3085.95,1992.83C3089.83,1990.59 3093.64,1988.39 3097.36,1986.24C3107.26,1991.96 3124.84,2002.12 3144.58,2013.53Z" style="fill:rgb(0,91,255);"/>
            </g>
            <g transform="matrix(0.965926,0.366044,-0.258819,1.3661,846.649,611.832)">
                <path d="M1636.75,2953.05L1610.04,2853.37C1600.22,2816.7 1597.86,2790.87 1604.11,2767.54C1610.36,2744.2 1625.32,2723.01 1652.16,2696.18L2416.14,1932.2C2438.41,1909.93 2451.66,1892.91 2456.85,1873.55C2462.04,1854.18 2459.07,1832.82 2450.92,1802.39L2373.04,1511.75C2363.22,1475.09 2360.86,1449.26 2367.11,1425.92C2373.36,1402.58 2388.32,1381.39 2415.16,1354.56L2671.87,1097.84C2686.99,1082.73 2700.03,1074.14 2714.2,1070.35C2728.37,1066.55 2743.95,1067.46 2764.6,1073L2969.96,1128.02C2990.61,1133.56 3004.56,1140.55 3014.93,1150.93C3025.31,1161.3 3032.31,1175.25 3037.84,1195.9C3041.77,1210.57 3046.05,1220.81 3053.41,1228.18C3060.09,1234.85 3069.14,1238.99 3081.69,1242.63C3109.59,1250.12 3162.61,1264.36 3199.77,1274.32C3214.76,1278.33 3225.65,1279.92 3235.58,1277.26C3245.5,1274.6 3254.14,1267.78 3265.12,1256.8C3284.25,1237.67 3298.5,1223.38 3298.5,1223.38C3304.02,1217.84 3313.01,1217.82 3318.55,1223.34C3324.09,1228.87 3324.1,1237.85 3318.58,1243.39C3318.58,1243.39 3304.31,1257.7 3285.16,1276.85C3269.71,1292.3 3256.88,1300.9 3242.91,1304.64C3228.95,1308.38 3213.53,1307.35 3192.43,1301.69C3178.85,1298.05 2690.45,1167.19 2690.45,1167.19C2675.79,1163.26 2664.78,1161.84 2654.72,1164.54C2644.66,1167.24 2635.83,1173.97 2625.1,1184.7L2435.2,1374.6C2412.93,1396.88 2399.68,1413.89 2394.49,1433.26C2389.3,1452.62 2392.27,1473.98 2400.42,1504.41L2478.3,1795.05C2488.12,1831.72 2490.48,1857.55 2484.23,1880.88C2477.98,1904.22 2463.02,1925.41 2436.18,1952.24L1672.2,2716.22C1649.93,2738.49 1636.68,2755.51 1631.49,2774.87C1626.3,2794.24 1629.27,2815.6 1637.42,2846.03L1664.13,2945.72C1666.16,2953.27 1661.67,2961.05 1654.11,2963.08C1646.56,2965.1 1638.78,2960.61 1636.75,2953.05ZM3032.94,1236.95C3026.26,1228.09 3021.4,1216.7 3017.31,1201.41C3012.98,1185.25 3008.02,1174.08 2999.9,1165.96C2991.79,1157.84 2980.61,1152.89 2964.45,1148.56L2759.1,1093.53C2742.94,1089.2 2730.79,1087.91 2719.7,1090.88C2708.61,1093.85 2698.73,1101.05 2686.91,1112.88L2657.36,1142.43C2668.38,1141.07 2680.66,1142.56 2695.96,1146.65L3032.94,1236.95Z" style="fill:rgb(182,203,4);"/>
            </g>
            <g transform="matrix(1,0,0,1.41429,0,-28.9927)">
                <path d="M786.826,1596.08L786.826,1085.54C786.826,1062.64 791.932,1047.17 801.929,1037.18C811.925,1027.18 827.393,1022.08 850.289,1022.08L1014.18,1022.08C1049.94,1022.08 1071.28,1027.87 1102.01,1045.61L1501.12,1276.04C1528.85,1292.04 1535.14,1293.73 1567.15,1293.73C1570.15,1293.73 1574.09,1293.73 1578.85,1293.73C1611.75,1293.73 1615.2,1294.65 1643.69,1311.1L1722.48,1356.59C1741.19,1367.4 1749.71,1382.24 1749.71,1396.48C1749.71,1410.73 1741.19,1425.57 1722.48,1436.38L1388.42,1629.25C1357.44,1647.13 1336.07,1652.78 1300.58,1652.78L843.531,1652.78C821.469,1652.78 807.795,1648.73 799.337,1640.27C790.879,1631.81 786.826,1618.14 786.826,1596.08ZM1014.18,1043.34L850.289,1043.34C834.703,1043.34 823.767,1045.4 816.961,1052.21C810.156,1059.02 808.086,1069.95 808.086,1085.54L808.086,1596.08C808.086,1610.41 808.877,1619.75 814.37,1625.24C819.863,1630.73 829.202,1631.52 843.531,1631.52L1300.58,1631.52C1331.77,1631.52 1350.56,1626.55 1377.79,1610.84L1711.85,1417.96C1722.37,1411.89 1728.45,1404.49 1728.45,1396.48C1728.45,1388.48 1722.37,1381.08 1711.85,1375L1633.06,1329.51C1609.24,1315.76 1606.35,1314.99 1578.85,1314.99C1574.09,1314.99 1570.15,1314.99 1567.15,1314.99C1529.98,1314.99 1522.68,1313.03 1490.5,1294.45L1091.38,1064.02C1064.37,1048.42 1045.61,1043.34 1014.18,1043.34Z" style="fill:rgb(0,221,255);"/>
            </g>
            <g transform="matrix(1,0,0,1.41429,0,-28.9927)">
                <path d="M704.137,1026.8L613.719,1026.8C605.896,1026.8 599.546,1020.45 599.546,1012.63C599.546,1004.8 605.896,998.453 613.719,998.453L1014.18,998.453C1057.09,998.453 1076.66,1003.7 1113.83,1025.15L1512.93,1255.58C1536.76,1269.33 1539.64,1270.11 1567.15,1270.11C1571.9,1270.11 1575.85,1270.11 1578.85,1270.11C1616.01,1270.11 1623.31,1272.06 1655.5,1290.64L1734.29,1336.13C1760.73,1351.4 1773.41,1374.12 1773.41,1396.48C1773.41,1418.85 1760.73,1441.57 1734.29,1456.83L1400.23,1649.7C1363.07,1671.16 1343.49,1676.4 1300.58,1676.4L843.531,1676.4C815.149,1676.4 795.432,1669.89 782.576,1657.03C769.72,1644.18 763.204,1624.46 763.204,1596.08L763.204,1085.87C763.204,1064.67 759.66,1049.55 750.059,1039.94C740.458,1030.34 725.333,1026.8 704.137,1026.8ZM1014.18,1019.71L759.053,1019.71C761.214,1021.31 763.225,1023.04 765.092,1024.91C777.948,1037.77 784.464,1057.48 784.464,1085.87L784.464,1596.08C784.464,1617.28 788.007,1632.4 797.609,1642C807.21,1651.6 822.334,1655.15 843.531,1655.15L1300.58,1655.15C1338.91,1655.15 1356.4,1650.46 1389.6,1631.29L1723.66,1438.42C1742.3,1427.66 1752.15,1412.25 1752.15,1396.48C1752.15,1380.72 1742.3,1365.31 1723.66,1354.55L1644.87,1309.06C1617.15,1293.05 1610.86,1291.37 1578.85,1291.37C1575.85,1291.37 1571.9,1291.37 1567.15,1291.37C1534.25,1291.37 1530.8,1290.44 1502.31,1273.99L1103.19,1043.57C1070,1024.4 1052.51,1019.71 1014.18,1019.71Z" style="fill:rgb(255,94,179);"/>
            </g>
            <g transform="matrix(0.866025,0.707143,-0.5,1.22481,1337.48,-344.568)">
                <path d="M1180.91,1691.74L919.435,1691.74C911.607,1691.74 905.261,1685.39 905.261,1677.57C905.261,1669.74 911.607,1663.39 919.435,1663.39L955.431,1663.39C993.115,1663.39 1019.29,1657.78 1040.65,1643.53C1062.47,1628.96 1079.15,1605.79 1098.41,1572.44L1207.16,1384.08C1211.07,1377.3 1219.75,1374.98 1226.52,1378.89C1233.3,1382.8 1235.62,1391.48 1231.71,1398.25L1113.6,1602.82C1104.75,1618.15 1104.01,1633.42 1110.64,1644.91C1117.27,1656.4 1130.87,1663.39 1148.57,1663.39L1180.91,1663.39C1212.41,1663.39 1233.81,1660.73 1251.17,1650.71C1268.54,1640.68 1281.54,1623.48 1297.29,1596.2L1388.68,1437.9C1407.66,1405.03 1424.26,1385.1 1445.18,1373.02C1466.1,1360.94 1491.66,1356.53 1529.62,1356.53L2184.84,1356.53C2216.34,1356.53 2237.74,1353.87 2255.11,1343.85C2272.47,1333.82 2285.48,1316.62 2301.23,1289.34L2476.85,985.159C2480.76,978.385 2489.43,976.06 2496.21,979.971C2502.98,983.883 2505.3,992.558 2501.39,999.332L2325.78,1303.51C2306.8,1336.38 2290.2,1356.32 2269.28,1368.39C2248.36,1380.47 2222.8,1384.88 2184.84,1384.88L1529.62,1384.88C1498.12,1384.88 1476.71,1387.54 1459.35,1397.57C1441.99,1407.59 1428.98,1424.79 1413.23,1452.07L1321.84,1610.37C1302.86,1643.24 1286.27,1663.17 1265.35,1675.25C1244.42,1687.33 1218.86,1691.74 1180.91,1691.74ZM1116.94,1674.02C1107.51,1669.21 1100.16,1662.19 1095.3,1653.77C1089.66,1644 1087.33,1632.28 1089.07,1619.77C1076.98,1636.15 1064.65,1648.81 1050.48,1658.26C1040.18,1665.14 1028.9,1670.34 1016.02,1674.02L1116.94,1674.02Z" style="fill:rgb(33,171,114);"/>
            </g>
        </g>
    </g>
</svg>
