<?xml version="1.0" encoding="UTF-8" standalone="no"?>
<!DOCTYPE svg PUBLIC "-//W3C//DTD SVG 1.1//EN" "http://www.w3.org/Graphics/SVG/1.1/DTD/svg11.dtd">
<svg width="100%" height="100%" viewBox="0 0 3679 4260" version="1.1" xmlns="http://www.w3.org/2000/svg" xmlns:xlink="http://www.w3.org/1999/xlink" xml:space="preserve" xmlns:serif="http://www.serif.com/" style="fill-rule:evenodd;clip-rule:evenodd;stroke-linejoin:round;stroke-miterlimit:2;">
    <rect id="Layout" x="0" y="0" width="3678.2" height="4259.52" style="fill:none;"/>
    <path d="M2570.53,2972.06L2117.09,3233.82C2083.34,3253.31 2052.72,3252.87 2030.74,3240.18C2008.77,3227.49 1993.07,3201.2 1993.07,3162.22L1993.07,3072.47C1993.07,3033.47 2008.76,3007.17 2030.72,2994.49C2052.69,2981.8 2083.31,2981.37 2117.09,3000.87L2224.34,3062.8C2258.58,3082.56 2284.59,3082.56 2318.83,3062.8L2570.53,2917.5L2570.53,2972.06ZM2627.22,2884.78L2717.39,2832.73C2752.12,2812.68 2777.95,2803.52 2803.48,2803.52C2829.01,2803.52 2854.83,2812.68 2889.57,2832.73L3109.24,2959.56C3143.97,2979.61 3164.82,2997.4 3177.58,3019.51C3190.34,3041.62 3195.33,3068.56 3195.33,3108.67L3195.33,3282.74C3195.33,3295.78 3184.74,3306.36 3171.71,3306.36C3158.67,3306.36 3148.09,3295.78 3148.09,3282.74L3148.09,3108.67C3148.09,3079.32 3146.01,3059.31 3136.66,3043.13C3127.32,3026.95 3111.03,3015.15 3085.62,3000.47L2865.95,2873.64C2840.53,2858.97 2822.16,2850.76 2803.48,2850.76C2784.8,2850.76 2766.42,2858.97 2741.01,2873.64L2627.22,2939.33L2627.22,2884.78ZM2256.16,3112.62C2240.44,3110.09 2224.34,3103.71 2206.62,3093.48L2099.37,3031.56C2079.35,3020 2061.46,3017.66 2048.44,3025.17C2035.42,3032.69 2028.51,3049.35 2028.51,3072.47L2028.51,3162.22C2028.51,3185.32 2035.44,3201.98 2048.46,3209.49C2061.48,3217.01 2079.37,3214.69 2099.37,3203.14L2256.16,3112.62Z" style="fill:rgb(255,189,36);"/>
    <path d="M3013.95,2314.48L2627.21,2537.77L2627.21,2483.22L2966.72,2287.2C2982.81,2296.49 2999.44,2306.1 3013.95,2314.48ZM3002.15,2266.74L3535.68,1958.71C3561.09,1944.04 3577.39,1932.23 3586.72,1916.05C3596.07,1899.88 3598.15,1879.86 3598.15,1850.51L3598.15,1629.2C3598.15,1616.16 3608.73,1605.58 3621.77,1605.58C3634.81,1605.58 3645.39,1616.16 3645.39,1629.2L3645.39,1850.51C3645.39,1890.62 3640.4,1917.57 3627.64,1939.68C3614.88,1961.78 3594.03,1979.58 3559.3,1999.63L3049.92,2293.72C3046.04,2291.94 3041.91,2289.71 3037.37,2287.09C3026.69,2280.92 3014.54,2273.9 3002.15,2266.74ZM2570.51,2570.5L2050.82,2870.55C2025.4,2885.22 2009.11,2897.03 1999.77,2913.21C1990.43,2929.39 1988.35,2949.4 1988.35,2978.75L1988.35,3114.29C1988.35,3154.4 1983.36,3181.35 1970.6,3203.45C1960.03,3221.77 1943.91,3237.12 1918.95,3253.24C1917.8,3254.25 1916.54,3255.16 1915.17,3255.95L1293.9,3614.64C1259.16,3634.7 1233.34,3643.85 1207.81,3643.85C1182.28,3643.85 1156.45,3634.7 1121.72,3614.64L193.589,3078.79C182.298,3072.27 178.424,3057.81 184.943,3046.52C191.461,3035.23 205.92,3031.36 217.211,3037.88L1145.34,3573.73C1170.76,3588.41 1189.13,3596.61 1207.81,3596.61C1226.49,3596.61 1244.86,3588.41 1270.28,3573.73L1878.64,3222.49C1904.05,3207.82 1920.34,3196.01 1929.68,3179.83C1939.03,3163.66 1941.11,3143.64 1941.11,3114.29L1941.11,2978.75C1941.11,2938.64 1946.09,2911.7 1958.86,2889.59C1971.62,2867.48 1992.46,2849.69 2027.2,2829.64L2570.51,2515.95L2570.51,2570.5Z" style="fill:rgb(255,0,0);"/>
    <path d="M2622.53,3959.83L2622.53,4204C2622.53,4217.04 2611.94,4227.62 2598.9,4227.62C2585.87,4227.62 2575.28,4217.04 2575.28,4204L2575.28,3959.83C2580.36,3967.47 2589.05,3972.51 2598.9,3972.51C2608.76,3972.51 2617.45,3967.47 2622.53,3959.83Z" style="fill:rgb(147,162,225);"/>
    <path d="M2940.79,2231.29C3004.64,2194.43 3044.7,2171.31 3044.7,2171.31C3070.12,2156.64 3086.41,2144.83 3095.75,2128.65C3105.09,2112.47 3107.17,2092.46 3107.17,2063.11L3107.17,1620.48C3107.17,1591.13 3105.09,1571.12 3095.75,1554.94C3086.41,1538.76 3070.12,1526.96 3044.7,1512.28L2702.29,1314.59C2676.87,1299.91 2658.5,1291.71 2639.82,1291.71C2621.14,1291.71 2602.77,1299.91 2577.35,1314.59L2153.11,1559.53C2118.37,1579.58 2092.54,1588.74 2067.01,1588.74C2041.49,1588.74 2015.66,1579.58 1980.92,1559.53L513.357,712.227C478.623,692.173 457.779,674.383 445.015,652.274C432.251,630.166 427.265,603.219 427.265,563.112L427.265,58.333C427.265,45.295 437.85,34.711 450.887,34.711C463.925,34.711 474.509,45.295 474.509,58.333L474.509,563.112C474.509,592.462 476.589,612.474 485.93,628.652C495.27,644.831 511.561,656.638 536.979,671.312L2004.54,1518.61C2029.96,1533.29 2048.33,1541.49 2067.01,1541.49C2085.7,1541.49 2104.07,1533.29 2129.48,1518.61L2553.73,1273.67C2588.46,1253.62 2614.29,1244.46 2639.82,1244.46C2665.35,1244.46 2691.18,1253.62 2725.91,1273.67L3068.32,1471.37C3103.06,1491.42 3123.9,1509.21 3136.66,1531.32C3149.43,1553.43 3154.41,1580.38 3154.41,1620.48L3154.41,2063.11C3154.41,2103.22 3149.43,2130.17 3136.66,2152.27C3123.9,2174.38 3103.06,2192.17 3068.32,2212.23C3068.32,2212.23 3010.74,2245.46 2988.02,2258.58C2970.79,2248.63 2953.97,2238.91 2940.79,2231.29ZM2952.59,2279.03C2941.72,2285.3 2930.05,2292.04 2917.57,2299.24C2840.53,2343.72 2780.96,2365.19 2721.65,2365.19C2685.1,2365.19 2648.45,2357.04 2607.68,2340.38C2618.51,2369.96 2622.48,2406.23 2622.48,2455.94C2622.48,2813.18 2622.53,3944.16 2622.53,3944.16C2622.53,3957.2 2611.94,3967.78 2598.9,3967.78C2585.87,3967.78 2575.28,3957.2 2575.28,3944.16C2575.28,3944.16 2575.24,2813.19 2575.24,2455.94C2575.24,2402.55 2571.56,2367.53 2555.31,2339.37C2539.08,2311.24 2510.66,2290.55 2464.49,2263.89L2464.37,2263.82C2416.46,2236.17 2379.12,2214.62 2362.07,2204.78L2362.07,2204.78C2350.77,2198.26 2346.9,2183.8 2353.41,2172.51L2353.41,2172.51C2359.93,2161.22 2374.39,2157.34 2385.68,2163.86L2385.68,2163.86C2402.89,2173.79 2440.19,2195.32 2487.98,2222.91L2488.08,2222.96C2506.75,2233.74 2527.35,2245.63 2549.34,2258.33C2617.29,2297.56 2669.34,2317.95 2721.65,2317.95C2773.96,2317.95 2826,2297.56 2893.95,2258.33C2897.84,2256.09 2901.64,2253.89 2905.37,2251.74C2915.27,2257.46 2932.84,2267.62 2952.59,2279.03Z" style="fill:rgb(0,91,255);"/>
    <path d="M1091.35,3507.15L1091.35,3403.95C1091.35,3365.99 1095.75,3340.43 1107.83,3319.51C1119.91,3298.59 1139.85,3281.99 1172.71,3263.01L2108.39,2722.8C2135.67,2707.05 2152.87,2694.05 2162.9,2676.68C2172.92,2659.32 2175.58,2637.92 2175.58,2606.42L2175.58,2305.52C2175.58,2267.57 2179.99,2242.01 2192.07,2221.08C2204.15,2200.16 2224.08,2183.57 2256.95,2164.59L2571.36,1983.07C2589.88,1972.38 2604.69,1967.46 2619.36,1967.46C2634.03,1967.46 2648.85,1972.38 2667.36,1983.07L2851.48,2089.37C2869.99,2100.06 2881.66,2110.43 2888.99,2123.13C2896.33,2135.84 2899.48,2151.13 2899.48,2172.51C2899.48,2187.68 2900.96,2198.69 2906.16,2207.71C2910.89,2215.89 2918.55,2222.22 2929.74,2228.99C2954.75,2243.45 3002.28,2270.92 3035.59,2290.15C3049.04,2297.92 3059.14,2302.27 3069.42,2302.27C3079.7,2302.27 3089.81,2297.91 3103.25,2290.15C3126.68,2276.62 3144.15,2266.5 3144.15,2266.5C3150.91,2262.58 3159.59,2264.89 3163.52,2271.66C3167.44,2278.43 3165.13,2287.11 3158.36,2291.03C3158.36,2291.03 3140.88,2301.16 3117.42,2314.7C3098.5,2325.62 3083.88,2330.61 3069.42,2330.61C3054.96,2330.62 3040.34,2325.63 3021.42,2314.7C3009.24,2307.67 2571.36,2054.86 2571.36,2054.86C2558.22,2047.27 2547.95,2043.05 2537.53,2043.05C2527.12,2043.05 2516.85,2047.27 2503.7,2054.86L2271.12,2189.14C2243.85,2204.89 2226.64,2217.89 2216.62,2235.26C2206.59,2252.62 2203.93,2274.02 2203.93,2305.52L2203.93,2606.42C2203.93,2644.37 2199.53,2669.93 2187.45,2690.86C2175.37,2711.78 2155.43,2728.37 2122.56,2747.35L1186.89,3287.56C1159.61,3303.31 1142.4,3316.32 1132.38,3333.68C1122.36,3351.05 1119.69,3372.45 1119.69,3403.95L1119.69,3507.15C1119.69,3514.97 1113.34,3521.33 1105.52,3521.33C1097.7,3521.33 1091.35,3514.97 1091.35,3507.15ZM2884.12,2210.89C2879.96,2200.59 2878.22,2188.34 2878.22,2172.51C2878.22,2155.78 2876.32,2143.7 2870.58,2133.76C2864.84,2123.82 2855.33,2116.14 2840.85,2107.78L2656.73,2001.48C2642.25,1993.11 2630.84,1988.72 2619.36,1988.72C2607.88,1988.72 2596.47,1993.11 2581.99,2001.48L2545.8,2022.37C2556.8,2023.91 2568.28,2028.53 2581.99,2036.45L2884.12,2210.89Z" style="fill:rgb(182,203,4);"/>
    <path d="M214.849,1374.07L214.849,863.528C214.849,840.633 219.955,825.164 229.951,815.168C239.948,805.171 255.416,800.065 278.312,800.065L442.197,800.065C477.962,800.065 499.299,805.855 530.036,823.601L929.147,1054.03C956.868,1070.03 963.16,1071.72 995.169,1071.72C998.169,1071.72 1002.12,1071.72 1006.87,1071.72C1039.77,1071.72 1043.22,1072.64 1071.71,1089.09L1150.5,1134.58C1169.22,1145.39 1177.73,1160.23 1177.73,1174.47C1177.73,1188.72 1169.22,1203.56 1150.5,1214.37L816.439,1407.24C785.466,1425.12 764.092,1430.77 728.599,1430.77L271.554,1430.77C249.492,1430.77 235.818,1426.72 227.36,1418.26C218.902,1409.81 214.849,1396.13 214.849,1374.07ZM442.197,821.325L278.312,821.325C262.726,821.325 251.789,823.395 244.984,830.201C238.179,837.006 236.109,847.942 236.109,863.528L236.109,1374.07C236.109,1388.4 236.9,1397.74 242.393,1403.23C247.886,1408.72 257.225,1409.51 271.554,1409.51L728.599,1409.51C759.797,1409.51 778.584,1404.54 805.809,1388.83L1139.87,1195.95C1150.39,1189.88 1156.47,1182.48 1156.47,1174.47C1156.47,1166.46 1150.39,1159.07 1139.87,1152.99L1061.08,1107.5C1037.26,1093.75 1034.38,1092.98 1006.87,1092.98C1002.12,1092.98 998.169,1092.98 995.169,1092.98C958.006,1092.98 950.701,1091.02 918.517,1072.44L519.406,842.013C492.389,826.414 473.634,821.325 442.197,821.325Z" style="fill:rgb(0,221,255);"/>
    <path d="M132.159,804.789L41.742,804.789C33.919,804.789 27.568,798.439 27.568,790.616C27.568,782.794 33.919,776.443 41.742,776.443L442.197,776.443C485.107,776.443 504.686,781.689 541.847,803.144L940.958,1033.57C964.779,1047.32 967.663,1048.1 995.169,1048.1C999.922,1048.1 1003.87,1048.1 1006.87,1048.1C1044.03,1048.1 1051.34,1050.05 1083.52,1068.63L1162.31,1114.12C1188.75,1129.39 1201.43,1152.11 1201.43,1174.47C1201.43,1196.84 1188.75,1219.56 1162.31,1234.82L828.25,1427.69C791.088,1449.15 771.51,1454.4 728.599,1454.4L271.554,1454.4C243.171,1454.4 223.454,1447.88 210.598,1435.02C197.742,1422.17 191.227,1402.45 191.227,1374.07L191.227,863.857C191.227,842.66 187.683,827.536 178.082,817.934C168.481,808.333 153.356,804.789 132.159,804.789ZM442.197,797.703L187.075,797.703C189.237,799.302 191.248,801.035 193.115,802.901C205.971,815.757 212.486,835.474 212.486,863.857L212.486,1374.07C212.486,1395.27 216.03,1410.39 225.631,1419.99C235.233,1429.59 250.357,1433.14 271.554,1433.14L728.599,1433.14C766.932,1433.14 784.422,1428.45 817.62,1409.28L1151.68,1216.41C1170.32,1205.65 1180.17,1190.24 1180.17,1174.47C1180.17,1158.71 1170.32,1143.3 1151.68,1132.54L1072.89,1087.05C1045.17,1071.04 1038.88,1069.36 1006.87,1069.36C1003.87,1069.36 999.922,1069.36 995.169,1069.36C962.269,1069.36 958.82,1068.43 930.328,1051.98L531.218,821.556C498.02,802.389 480.53,797.703 442.197,797.703Z" style="fill:rgb(255,94,179);"/>
    <path d="M942.325,1610.4L715.883,1479.66C709.104,1475.75 706.781,1467.08 710.695,1460.3C714.609,1453.52 723.277,1451.2 730.056,1455.11L761.229,1473.11C793.865,1491.95 819.343,1500.18 844.962,1498.52C871.145,1496.82 897.177,1485.09 930.531,1465.83L1118.89,1357.08C1125.67,1353.17 1134.34,1355.5 1138.25,1362.27C1142.16,1369.04 1139.84,1377.72 1133.07,1381.63L928.492,1499.74C913.168,1508.59 904.885,1521.44 904.885,1534.71C904.885,1547.98 913.168,1560.83 928.492,1569.68L956.498,1585.85C983.777,1601.6 1003.64,1610 1023.69,1610C1043.74,1610 1063.61,1601.6 1090.88,1585.85L1249.18,1494.46C1282.05,1475.48 1306.39,1466.51 1330.55,1466.51C1354.71,1466.51 1379.05,1475.48 1411.92,1494.46L1979.36,1822.07C2006.64,1837.82 2026.51,1846.22 2046.56,1846.22C2066.61,1846.22 2086.47,1837.82 2113.75,1822.07L2417.93,1646.45C2424.7,1642.54 2433.38,1644.87 2437.29,1651.64C2441.2,1658.41 2438.88,1667.09 2432.1,1671L2127.92,1846.62C2095.05,1865.6 2070.71,1874.56 2046.56,1874.56C2022.4,1874.56 1998.06,1865.6 1965.19,1846.62L1397.75,1519.01C1370.46,1503.26 1350.6,1494.86 1330.55,1494.86C1310.5,1494.86 1290.64,1503.26 1263.36,1519.01L1105.06,1610.4C1072.19,1629.38 1047.85,1638.34 1023.69,1638.34C999.533,1638.34 975.194,1629.38 942.325,1610.4ZM895.789,1563.07C890.028,1554.19 887.168,1544.44 887.168,1534.71C887.168,1523.43 891.016,1512.11 898.778,1502.15C880.114,1510.29 863.105,1515.09 846.11,1516.19C833.751,1517 821.385,1515.86 808.388,1512.61L895.789,1563.07Z" style="fill:rgb(33,171,114);"/>
</svg>
