<svg width="368" height="152" viewBox="0 0 368 152" fill="none" xmlns="http://www.w3.org/2000/svg">
<path d="M80 127.25H73V126H76.75L75.5 124.75H77.5L80 127.25Z" fill="#FF324E"/>
<path d="M73 127.75H80V129H76.25L77.5 130.25H75.5L73 127.75Z" fill="#005CFF"/>
<path d="M201 127.25H194V126H197.75L196.5 124.75H198.5L201 127.25Z" fill="#5CB446"/>
<path d="M194 127.75H201V129H197.25L198.5 130.25H196.5L194 127.75Z" fill="#005CFF"/>
<path d="M307.4 129.004C306.85 129.94 305.776 130.575 304.542 130.575C302.883 130.575 301.515 129.429 301.317 127.947L303.776 127.664C303.838 128.415 304.418 129.109 305.267 129.351C306.007 129.563 306.756 129.374 307.233 128.921L307.4 129.004Z" fill="#005CFF"/>
<path d="M301.292 127.571C301.292 127.572 301.292 127.574 301.292 127.575C301.292 127.577 301.292 127.578 301.292 127.579L301.292 127.571Z" fill="#005CFF"/>
<path d="M301.6 125.996C302.15 125.06 303.224 124.425 304.458 124.425C306.117 124.425 307.485 125.571 307.683 127.053L305.224 127.336C305.162 126.585 304.582 125.891 303.733 125.649C302.993 125.437 302.244 125.626 301.767 126.079L301.6 125.996Z" fill="#FF0000"/>
<path d="M307.708 127.429C307.708 127.428 307.708 127.426 307.708 127.425C307.708 127.423 307.708 127.422 307.708 127.42V127.429Z" fill="#FF0000"/>
<path fill-rule="evenodd" clip-rule="evenodd" d="M51 94.6396V93.0002L52.896 92.5V94.1395L51 94.6396ZM51 95.4999V101.64H52.896V94.9998L51 95.4999ZM72.8625 94.6396V93.0002L74.7585 92.5V94.1395L72.8625 94.6396ZM72.8625 95.4999V101.64H74.7585V94.9998L72.8625 95.4999ZM54.5578 101.64V100.008L58.0018 95.2798V95.0518H54.5578V93.4798H60.4498V95.1718L57.0178 99.8398V100.056H60.4498V101.64H54.5578ZM62.0906 93.4798V101.64H63.9866V95.9758H64.1426L65.6426 101.448H67.3586L68.8706 95.9758H69.0266V101.64H70.9226V93.4798H67.8866L66.5066 98.4478L65.0666 93.4798H62.0906ZM76.7203 93.4798V101.64H78.6163V99.0358H80.1043L81.0523 101.64H83.0203L81.8443 98.6038C82.2443 98.4038 82.5443 98.1038 82.7443 97.7038C82.9443 97.3038 83.0443 96.8118 83.0443 96.2278C83.0443 95.5238 82.9283 94.9758 82.6963 94.5838C82.4723 94.1838 82.1323 93.8998 81.6763 93.7318C81.2203 93.5638 80.6483 93.4798 79.9603 93.4798H76.7203ZM80.0083 97.4998H78.6163V95.0158H79.9603C80.3603 95.0158 80.6523 95.1158 80.8363 95.3158C81.0203 95.5158 81.1123 95.8198 81.1123 96.2278C81.1123 96.4758 81.0763 96.6958 81.0043 96.8878C80.9323 97.0798 80.8123 97.2318 80.6443 97.3438C80.4843 97.4478 80.2723 97.4998 80.0083 97.4998ZM87.9281 101.64V93.4798H90.9041L92.3441 98.4478L93.7241 93.4798H96.7601V101.64H94.8641V95.9758H94.7081L93.1961 101.448H91.4801L89.9801 95.9758H89.8241V101.64H87.9281ZM98.7 93.4798V101.64H104.268V100.08H100.596V98.2798H103.548V96.7438H100.596V95.0278H104.268V93.4798H98.7ZM107.445 101.64V95.0638H105.369V93.4798H111.369V95.0638H109.341V101.64H107.445ZM112.779 93.4798V101.64H114.675V99.0358H116.163L117.111 101.64H119.079L117.903 98.6038C118.303 98.4038 118.603 98.1038 118.803 97.7038C119.003 97.3038 119.103 96.8118 119.103 96.2278C119.103 95.5238 118.987 94.9758 118.755 94.5838C118.531 94.1838 118.191 93.8998 117.735 93.7318C117.279 93.5638 116.707 93.4798 116.019 93.4798H112.779ZM116.067 97.4998H114.675V95.0158H116.019C116.419 95.0158 116.711 95.1158 116.895 95.3158C117.079 95.5158 117.171 95.8198 117.171 96.2278C117.171 96.4758 117.135 96.6958 117.063 96.8878C116.991 97.0798 116.871 97.2318 116.703 97.3438C116.543 97.4478 116.331 97.4998 116.067 97.4998ZM124.109 101.784C123.237 101.784 122.537 101.632 122.009 101.328C121.489 101.024 121.113 100.56 120.881 99.9358C120.649 99.3118 120.533 98.5278 120.533 97.5838C120.533 96.6318 120.649 95.8438 120.881 95.2198C121.113 94.5878 121.489 94.1158 122.009 93.8038C122.537 93.4918 123.237 93.3358 124.109 93.3358C124.981 93.3358 125.677 93.4918 126.197 93.8038C126.717 94.1158 127.093 94.5878 127.325 95.2198C127.557 95.8438 127.673 96.6318 127.673 97.5838C127.673 98.5438 127.557 99.3358 127.325 99.9598C127.093 100.576 126.717 101.036 126.197 101.34C125.685 101.636 124.989 101.784 124.109 101.784ZM124.109 100.2C124.573 100.2 124.921 100.104 125.153 99.9118C125.385 99.7198 125.541 99.4278 125.621 99.0358C125.701 98.6438 125.741 98.1598 125.741 97.5838C125.741 97.0078 125.701 96.5198 125.621 96.1198C125.541 95.7198 125.385 95.4198 125.153 95.2198C124.921 95.0118 124.573 94.9078 124.109 94.9078C123.653 94.9078 123.305 95.0118 123.065 95.2198C122.833 95.4198 122.673 95.7198 122.585 96.1198C122.505 96.5118 122.465 96.9998 122.465 97.5838C122.465 98.1518 122.505 98.6318 122.585 99.0238C122.673 99.4158 122.833 99.7118 123.065 99.9118C123.297 100.104 123.645 100.2 124.109 100.2Z" fill="#111111"/>
<path d="M44 96.3573H26V93.143H35.6429L32.4286 89.9287H37.5714L44 96.3573Z" fill="#FF324E"/>
<path d="M26 97.6427H44V100.857H34.3571L37.5714 104.071H32.4286L26 97.6427Z" fill="#005CFF"/>
<path fill-rule="evenodd" clip-rule="evenodd" d="M175 94.6394V93.0002L176.896 92.5V94.1393L175 94.6394ZM175 95.4997V101.639H176.896V94.9995L175 95.4997ZM196.862 94.6394V93.0002L198.758 92.5V94.1393L196.862 94.6394ZM196.862 95.4997V101.639H198.758V94.9995L196.862 95.4997ZM178.558 100.007V101.639H184.45V100.055H181.018V99.8393L184.45 95.1713V93.4793H178.558V95.0513H182.002V95.2793L178.558 100.007ZM186.091 101.639V93.4793H189.067L190.507 98.4473L191.887 93.4793H194.923V101.639H193.027V95.9753H192.871L191.359 101.447H189.643L188.143 95.9753H187.987V101.639H186.091ZM200.72 101.639V93.4793H203.96C204.648 93.4793 205.22 93.5633 205.676 93.7313C206.132 93.8993 206.472 94.1833 206.696 94.5833C206.928 94.9753 207.044 95.5233 207.044 96.2273C207.044 96.8113 206.944 97.3033 206.744 97.7033C206.544 98.1033 206.244 98.4033 205.844 98.6033L207.02 101.639H205.052L204.104 99.0353H202.616V101.639H200.72ZM202.616 97.4993H204.008C204.272 97.4993 204.484 97.4473 204.644 97.3433C204.812 97.2313 204.932 97.0793 205.004 96.8873C205.076 96.6953 205.112 96.4753 205.112 96.2273C205.112 95.8193 205.02 95.5153 204.836 95.3153C204.652 95.1153 204.36 95.0153 203.96 95.0153H202.616V97.4993ZM213.464 95.0633V101.639H215.36V95.0633H217.388V93.4793H211.388V95.0633H213.464ZM218.798 101.639V93.4793H222.038C222.726 93.4793 223.298 93.5633 223.754 93.7313C224.21 93.8993 224.55 94.1833 224.774 94.5833C225.006 94.9753 225.122 95.5233 225.122 96.2273C225.122 96.8113 225.022 97.3033 224.822 97.7033C224.622 98.1033 224.322 98.4033 223.922 98.6033L225.098 101.639H223.13L222.182 99.0353H220.694V101.639H218.798ZM220.694 97.4993H222.086C222.35 97.4993 222.562 97.4473 222.722 97.3433C222.89 97.2313 223.01 97.0793 223.082 96.8873C223.154 96.6953 223.19 96.4753 223.19 96.2273C223.19 95.8193 223.098 95.5153 222.914 95.3153C222.73 95.1153 222.438 95.0153 222.038 95.0153H220.694V97.4993ZM228.256 93.4793L226.24 101.639H228.112L228.496 100.139H231.136L231.544 101.639H233.452L231.424 93.4793H228.256ZM230.896 98.6393H228.772L229.612 94.9913H230.068L230.896 98.6393ZM234.822 101.639V93.4793H237.798L239.238 98.4473L240.618 93.4793H243.654V101.639H241.758V95.9753H241.602L240.09 101.447H238.374L236.874 95.9753H236.718V101.639H234.822Z" fill="#111111"/>
<path d="M168 96.3573H150V93.143H159.643L156.429 89.9287H161.571L168 96.3573Z" fill="#5CB446"/>
<path d="M150 97.6427H168V100.857H158.357L161.571 104.071H156.429L150 97.6427Z" fill="#005CFF"/>
<path fill-rule="evenodd" clip-rule="evenodd" d="M295 89.778L297.492 89V91.078L295 91.858V89.778ZM295 93.178V100.078H297.492V92.4L295 93.178ZM299.975 98.006V100.078H306.989V98.02H303.251V97.768L306.989 92.756V90.6H299.975V92.658H303.741V92.91L299.975 98.006ZM309.462 100.078V90.6H313.452C314.087 90.6 314.647 90.6747 315.132 90.824C315.617 90.9733 315.995 91.2207 316.266 91.566C316.546 91.9113 316.686 92.378 316.686 92.966C316.686 93.358 316.653 93.6893 316.588 93.96C316.523 94.2213 316.415 94.4547 316.266 94.66C316.117 94.856 315.907 95.038 315.636 95.206C315.916 95.318 316.154 95.458 316.35 95.626C316.546 95.794 316.695 96.018 316.798 96.298C316.901 96.5687 316.952 96.9373 316.952 97.404C316.952 97.9267 316.863 98.3607 316.686 98.706C316.509 99.0513 316.261 99.3267 315.944 99.532C315.636 99.728 315.277 99.868 314.866 99.952C314.455 100.036 314.017 100.078 313.55 100.078H309.462ZM311.954 98.328H313.34C313.62 98.328 313.849 98.3 314.026 98.244C314.203 98.1787 314.334 98.062 314.418 97.894C314.511 97.726 314.558 97.4927 314.558 97.194C314.558 96.97 314.525 96.788 314.46 96.648C314.395 96.508 314.306 96.4007 314.194 96.326C314.082 96.2513 313.951 96.2 313.802 96.172C313.653 96.1347 313.494 96.116 313.326 96.116H311.954V98.328ZM311.954 94.464H313.298C313.69 94.464 313.97 94.3707 314.138 94.184C314.306 93.9973 314.39 93.7173 314.39 93.344C314.39 92.98 314.297 92.7187 314.11 92.56C313.933 92.4013 313.648 92.322 313.256 92.322H311.954V94.464ZM321.073 90.6L318.791 100.078H321.241L321.633 98.51H324.461L324.881 100.078H327.387L325.091 90.6H321.073ZM324.167 96.564H321.983L322.851 92.574H323.327L324.167 96.564ZM329.543 100.078V90.6H332.343L335.031 95.976H335.255V90.6H337.747V100.078H334.947L332.273 94.534H332.035V100.078H329.543Z" fill="#111111"/>
<path d="M288.457 100.868C287.042 103.274 284.281 104.907 281.107 104.907C276.843 104.907 273.324 101.959 272.814 98.1498L279.138 97.4201C279.297 99.3518 280.79 101.137 282.972 101.76C284.875 102.303 286.8 101.819 288.027 100.653L288.457 100.868Z" fill="#005CFF"/>
<path d="M272.75 97.1816C272.75 97.1854 272.75 97.1891 272.75 97.1928C272.75 97.1965 272.75 97.2003 272.75 97.204L272.75 97.1816Z" fill="#005CFF"/>
<path d="M273.543 93.1322C274.958 90.7262 277.718 89.0928 280.893 89.0928C285.157 89.0928 288.676 92.0412 289.186 95.8501L282.862 96.5798C282.703 94.648 281.21 92.8624 279.028 92.2397C277.125 91.6964 275.2 92.1812 273.973 93.3472L273.543 93.1322Z" fill="#FF0000"/>
<path d="M289.25 96.8182C289.25 96.8145 289.25 96.8108 289.25 96.8071C289.25 96.8033 289.25 96.7996 289.25 96.7959V96.8182Z" fill="#FF0000"/>
<path d="M295.309 103.384V103.108H295.558V103.384H295.309ZM295.3 105.766V103.696H295.564V105.766H295.3Z" fill="#111111"/>
<path d="M296.398 105.769V105.481L297.448 103.99V103.927H296.398V103.696H297.76V103.984L296.707 105.475V105.535H297.76V105.769H296.398Z" fill="#111111"/>
<path d="M298.594 105.766V103.696H299.062L299.611 105.385L300.166 103.696H300.634V105.766H300.37V103.99H300.325L299.755 105.694H299.473L298.903 103.99H298.858V105.766H298.594Z" fill="#111111"/>
<path d="M301.594 103.384V103.108H301.843V103.384H301.594ZM301.585 105.766V103.696H301.849V105.766H301.585Z" fill="#111111"/>
<path d="M302.8 105.766V103.696H303.574C303.724 103.696 303.849 103.718 303.949 103.762C304.049 103.806 304.124 103.875 304.174 103.969C304.226 104.063 304.252 104.184 304.252 104.332C304.252 104.484 304.222 104.612 304.162 104.716C304.102 104.818 304.009 104.891 303.883 104.935L304.267 105.766H303.979L303.625 104.992H303.064V105.766H302.8ZM303.064 104.764H303.58C303.678 104.764 303.756 104.746 303.814 104.71C303.874 104.672 303.916 104.621 303.94 104.557C303.966 104.491 303.979 104.417 303.979 104.335C303.979 104.197 303.946 104.094 303.88 104.026C303.814 103.958 303.712 103.924 303.574 103.924H303.064V104.764Z" fill="#111111"/>
<path d="M306.237 105.766V103.696H307.002C307.138 103.696 307.252 103.714 307.344 103.75C307.436 103.786 307.506 103.843 307.554 103.921C307.602 103.997 307.626 104.098 307.626 104.224C307.626 104.31 307.615 104.384 307.593 104.446C307.573 104.506 307.544 104.556 307.506 104.596C307.47 104.636 307.424 104.671 307.368 104.701C307.428 104.721 307.482 104.75 307.53 104.788C307.578 104.826 307.616 104.877 307.644 104.941C307.674 105.003 307.689 105.084 307.689 105.184C307.689 105.292 307.673 105.384 307.641 105.46C307.611 105.534 307.567 105.594 307.509 105.64C307.451 105.684 307.382 105.716 307.302 105.736C307.224 105.756 307.135 105.766 307.035 105.766H306.237ZM306.501 105.544H307.023C307.105 105.544 307.176 105.533 307.236 105.511C307.296 105.489 307.342 105.452 307.374 105.4C307.406 105.346 307.422 105.27 307.422 105.172C307.422 105.098 307.408 105.038 307.38 104.992C307.354 104.944 307.319 104.909 307.275 104.887C307.233 104.863 307.189 104.847 307.143 104.839C307.097 104.831 307.054 104.827 307.014 104.827H306.501V105.544ZM306.501 104.605H307.011C307.135 104.605 307.224 104.576 307.278 104.518C307.334 104.458 307.362 104.368 307.362 104.248C307.362 104.134 307.331 104.051 307.269 103.999C307.209 103.945 307.116 103.918 306.99 103.918H306.501V104.605Z" fill="#111111"/>
<path d="M308.371 105.766L308.929 103.696H309.478L310.036 105.766H309.772L309.628 105.256H308.776L308.632 105.766H308.371ZM308.827 105.028H309.577L309.277 103.918H309.127L308.827 105.028Z" fill="#111111"/>
<path d="M310.806 105.766V103.696H311.265L312.03 105.499H312.087V103.696H312.351V105.766H311.901L311.127 103.96H311.07V105.766H310.806Z" fill="#111111"/>
<path d="M313.304 105.766V103.696H313.568V105.532H314.462V105.766H313.304Z" fill="#111111"/>
<path d="M315.214 103.384V103.108H315.463V103.384H315.214ZM315.205 105.766V103.696H315.469V105.766H315.205Z" fill="#111111"/>
<path d="M316.858 105.766V104.908L316.204 103.696H316.498L316.987 104.641L317.482 103.696H317.776L317.122 104.908V105.766H316.858Z" fill="#111111"/>
<path d="M319.258 105.796C319.042 105.796 318.874 105.757 318.754 105.679C318.634 105.599 318.55 105.481 318.502 105.325C318.454 105.167 318.43 104.972 318.43 104.74C318.43 104.51 318.454 104.315 318.502 104.155C318.552 103.995 318.637 103.873 318.757 103.789C318.877 103.705 319.044 103.663 319.258 103.663C319.474 103.663 319.642 103.705 319.762 103.789C319.882 103.871 319.966 103.993 320.014 104.155C320.064 104.315 320.089 104.51 320.089 104.74C320.089 104.978 320.065 105.175 320.017 105.331C319.969 105.487 319.884 105.604 319.762 105.682C319.642 105.758 319.474 105.796 319.258 105.796ZM319.258 105.565C319.412 105.565 319.529 105.536 319.609 105.478C319.689 105.418 319.743 105.327 319.771 105.205C319.801 105.083 319.816 104.928 319.816 104.74C319.816 104.56 319.801 104.407 319.771 104.281C319.741 104.155 319.686 104.059 319.606 103.993C319.526 103.927 319.41 103.894 319.258 103.894C319.106 103.894 318.99 103.927 318.91 103.993C318.832 104.059 318.778 104.155 318.748 104.281C318.718 104.405 318.703 104.558 318.703 104.74C318.703 104.922 318.717 105.074 318.745 105.196C318.775 105.318 318.829 105.41 318.907 105.472C318.987 105.534 319.104 105.565 319.258 105.565ZM319.444 103.363V103.078H319.681V103.363H319.444ZM318.832 103.363V103.078H319.069V103.363H318.832Z" fill="#111111"/>
<path d="M322.665 105.793C322.601 105.793 322.528 105.789 322.446 105.781C322.366 105.775 322.286 105.767 322.206 105.757C322.126 105.745 322.056 105.735 321.996 105.727L322.02 105.511C322.08 105.517 322.148 105.524 322.224 105.532C322.302 105.54 322.379 105.547 322.455 105.553C322.531 105.559 322.596 105.562 322.65 105.562C322.79 105.562 322.895 105.531 322.965 105.469C323.035 105.405 323.07 105.306 323.07 105.172C323.07 105.1 323.056 105.042 323.028 104.998C323 104.954 322.953 104.92 322.887 104.896C322.823 104.87 322.736 104.846 322.626 104.824C322.48 104.794 322.359 104.758 322.263 104.716C322.167 104.674 322.095 104.615 322.047 104.539C322.001 104.463 321.978 104.36 321.978 104.23C321.978 104.092 322.006 103.982 322.062 103.9C322.118 103.816 322.197 103.755 322.299 103.717C322.401 103.679 322.52 103.66 322.656 103.66C322.716 103.66 322.785 103.664 322.863 103.672C322.941 103.678 323.018 103.686 323.094 103.696C323.17 103.704 323.235 103.713 323.289 103.723L323.271 103.942C323.211 103.934 323.143 103.927 323.067 103.921C322.991 103.913 322.917 103.906 322.845 103.9C322.775 103.894 322.718 103.891 322.674 103.891C322.532 103.891 322.425 103.917 322.353 103.969C322.281 104.021 322.245 104.101 322.245 104.209C322.245 104.295 322.261 104.36 322.293 104.404C322.325 104.448 322.377 104.483 322.449 104.509C322.521 104.533 322.615 104.558 322.731 104.584C322.837 104.61 322.928 104.637 323.004 104.665C323.08 104.693 323.143 104.728 323.193 104.77C323.243 104.81 323.279 104.861 323.301 104.923C323.325 104.985 323.337 105.061 323.337 105.151C323.337 105.305 323.309 105.429 323.253 105.523C323.199 105.617 323.122 105.686 323.022 105.73C322.922 105.772 322.803 105.793 322.665 105.793Z" fill="#111111"/>
<path d="M324.189 103.384V103.108H324.438V103.384H324.189ZM324.18 105.766V103.696H324.444V105.766H324.18Z" fill="#111111"/>
<path d="M325.977 105.793C325.913 105.793 325.84 105.789 325.758 105.781C325.678 105.775 325.598 105.767 325.518 105.757C325.438 105.745 325.368 105.735 325.308 105.727L325.332 105.511C325.392 105.517 325.46 105.524 325.536 105.532C325.614 105.54 325.691 105.547 325.767 105.553C325.843 105.559 325.908 105.562 325.962 105.562C326.102 105.562 326.207 105.531 326.277 105.469C326.347 105.405 326.382 105.306 326.382 105.172C326.382 105.1 326.368 105.042 326.34 104.998C326.312 104.954 326.265 104.92 326.199 104.896C326.135 104.87 326.048 104.846 325.938 104.824C325.792 104.794 325.671 104.758 325.575 104.716C325.479 104.674 325.407 104.615 325.359 104.539C325.313 104.463 325.29 104.36 325.29 104.23C325.29 104.092 325.318 103.982 325.374 103.9C325.43 103.816 325.509 103.755 325.611 103.717C325.713 103.679 325.832 103.66 325.968 103.66C326.028 103.66 326.097 103.664 326.175 103.672C326.253 103.678 326.33 103.686 326.406 103.696C326.482 103.704 326.547 103.713 326.601 103.723L326.583 103.942C326.523 103.934 326.455 103.927 326.379 103.921C326.303 103.913 326.229 103.906 326.157 103.9C326.087 103.894 326.03 103.891 325.986 103.891C325.844 103.891 325.737 103.917 325.665 103.969C325.593 104.021 325.557 104.101 325.557 104.209C325.557 104.295 325.573 104.36 325.605 104.404C325.637 104.448 325.689 104.483 325.761 104.509C325.833 104.533 325.927 104.558 326.043 104.584C326.149 104.61 326.24 104.637 326.316 104.665C326.392 104.693 326.455 104.728 326.505 104.77C326.555 104.81 326.591 104.861 326.613 104.923C326.637 104.985 326.649 105.061 326.649 105.151C326.649 105.305 326.621 105.429 326.565 105.523C326.511 105.617 326.434 105.686 326.334 105.73C326.234 105.772 326.115 105.793 325.977 105.793Z" fill="#111111"/>
<path d="M327.909 105.766V103.93H327.288V103.696H328.788V103.93H328.173V105.766H327.909Z" fill="#111111"/>
<path d="M329.536 105.766V103.696H330.817V103.927H329.8V104.602H330.637V104.83H329.8V105.535H330.817V105.766H329.536Z" fill="#111111"/>
<path d="M331.659 105.766V103.696H332.127L332.676 105.385L333.231 103.696H333.699V105.766H333.435V103.99H333.39L332.82 105.694H332.538L331.968 103.99H331.923V105.766H331.659Z" fill="#111111"/>
<path d="M334.659 103.384V103.108H334.908V103.384H334.659ZM334.65 105.766V103.696H334.914V105.766H334.65Z" fill="#111111"/>
<path fill-rule="evenodd" clip-rule="evenodd" d="M38 58.1396V56.5002L39.896 56V57.6395L38 58.1396ZM38 58.9999V65.1398H39.896V58.4998L38 58.9999ZM59.8625 58.1396V56.5002L61.7585 56V57.6395L59.8625 58.1396ZM59.8625 58.9999V65.1398H61.7585V58.4998L59.8625 58.9999ZM41.5578 65.1398V63.5078L45.0018 58.7798V58.5518H41.5578V56.9798H47.4498V58.6718L44.0178 63.3398V63.5558H47.4498V65.1398H41.5578ZM49.0906 56.9798V65.1398H50.9866V59.4758H51.1426L52.6426 64.9478H54.3586L55.8706 59.4758H56.0266V65.1398H57.9226V56.9798H54.8866L53.5066 61.9478L52.0666 56.9798H49.0906ZM63.7203 56.9798V65.1398H65.6163V62.5358H67.1043L68.0523 65.1398H70.0203L68.8443 62.1038C69.2443 61.9038 69.5443 61.6038 69.7443 61.2038C69.9443 60.8038 70.0443 60.3118 70.0443 59.7278C70.0443 59.0238 69.9283 58.4758 69.6963 58.0838C69.4723 57.6838 69.1323 57.3998 68.6763 57.2318C68.2203 57.0638 67.6483 56.9798 66.9603 56.9798H63.7203ZM67.0083 60.9998H65.6163V58.5158H66.9603C67.3603 58.5158 67.6523 58.6158 67.8363 58.8158C68.0203 59.0158 68.1123 59.3198 68.1123 59.7278C68.1123 59.9758 68.0763 60.1958 68.0043 60.3878C67.9323 60.5798 67.8123 60.7318 67.6443 60.8438C67.4843 60.9478 67.2723 60.9998 67.0083 60.9998ZM74.9281 65.1398V56.9798H77.9041L79.3441 61.9478L80.7241 56.9798H83.7601V65.1398H81.8641V59.4758H81.7081L80.1961 64.9478H78.4801L76.9801 59.4758H76.8241V65.1398H74.9281ZM85.7 56.9798V65.1398H91.268V63.5798H87.596V61.7798H90.548V60.2438H87.596V58.5278H91.268V56.9798H85.7ZM94.4454 65.1398V58.5638H92.3694V56.9798H98.3694V58.5638H96.3414V65.1398H94.4454ZM99.7789 56.9798V65.1398H101.675V62.5358H103.163L104.111 65.1398H106.079L104.903 62.1038C105.303 61.9038 105.603 61.6038 105.803 61.2038C106.003 60.8038 106.103 60.3118 106.103 59.7278C106.103 59.0238 105.987 58.4758 105.755 58.0838C105.531 57.6838 105.191 57.3998 104.735 57.2318C104.279 57.0638 103.707 56.9798 103.019 56.9798H99.7789ZM103.067 60.9998H101.675V58.5158H103.019C103.419 58.5158 103.711 58.6158 103.895 58.8158C104.079 59.0158 104.171 59.3198 104.171 59.7278C104.171 59.9758 104.135 60.1958 104.063 60.3878C103.991 60.5798 103.871 60.7318 103.703 60.8438C103.543 60.9478 103.331 60.9998 103.067 60.9998ZM111.109 65.2838C110.237 65.2838 109.537 65.1318 109.009 64.8278C108.489 64.5238 108.113 64.0598 107.881 63.4358C107.649 62.8118 107.533 62.0278 107.533 61.0838C107.533 60.1318 107.649 59.3438 107.881 58.7198C108.113 58.0878 108.489 57.6158 109.009 57.3038C109.537 56.9918 110.237 56.8358 111.109 56.8358C111.981 56.8358 112.677 56.9918 113.197 57.3038C113.717 57.6158 114.093 58.0878 114.325 58.7198C114.557 59.3438 114.673 60.1318 114.673 61.0838C114.673 62.0438 114.557 62.8358 114.325 63.4598C114.093 64.0758 113.717 64.5358 113.197 64.8398C112.685 65.1358 111.989 65.2838 111.109 65.2838ZM111.109 63.6998C111.573 63.6998 111.921 63.6038 112.153 63.4118C112.385 63.2198 112.541 62.9278 112.621 62.5358C112.701 62.1438 112.741 61.6598 112.741 61.0838C112.741 60.5078 112.701 60.0198 112.621 59.6198C112.541 59.2198 112.385 58.9198 112.153 58.7198C111.921 58.5118 111.573 58.4078 111.109 58.4078C110.653 58.4078 110.305 58.5118 110.065 58.7198C109.833 58.9198 109.673 59.2198 109.585 59.6198C109.505 60.0118 109.465 60.4998 109.465 61.0838C109.465 61.6518 109.505 62.1318 109.585 62.5238C109.673 62.9158 109.833 63.2118 110.065 63.4118C110.297 63.6038 110.645 63.6998 111.109 63.6998Z" fill="#111111"/>
<path d="M90.2108 34H62.2108V29H77.2108L72.2108 24H80.2108L90.2108 34Z" fill="#FF324E"/>
<path d="M62.2108 36H90.2108V41H75.2108L80.2108 46H72.2108L62.2108 36Z" fill="#005CFF"/>
<path fill-rule="evenodd" clip-rule="evenodd" d="M163 58.1394V56.5002L164.896 56V57.6393L163 58.1394ZM163 58.9997V65.1393H164.896V58.4995L163 58.9997ZM184.862 58.1394V56.5002L186.758 56V57.6393L184.862 58.1394ZM184.862 58.9997V65.1393H186.758V58.4995L184.862 58.9997ZM166.558 63.5073V65.1393H172.45V63.5553H169.018V63.3393L172.45 58.6713V56.9793H166.558V58.5513H170.002V58.7793L166.558 63.5073ZM174.091 65.1393V56.9793H177.067L178.507 61.9473L179.887 56.9793H182.923V65.1393H181.027V59.4753H180.871L179.359 64.9473H177.643L176.143 59.4753H175.987V65.1393H174.091ZM188.72 65.1393V56.9793H191.96C192.648 56.9793 193.22 57.0633 193.676 57.2313C194.132 57.3993 194.472 57.6833 194.696 58.0833C194.928 58.4753 195.044 59.0233 195.044 59.7273C195.044 60.3113 194.944 60.8033 194.744 61.2033C194.544 61.6033 194.244 61.9033 193.844 62.1033L195.02 65.1393H193.052L192.104 62.5353H190.616V65.1393H188.72ZM190.616 60.9993H192.008C192.272 60.9993 192.484 60.9473 192.644 60.8433C192.812 60.7313 192.932 60.5793 193.004 60.3873C193.076 60.1953 193.112 59.9753 193.112 59.7273C193.112 59.3193 193.02 59.0153 192.836 58.8153C192.652 58.6153 192.36 58.5153 191.96 58.5153H190.616V60.9993ZM201.464 58.5633V65.1393H203.36V58.5633H205.388V56.9793H199.388V58.5633H201.464ZM206.798 65.1393V56.9793H210.038C210.726 56.9793 211.298 57.0633 211.754 57.2313C212.21 57.3993 212.55 57.6833 212.774 58.0833C213.006 58.4753 213.122 59.0233 213.122 59.7273C213.122 60.3113 213.022 60.8033 212.822 61.2033C212.622 61.6033 212.322 61.9033 211.922 62.1033L213.098 65.1393H211.13L210.182 62.5353H208.694V65.1393H206.798ZM208.694 60.9993H210.086C210.35 60.9993 210.562 60.9473 210.722 60.8433C210.89 60.7313 211.01 60.5793 211.082 60.3873C211.154 60.1953 211.19 59.9753 211.19 59.7273C211.19 59.3193 211.098 59.0153 210.914 58.8153C210.73 58.6153 210.438 58.5153 210.038 58.5153H208.694V60.9993ZM216.256 56.9793L214.24 65.1393H216.112L216.496 63.6393H219.136L219.544 65.1393H221.452L219.424 56.9793H216.256ZM218.896 62.1393H216.772L217.612 58.4913H218.068L218.896 62.1393ZM222.822 65.1393V56.9793H225.798L227.238 61.9473L228.618 56.9793H231.654V65.1393H229.758V59.4753H229.602L228.09 64.9473H226.374L224.874 59.4753H224.718V65.1393H222.822Z" fill="#111111"/>
<path d="M211 34H183V29H198L193 24H201L211 34Z" fill="#5CB446"/>
<path d="M183 36H211V41H196L201 46H193L183 36Z" fill="#005CFF"/>
<path fill-rule="evenodd" clip-rule="evenodd" d="M283 54.778L285.492 54V56.078L283 56.858V54.778ZM283 58.178V65.078H285.492V57.4L283 58.178ZM287.975 63.006V65.078H294.989V63.02H291.251V62.768L294.989 57.756V55.6H287.975V57.658H291.741V57.91L287.975 63.006ZM297.462 65.078V55.6H301.452C302.087 55.6 302.647 55.6747 303.132 55.824C303.617 55.9733 303.995 56.2207 304.266 56.566C304.546 56.9113 304.686 57.378 304.686 57.966C304.686 58.358 304.653 58.6893 304.588 58.96C304.523 59.2213 304.415 59.4547 304.266 59.66C304.117 59.856 303.907 60.038 303.636 60.206C303.916 60.318 304.154 60.458 304.35 60.626C304.546 60.794 304.695 61.018 304.798 61.298C304.901 61.5687 304.952 61.9373 304.952 62.404C304.952 62.9267 304.863 63.3607 304.686 63.706C304.509 64.0513 304.261 64.3267 303.944 64.532C303.636 64.728 303.277 64.868 302.866 64.952C302.455 65.036 302.017 65.078 301.55 65.078H297.462ZM299.954 63.328H301.34C301.62 63.328 301.849 63.3 302.026 63.244C302.203 63.1787 302.334 63.062 302.418 62.894C302.511 62.726 302.558 62.4927 302.558 62.194C302.558 61.97 302.525 61.788 302.46 61.648C302.395 61.508 302.306 61.4007 302.194 61.326C302.082 61.2513 301.951 61.2 301.802 61.172C301.653 61.1347 301.494 61.116 301.326 61.116H299.954V63.328ZM299.954 59.464H301.298C301.69 59.464 301.97 59.3707 302.138 59.184C302.306 58.9973 302.39 58.7173 302.39 58.344C302.39 57.98 302.297 57.7187 302.11 57.56C301.933 57.4013 301.648 57.322 301.256 57.322H299.954V59.464ZM309.073 55.6L306.791 65.078H309.241L309.633 63.51H312.461L312.881 65.078H315.387L313.091 55.6H309.073ZM312.167 61.564H309.983L310.851 57.574H311.327L312.167 61.564ZM317.543 65.078V55.6H320.343L323.031 60.976H323.255V55.6H325.747V65.078H322.947L320.273 59.534H320.035V65.078H317.543Z" fill="#111111"/>
<path d="M315.471 41.0166C313.27 44.7592 308.975 47.3001 304.038 47.3001C297.404 47.3001 291.931 42.7137 291.137 36.7887L300.974 35.6536C301.221 38.6586 303.544 41.4362 306.938 42.405C309.899 43.25 312.893 42.4958 314.802 40.6821L315.471 41.0166Z" fill="#005CFF"/>
<path d="M291.038 35.2827C291.038 35.2885 291.038 35.2943 291.038 35.3001C291.038 35.3059 291.038 35.3117 291.038 35.3175L291.038 35.2827Z" fill="#005CFF"/>
<path d="M292.271 28.9837C294.472 25.2411 298.766 22.7002 303.704 22.7002C310.337 22.7002 315.811 27.2866 316.605 33.2116L306.767 34.3467C306.52 31.3417 304.198 28.5641 300.804 27.5953C297.843 26.7503 294.849 27.5045 292.94 29.3182L292.271 28.9837Z" fill="#FF0000"/>
<path d="M316.704 34.7176C316.704 34.7118 316.704 34.706 316.704 34.7002C316.704 34.6944 316.704 34.6886 316.704 34.6828V34.7176Z" fill="#FF0000"/>
<path d="M284.573 68.306V68.03H284.822V68.306H284.573ZM284.564 70.688V68.618H284.828V70.688H284.564Z" fill="#111111"/>
<path d="M285.662 70.691V70.403L286.712 68.912V68.849H285.662V68.618H287.024V68.906L285.971 70.397V70.457H287.024V70.691H285.662Z" fill="#111111"/>
<path d="M287.858 70.688V68.618H288.326L288.875 70.307L289.43 68.618H289.898V70.688H289.634V68.912H289.589L289.019 70.616H288.737L288.167 68.912H288.122V70.688H287.858Z" fill="#111111"/>
<path d="M290.858 68.306V68.03H291.107V68.306H290.858ZM290.849 70.688V68.618H291.113V70.688H290.849Z" fill="#111111"/>
<path d="M292.064 70.688V68.618H292.838C292.988 68.618 293.113 68.64 293.213 68.684C293.313 68.728 293.388 68.797 293.438 68.891C293.49 68.985 293.516 69.106 293.516 69.254C293.516 69.406 293.486 69.534 293.426 69.638C293.366 69.74 293.273 69.813 293.147 69.857L293.531 70.688H293.243L292.889 69.914H292.328V70.688H292.064ZM292.328 69.686H292.844C292.942 69.686 293.02 69.668 293.078 69.632C293.138 69.594 293.18 69.543 293.204 69.479C293.23 69.413 293.243 69.339 293.243 69.257C293.243 69.119 293.21 69.016 293.144 68.948C293.078 68.88 292.976 68.846 292.838 68.846H292.328V69.686Z" fill="#111111"/>
<path d="M295.501 70.688V68.618H296.266C296.402 68.618 296.516 68.636 296.608 68.672C296.7 68.708 296.77 68.765 296.818 68.843C296.866 68.919 296.89 69.02 296.89 69.146C296.89 69.232 296.879 69.306 296.857 69.368C296.837 69.428 296.808 69.478 296.77 69.518C296.734 69.558 296.688 69.593 296.632 69.623C296.692 69.643 296.746 69.672 296.794 69.71C296.842 69.748 296.88 69.799 296.908 69.863C296.938 69.925 296.953 70.006 296.953 70.106C296.953 70.214 296.937 70.306 296.905 70.382C296.875 70.456 296.831 70.516 296.773 70.562C296.715 70.606 296.646 70.638 296.566 70.658C296.488 70.678 296.399 70.688 296.299 70.688H295.501ZM295.765 70.466H296.287C296.369 70.466 296.44 70.455 296.5 70.433C296.56 70.411 296.606 70.374 296.638 70.322C296.67 70.268 296.686 70.192 296.686 70.094C296.686 70.02 296.672 69.96 296.644 69.914C296.618 69.866 296.583 69.831 296.539 69.809C296.497 69.785 296.453 69.769 296.407 69.761C296.361 69.753 296.318 69.749 296.278 69.749H295.765V70.466ZM295.765 69.527H296.275C296.399 69.527 296.488 69.498 296.542 69.44C296.598 69.38 296.626 69.29 296.626 69.17C296.626 69.056 296.595 68.973 296.533 68.921C296.473 68.867 296.38 68.84 296.254 68.84H295.765V69.527Z" fill="#111111"/>
<path d="M297.635 70.688L298.193 68.618H298.742L299.3 70.688H299.036L298.892 70.178H298.04L297.896 70.688H297.635ZM298.091 69.95H298.841L298.541 68.84H298.391L298.091 69.95Z" fill="#111111"/>
<path d="M300.07 70.688V68.618H300.529L301.294 70.421H301.351V68.618H301.615V70.688H301.165L300.391 68.882H300.334V70.688H300.07Z" fill="#111111"/>
<path d="M302.568 70.688V68.618H302.832V70.454H303.726V70.688H302.568Z" fill="#111111"/>
<path d="M304.478 68.306V68.03H304.727V68.306H304.478ZM304.469 70.688V68.618H304.733V70.688H304.469Z" fill="#111111"/>
<path d="M306.122 70.688V69.83L305.468 68.618H305.762L306.251 69.563L306.746 68.618H307.04L306.386 69.83V70.688H306.122Z" fill="#111111"/>
<path d="M308.522 70.718C308.306 70.718 308.138 70.679 308.018 70.601C307.898 70.521 307.814 70.403 307.766 70.247C307.718 70.089 307.694 69.894 307.694 69.662C307.694 69.432 307.718 69.237 307.766 69.077C307.816 68.917 307.901 68.795 308.021 68.711C308.141 68.627 308.308 68.585 308.522 68.585C308.738 68.585 308.906 68.627 309.026 68.711C309.146 68.793 309.23 68.915 309.278 69.077C309.328 69.237 309.353 69.432 309.353 69.662C309.353 69.9 309.329 70.097 309.281 70.253C309.233 70.409 309.148 70.526 309.026 70.604C308.906 70.68 308.738 70.718 308.522 70.718ZM308.522 70.487C308.676 70.487 308.793 70.458 308.873 70.4C308.953 70.34 309.007 70.249 309.035 70.127C309.065 70.005 309.08 69.85 309.08 69.662C309.08 69.482 309.065 69.329 309.035 69.203C309.005 69.077 308.95 68.981 308.87 68.915C308.79 68.849 308.674 68.816 308.522 68.816C308.37 68.816 308.254 68.849 308.174 68.915C308.096 68.981 308.042 69.077 308.012 69.203C307.982 69.327 307.967 69.48 307.967 69.662C307.967 69.844 307.981 69.996 308.009 70.118C308.039 70.24 308.093 70.332 308.171 70.394C308.251 70.456 308.368 70.487 308.522 70.487ZM308.708 68.285V68H308.945V68.285H308.708ZM308.096 68.285V68H308.333V68.285H308.096Z" fill="#111111"/>
<path d="M311.929 70.715C311.865 70.715 311.792 70.711 311.71 70.703C311.63 70.697 311.55 70.689 311.47 70.679C311.39 70.667 311.32 70.657 311.26 70.649L311.284 70.433C311.344 70.439 311.412 70.446 311.488 70.454C311.566 70.462 311.643 70.469 311.719 70.475C311.795 70.481 311.86 70.484 311.914 70.484C312.054 70.484 312.159 70.453 312.229 70.391C312.299 70.327 312.334 70.228 312.334 70.094C312.334 70.022 312.32 69.964 312.292 69.92C312.264 69.876 312.217 69.842 312.151 69.818C312.087 69.792 312 69.768 311.89 69.746C311.744 69.716 311.623 69.68 311.527 69.638C311.431 69.596 311.359 69.537 311.311 69.461C311.265 69.385 311.242 69.282 311.242 69.152C311.242 69.014 311.27 68.904 311.326 68.822C311.382 68.738 311.461 68.677 311.563 68.639C311.665 68.601 311.784 68.582 311.92 68.582C311.98 68.582 312.049 68.586 312.127 68.594C312.205 68.6 312.282 68.608 312.358 68.618C312.434 68.626 312.499 68.635 312.553 68.645L312.535 68.864C312.475 68.856 312.407 68.849 312.331 68.843C312.255 68.835 312.181 68.828 312.109 68.822C312.039 68.816 311.982 68.813 311.938 68.813C311.796 68.813 311.689 68.839 311.617 68.891C311.545 68.943 311.509 69.023 311.509 69.131C311.509 69.217 311.525 69.282 311.557 69.326C311.589 69.37 311.641 69.405 311.713 69.431C311.785 69.455 311.879 69.48 311.995 69.506C312.101 69.532 312.192 69.559 312.268 69.587C312.344 69.615 312.407 69.65 312.457 69.692C312.507 69.732 312.543 69.783 312.565 69.845C312.589 69.907 312.601 69.983 312.601 70.073C312.601 70.227 312.573 70.351 312.517 70.445C312.463 70.539 312.386 70.608 312.286 70.652C312.186 70.694 312.067 70.715 311.929 70.715Z" fill="#111111"/>
<path d="M313.453 68.306V68.03H313.702V68.306H313.453ZM313.444 70.688V68.618H313.708V70.688H313.444Z" fill="#111111"/>
<path d="M315.241 70.715C315.177 70.715 315.104 70.711 315.022 70.703C314.942 70.697 314.862 70.689 314.782 70.679C314.702 70.667 314.632 70.657 314.572 70.649L314.596 70.433C314.656 70.439 314.724 70.446 314.8 70.454C314.878 70.462 314.955 70.469 315.031 70.475C315.107 70.481 315.172 70.484 315.226 70.484C315.366 70.484 315.471 70.453 315.541 70.391C315.611 70.327 315.646 70.228 315.646 70.094C315.646 70.022 315.632 69.964 315.604 69.92C315.576 69.876 315.529 69.842 315.463 69.818C315.399 69.792 315.312 69.768 315.202 69.746C315.056 69.716 314.935 69.68 314.839 69.638C314.743 69.596 314.671 69.537 314.623 69.461C314.577 69.385 314.554 69.282 314.554 69.152C314.554 69.014 314.582 68.904 314.638 68.822C314.694 68.738 314.773 68.677 314.875 68.639C314.977 68.601 315.096 68.582 315.232 68.582C315.292 68.582 315.361 68.586 315.439 68.594C315.517 68.6 315.594 68.608 315.67 68.618C315.746 68.626 315.811 68.635 315.865 68.645L315.847 68.864C315.787 68.856 315.719 68.849 315.643 68.843C315.567 68.835 315.493 68.828 315.421 68.822C315.351 68.816 315.294 68.813 315.25 68.813C315.108 68.813 315.001 68.839 314.929 68.891C314.857 68.943 314.821 69.023 314.821 69.131C314.821 69.217 314.837 69.282 314.869 69.326C314.901 69.37 314.953 69.405 315.025 69.431C315.097 69.455 315.191 69.48 315.307 69.506C315.413 69.532 315.504 69.559 315.58 69.587C315.656 69.615 315.719 69.65 315.769 69.692C315.819 69.732 315.855 69.783 315.877 69.845C315.901 69.907 315.913 69.983 315.913 70.073C315.913 70.227 315.885 70.351 315.829 70.445C315.775 70.539 315.698 70.608 315.598 70.652C315.498 70.694 315.379 70.715 315.241 70.715Z" fill="#111111"/>
<path d="M317.173 70.688V68.852H316.552V68.618H318.052V68.852H317.437V70.688H317.173Z" fill="#111111"/>
<path d="M318.8 70.688V68.618H320.081V68.849H319.064V69.524H319.901V69.752H319.064V70.457H320.081V70.688H318.8Z" fill="#111111"/>
<path d="M320.923 70.688V68.618H321.391L321.94 70.307L322.495 68.618H322.963V70.688H322.699V68.912H322.654L322.084 70.616H321.802L321.232 68.912H321.187V70.688H320.923Z" fill="#111111"/>
<path d="M323.923 68.306V68.03H324.172V68.306H323.923ZM323.914 70.688V68.618H324.178V70.688H323.914Z" fill="#111111"/>
</svg>
