<svg width="346" height="184" fill="none" xmlns="http://www.w3.org/2000/svg"><path d="M69 157.25h-7V156h3.75l-1.25-1.25h2l2.5 2.5Z" fill="#FF324E"/><path d="M62 157.75h7V159h-3.75l1.25 1.25h-2l-2.5-2.5Z" fill="#005CFF"/><path d="M190 157.25h-7V156h3.75l-1.25-1.25h2l2.5 2.5Z" fill="#5CB446"/><path d="M183 157.75h7V159h-3.75l1.25 1.25h-2l-2.5-2.5ZM296.4 159.004c-.55.936-1.624 1.571-2.858 1.571-1.659 0-3.027-1.146-3.225-2.628l2.459-.283c.062.751.642 1.445 1.491 1.687.74.212 1.489.023 1.966-.43l.167.083ZM290.292 157.571v.008-.008Z" fill="#005CFF"/><path d="M290.6 155.996c.55-.936 1.624-1.571 2.858-1.571 1.659 0 3.027 1.146 3.225 2.628l-2.459.283c-.062-.751-.642-1.445-1.491-1.687-.74-.212-1.489-.023-1.966.43l-.167-.083ZM296.708 157.429V157.42v.009Z" fill="#FF0000"/><path fill-rule="evenodd" clip-rule="evenodd" d="M40 107.64V106l1.896-.5v1.639L40 107.64Zm0 .86v6.14h1.896V108l-1.896.5Zm21.8625-.86V106l1.896-.5v1.639l-1.896.501Zm0 .86v6.14h1.896V108l-1.896.5Zm-18.3047 6.14v-1.632l3.444-4.728v-.228h-3.444v-1.572h5.892v1.692l-3.432 4.668v.216h3.432v1.584h-5.892Zm7.5328-8.16v8.16h1.896v-5.664h.156l1.5 5.472h1.716l1.512-5.472h.156v5.664h1.896v-8.16h-3.036l-1.38 4.968-1.44-4.968h-2.976Zm14.6297 0v8.16h1.896v-2.604h1.488l.948 2.604h1.968l-1.176-3.036c.4-.2.7-.5.9-.9.2-.4.3-.892.3-1.476 0-.704-.116-1.252-.348-1.644-.224-.4-.564-.684-1.02-.852-.456-.168-1.028-.252-1.716-.252h-3.24Zm3.288 4.02h-1.392v-2.484h1.344c.4 0 .692.1.876.3.184.2.276.504.276.912 0 .248-.036.468-.108.66-.072.192-.192.344-.36.456-.16.104-.372.156-.636.156Zm7.9198 4.14v-8.16h2.976l1.44 4.968 1.38-4.968h3.036v8.16h-1.896v-5.664h-.156l-1.512 5.472h-1.716l-1.5-5.472h-.156v5.664h-1.896ZM87.7 106.48v8.16h5.568v-1.56h-3.672v-1.8h2.952v-1.536h-2.952v-1.716h3.672v-1.548H87.7Zm8.7454 8.16v-6.576h-2.076v-1.584h5.9996v1.584h-2.0276v6.576h-1.896Zm5.3336-8.16v8.16h1.896v-2.604h1.488l.948 2.604h1.968l-1.176-3.036c.4-.2.7-.5.9-.9.2-.4.3-.892.3-1.476 0-.704-.116-1.252-.348-1.644-.224-.4-.564-.684-1.02-.852-.456-.168-1.028-.252-1.716-.252h-3.24Zm3.288 4.02h-1.392v-2.484h1.344c.4 0 .692.1.876.3.184.2.276.504.276.912 0 .248-.036.468-.108.66-.072.192-.192.344-.36.456-.16.104-.372.156-.636.156Zm8.042 4.284c-.872 0-1.572-.152-2.1-.456-.52-.304-.896-.768-1.128-1.392-.232-.624-.348-1.408-.348-2.352 0-.952.116-1.74.348-2.364.232-.632.608-1.104 1.128-1.416.528-.312 1.228-.468 2.1-.468.872 0 1.568.156 2.088.468.52.312.896.784 1.128 1.416.232.624.348 1.412.348 2.364 0 .96-.116 1.752-.348 2.376-.232.616-.608 1.076-1.128 1.38-.512.296-1.208.444-2.088.444Zm0-1.584c.464 0 .812-.096 1.044-.288.232-.192.388-.484.468-.876.08-.392.12-.876.12-1.452s-.04-1.064-.12-1.464c-.08-.4-.236-.7-.468-.9-.232-.208-.58-.312-1.044-.312-.456 0-.804.104-1.044.312-.232.2-.392.5-.48.9-.08.392-.12.88-.12 1.464 0 .568.04 1.048.12 1.44.088.392.248.688.48.888.232.192.58.288 1.044.288Z" fill="#111111"/><path d="M33 109.357H15v-3.214h9.6429l-3.2143-3.214h5.1428L33 109.357Z" fill="#FF324E"/><path d="M15 110.643h18v3.214h-9.6429l3.2143 3.214h-5.1428L15 110.643Z" fill="#005CFF"/><path fill-rule="evenodd" clip-rule="evenodd" d="M164 107.639V106l1.896-.5v1.639l-1.896.5Zm0 .861v6.139h1.896V108l-1.896.5Zm21.862-.861V106l1.896-.5v1.639l-1.896.5Zm0 .861v6.139h1.896V108l-1.896.5Zm-18.304 4.507v1.632h5.892v-1.584h-3.432v-.216l3.432-4.668v-1.692h-5.892v1.572h3.444v.228l-3.444 4.728Zm7.533 1.632v-8.16h2.976l1.44 4.968 1.38-4.968h3.036v8.16h-1.896v-5.664h-.156l-1.512 5.472h-1.716l-1.5-5.472h-.156v5.664h-1.896Zm14.629 0v-8.16h3.24c.688 0 1.26.084 1.716.252.456.168.796.452 1.02.852.232.392.348.94.348 1.644 0 .584-.1 1.076-.3 1.476-.2.4-.5.7-.9.9l1.176 3.036h-1.968l-.948-2.604h-1.488v2.604h-1.896Zm1.896-4.14h1.392c.264 0 .476-.052.636-.156.168-.112.288-.264.36-.456.072-.192.108-.412.108-.66 0-.408-.092-.712-.276-.912-.184-.2-.476-.3-.876-.3h-1.344v2.484Zm10.848-2.436v6.576h1.896v-6.576h2.028v-1.584h-6v1.584h2.076Zm5.334 6.576v-8.16h3.24c.688 0 1.26.084 1.716.252.456.168.796.452 1.02.852.232.392.348.94.348 1.644 0 .584-.1 1.076-.3 1.476-.2.4-.5.7-.9.9l1.176 3.036h-1.968l-.948-2.604h-1.488v2.604h-1.896Zm1.896-4.14h1.392c.264 0 .476-.052.636-.156.168-.112.288-.264.36-.456.072-.192.108-.412.108-.66 0-.408-.092-.712-.276-.912-.184-.2-.476-.3-.876-.3h-1.344v2.484Zm7.562-4.02-2.016 8.16h1.872l.384-1.5h2.64l.408 1.5h1.908l-2.028-8.16h-3.168Zm2.64 5.16h-2.124l.84-3.648h.456l.828 3.648Zm3.926 3v-8.16h2.976l1.44 4.968 1.38-4.968h3.036v8.16h-1.896v-5.664h-.156l-1.512 5.472h-1.716l-1.5-5.472h-.156v5.664h-1.896Z" fill="#111111"/><path d="M157 109.357h-18v-3.214h9.643l-3.214-3.214h5.142l6.429 6.428Z" fill="#5CB446"/><path d="M139 110.643h18v3.214h-9.643l3.214 3.214h-5.142L139 110.643Z" fill="#005CFF"/><path fill-rule="evenodd" clip-rule="evenodd" d="m284 102.778 2.492-.778v2.078l-2.492.78v-2.08Zm0 3.4v6.9h2.492V105.4l-2.492.778Zm4.975 4.828v2.072h7.014v-2.058h-3.738v-.252l3.738-5.012V103.6h-7.014v2.058h3.766v.252l-3.766 5.096Zm9.487 2.072V103.6h3.99c.635 0 1.195.075 1.68.224.485.149.863.397 1.134.742.28.345.42.812.42 1.4 0 .392-.033.723-.098.994-.065.261-.173.495-.322.7-.149.196-.359.378-.63.546.28.112.518.252.714.42.196.168.345.392.448.672.103.271.154.639.154 1.106 0 .523-.089.957-.266 1.302-.177.345-.425.621-.742.826-.308.196-.667.336-1.078.42-.411.084-.849.126-1.316.126h-4.088Zm2.492-1.75h1.386c.28 0 .509-.028.686-.084.177-.065.308-.182.392-.35.093-.168.14-.401.14-.7 0-.224-.033-.406-.098-.546s-.154-.247-.266-.322c-.112-.075-.243-.126-.392-.154-.149-.037-.308-.056-.476-.056h-1.372v2.212Zm0-3.864h1.344c.392 0 .672-.093.84-.28.168-.187.252-.467.252-.84 0-.364-.093-.625-.28-.784-.177-.159-.462-.238-.854-.238h-1.302v2.142Zm9.119-3.864-2.282 9.478h2.45l.392-1.568h2.828l.42 1.568h2.506l-2.296-9.478h-4.018Zm3.094 5.964h-2.184l.868-3.99h.476l.84 3.99Zm5.376 3.514V103.6h2.8l2.688 5.376h.224V103.6h2.492v9.478h-2.8l-2.674-5.544h-.238v5.544h-2.492Z" fill="#111111"/><path d="M277.457 113.868c-1.415 2.406-4.176 4.039-7.35 4.039-4.264 0-7.783-2.948-8.293-6.757l6.324-.73c.159 1.932 1.652 3.717 3.834 4.34 1.903.543 3.828.059 5.055-1.107l.43.215ZM261.75 110.182v.022-.022Z" fill="#005CFF"/><path d="M262.543 106.132c1.415-2.406 4.175-4.039 7.35-4.039 4.264 0 7.783 2.948 8.293 6.757l-6.324.73c-.159-1.932-1.652-3.718-3.834-4.34-1.903-.544-3.828-.059-5.055 1.107l-.43-.215ZM278.25 109.818v-.022.022Z" fill="#FF0000"/><path d="M284.309 116.384v-.276h.249v.276h-.249Zm-.009 2.382v-2.07h.264v2.07h-.264ZM285.398 118.769v-.288l1.05-1.491v-.063h-1.05v-.231h1.362v.288l-1.053 1.491v.06h1.053v.234h-1.362ZM287.594 118.766v-2.07h.468l.549 1.689.555-1.689h.468v2.07h-.264v-1.776h-.045l-.57 1.704h-.282l-.57-1.704h-.045v1.776h-.264ZM290.594 116.384v-.276h.249v.276h-.249Zm-.009 2.382v-2.07h.264v2.07h-.264ZM291.8 118.766v-2.07h.774c.15 0 .275.022.375.066.1.044.175.113.225.207.052.094.078.215.078.363 0 .152-.03.28-.09.384-.06.102-.153.175-.279.219l.384.831h-.288l-.354-.774h-.561v.774h-.264Zm.264-1.002h.516c.098 0 .176-.018.234-.054.06-.038.102-.089.126-.153.026-.066.039-.14.039-.222 0-.138-.033-.241-.099-.309s-.168-.102-.306-.102h-.51v.84ZM295.237 118.766v-2.07h.765c.136 0 .25.018.342.054.092.036.162.093.21.171.048.076.072.177.072.303 0 .086-.011.16-.033.222-.02.06-.049.11-.087.15-.036.04-.082.075-.138.105.06.02.114.049.162.087.048.038.086.089.114.153.03.062.045.143.045.243 0 .108-.016.2-.048.276-.03.074-.074.134-.132.18-.058.044-.127.076-.207.096-.078.02-.167.03-.267.03h-.798Zm.264-.222h.522c.082 0 .153-.011.213-.033.06-.022.106-.059.138-.111.032-.054.048-.13.048-.228 0-.074-.014-.134-.042-.18-.026-.048-.061-.083-.105-.105-.042-.024-.086-.04-.132-.048-.046-.008-.089-.012-.129-.012h-.513v.717Zm0-.939h.51c.124 0 .213-.029.267-.087.056-.06.084-.15.084-.27 0-.114-.031-.197-.093-.249-.06-.054-.153-.081-.279-.081h-.489v.687ZM297.371 118.766l.558-2.07h.549l.558 2.07h-.264l-.144-.51h-.852l-.144.51h-.261Zm.456-.738h.75l-.3-1.11h-.15l-.3 1.11ZM299.806 118.766v-2.07h.459l.765 1.803h.057v-1.803h.264v2.07h-.45l-.774-1.806h-.057v1.806h-.264ZM302.304 118.766v-2.07h.264v1.836h.894v.234h-1.158ZM304.214 116.384v-.276h.249v.276h-.249Zm-.009 2.382v-2.07h.264v2.07h-.264ZM305.858 118.766v-.858l-.654-1.212h.294l.489.945.495-.945h.294l-.654 1.212v.858h-.264ZM308.258 118.796c-.216 0-.384-.039-.504-.117-.12-.08-.204-.198-.252-.354-.048-.158-.072-.353-.072-.585 0-.23.024-.425.072-.585.05-.16.135-.282.255-.366.12-.084.287-.126.501-.126.216 0 .384.042.504.126.12.082.204.204.252.366.05.16.075.355.075.585 0 .238-.024.435-.072.591-.048.156-.133.273-.255.351-.12.076-.288.114-.504.114Zm0-.231c.154 0 .271-.029.351-.087.08-.06.134-.151.162-.273.03-.122.045-.277.045-.465 0-.18-.015-.333-.045-.459s-.085-.222-.165-.288c-.08-.066-.196-.099-.348-.099-.152 0-.268.033-.348.099-.078.066-.132.162-.162.288-.03.124-.045.277-.045.459s.014.334.042.456c.03.122.084.214.162.276.08.062.197.093.351.093Zm.186-2.202v-.285h.237v.285h-.237Zm-.612 0v-.285h.237v.285h-.237ZM311.665 118.793c-.064 0-.137-.004-.219-.012-.08-.006-.16-.014-.24-.024-.08-.012-.15-.022-.21-.03l.024-.216c.06.006.128.013.204.021.078.008.155.015.231.021.076.006.141.009.195.009.14 0 .245-.031.315-.093.07-.064.105-.163.105-.297 0-.072-.014-.13-.042-.174-.028-.044-.075-.078-.141-.102-.064-.026-.151-.05-.261-.072-.146-.03-.267-.066-.363-.108-.096-.042-.168-.101-.216-.177-.046-.076-.069-.179-.069-.309 0-.138.028-.248.084-.33.056-.084.135-.145.237-.183.102-.038.221-.057.357-.057.06 0 .129.004.207.012.078.006.155.014.231.024.076.008.141.017.195.027l-.018.219c-.06-.008-.128-.015-.204-.021-.076-.008-.15-.015-.222-.021-.07-.006-.127-.009-.171-.009-.142 0-.249.026-.321.078-.072.052-.108.132-.108.24 0 .086.016.151.048.195.032.044.084.079.156.105.072.024.166.049.282.075.106.026.197.053.273.081.076.028.139.063.189.105.05.04.086.091.108.153.024.062.036.138.036.228 0 .154-.028.278-.084.372-.054.094-.131.163-.231.207-.1.042-.219.063-.357.063ZM313.189 116.384v-.276h.249v.276h-.249Zm-.009 2.382v-2.07h.264v2.07h-.264ZM314.977 118.793c-.064 0-.137-.004-.219-.012-.08-.006-.16-.014-.24-.024-.08-.012-.15-.022-.21-.03l.024-.216c.06.006.128.013.204.021.078.008.155.015.231.021.076.006.141.009.195.009.14 0 .245-.031.315-.093.07-.064.105-.163.105-.297 0-.072-.014-.13-.042-.174-.028-.044-.075-.078-.141-.102-.064-.026-.151-.05-.261-.072-.146-.03-.267-.066-.363-.108-.096-.042-.168-.101-.216-.177-.046-.076-.069-.179-.069-.309 0-.138.028-.248.084-.33.056-.084.135-.145.237-.183.102-.038.221-.057.357-.057.06 0 .129.004.207.012.078.006.155.014.231.024.076.008.141.017.195.027l-.018.219c-.06-.008-.128-.015-.204-.021-.076-.008-.15-.015-.222-.021-.07-.006-.127-.009-.171-.009-.142 0-.249.026-.321.078-.072.052-.108.132-.108.24 0 .086.016.151.048.195.032.044.084.079.156.105.072.024.166.049.282.075.106.026.197.053.273.081.076.028.139.063.189.105.05.04.086.091.108.153.024.062.036.138.036.228 0 .154-.028.278-.084.372-.054.094-.131.163-.231.207-.1.042-.219.063-.357.063ZM316.909 118.766v-1.836h-.621v-.234h1.5v.234h-.615v1.836h-.264ZM318.536 118.766v-2.07h1.281v.231H318.8v.675h.837v.228h-.837v.705h1.017v.231h-1.281ZM320.659 118.766v-2.07h.468l.549 1.689.555-1.689h.468v2.07h-.264v-1.776h-.045l-.57 1.704h-.282l-.57-1.704h-.045v1.776h-.264ZM323.659 116.384v-.276h.249v.276h-.249Zm-.009 2.382v-2.07h.264v2.07h-.264Z" fill="#111111"/><path fill-rule="evenodd" clip-rule="evenodd" d="M27 58.1396v-1.6394L28.896 56v1.6395L27 58.1396Zm0 .8603v6.1399h1.896v-6.64L27 58.9999Zm21.8625-.8603v-1.6394L50.7585 56v1.6395l-1.896.5001Zm0 .8603v6.1399h1.896v-6.64l-1.896.5001Zm-18.3047 6.1399v-1.632l3.444-4.728v-.228h-3.444v-1.572h5.892v1.692l-3.432 4.668v.216h3.432v1.584h-5.892Zm7.5328-8.16v8.16h1.896v-5.664h.156l1.5 5.472h1.716l1.512-5.472h.156v5.664h1.896v-8.16h-3.036l-1.38 4.968-1.44-4.968h-2.976Zm14.6297 0v8.16h1.896v-2.604h1.488l.948 2.604h1.968l-1.176-3.036c.4-.2.7-.5.9-.9.2-.4.3-.892.3-1.476 0-.704-.116-1.252-.348-1.644-.224-.4-.564-.684-1.02-.852-.456-.168-1.028-.252-1.716-.252h-3.24Zm3.288 4.02h-1.392v-2.484h1.344c.4 0 .692.1.876.3.184.2.276.504.276.912 0 .248-.036.468-.108.66-.072.192-.192.344-.36.456-.16.104-.372.156-.636.156Zm7.9198 4.14v-8.16h2.976l1.44 4.968 1.38-4.968h3.036v8.16h-1.896v-5.664h-.156l-1.512 5.472h-1.716l-1.5-5.472h-.156v5.664h-1.896Zm10.7719-8.16v8.16h5.568v-1.56h-3.672v-1.8h2.952v-1.536h-2.952v-1.716h3.672v-1.548H74.7Zm8.7454 8.16v-6.576h-2.076v-1.584h6v1.584h-2.028v6.576h-1.896Zm5.3335-8.16v8.16h1.896v-2.604h1.488l.948 2.604h1.968l-1.176-3.036c.4-.2.7-.5.9-.9.2-.4.3-.892.3-1.476 0-.704-.116-1.252-.348-1.644-.224-.4-.564-.684-1.02-.852-.456-.168-1.028-.252-1.716-.252h-3.24Zm3.288 4.02h-1.392v-2.484h1.344c.4 0 .692.1.876.3.184.2.276.504.276.912 0 .248-.036.468-.108.66-.072.192-.192.344-.36.456-.16.104-.372.156-.636.156Zm8.0421 4.284c-.8718 0-1.5718-.152-2.0998-.456-.52-.304-.896-.768-1.128-1.392-.232-.624-.348-1.408-.348-2.352 0-.952.116-1.74.348-2.364.232-.632.608-1.104 1.128-1.416.528-.312 1.228-.468 2.0998-.468.872 0 1.568.156 2.088.468.52.312.896.784 1.128 1.416.232.624.348 1.412.348 2.364 0 .96-.116 1.752-.348 2.376-.232.616-.608 1.076-1.128 1.38-.512.296-1.208.444-2.088.444Zm0-1.584c.464 0 .812-.096 1.044-.288.232-.192.388-.484.468-.876.08-.392.12-.876.12-1.452s-.04-1.064-.12-1.464c-.08-.4-.236-.7-.468-.9-.232-.208-.58-.312-1.044-.312-.4558 0-.8038.104-1.0438.312-.232.2-.392.5-.48.9-.08.392-.12.88-.12 1.464 0 .568.04 1.048.12 1.44.088.392.248.688.48.888.232.192.58.288 1.0438.288Z" fill="#111111"/><path d="M79.2108 34h-28v-5h15l-5-5h8l10 10Z" fill="#FF324E"/><path d="M51.2108 36h28v5h-15l5 5h-8l-10-10Z" fill="#005CFF"/><path fill-rule="evenodd" clip-rule="evenodd" d="M152 58.1394v-1.6392L153.896 56v1.6393l-1.896.5001Zm0 .8603v6.1396h1.896v-6.6398l-1.896.5002Zm21.862-.8603v-1.6392L175.758 56v1.6393l-1.896.5001Zm0 .8603v6.1396h1.896v-6.6398l-1.896.5002Zm-18.304 4.5076v1.632h5.892v-1.584h-3.432v-.216l3.432-4.668v-1.692h-5.892v1.572h3.444v.228l-3.444 4.728Zm7.533 1.632v-8.16h2.976l1.44 4.968 1.38-4.968h3.036v8.16h-1.896v-5.664h-.156l-1.512 5.472h-1.716l-1.5-5.472h-.156v5.664h-1.896Zm14.629 0v-8.16h3.24c.688 0 1.26.084 1.716.252.456.168.796.452 1.02.852.232.392.348.94.348 1.644 0 .584-.1 1.076-.3 1.476-.2.4-.5.7-.9.9l1.176 3.036h-1.968l-.948-2.604h-1.488v2.604h-1.896Zm1.896-4.14h1.392c.264 0 .476-.052.636-.156.168-.112.288-.264.36-.456.072-.192.108-.412.108-.66 0-.408-.092-.712-.276-.912-.184-.2-.476-.3-.876-.3h-1.344v2.484Zm10.848-2.436v6.576h1.896v-6.576h2.028v-1.584h-6v1.584h2.076Zm5.334 6.576v-8.16h3.24c.688 0 1.26.084 1.716.252.456.168.796.452 1.02.852.232.392.348.94.348 1.644 0 .584-.1 1.076-.3 1.476-.2.4-.5.7-.9.9l1.176 3.036h-1.968l-.948-2.604h-1.488v2.604h-1.896Zm1.896-4.14h1.392c.264 0 .476-.052.636-.156.168-.112.288-.264.36-.456.072-.192.108-.412.108-.66 0-.408-.092-.712-.276-.912-.184-.2-.476-.3-.876-.3h-1.344v2.484Zm7.562-4.02-2.016 8.16h1.872l.384-1.5h2.64l.408 1.5h1.908l-2.028-8.16h-3.168Zm2.64 5.16h-2.124l.84-3.648h.456l.828 3.648Zm3.926 3v-8.16h2.976l1.44 4.968 1.38-4.968h3.036v8.16h-1.896v-5.664h-.156l-1.512 5.472h-1.716l-1.5-5.472h-.156v5.664h-1.896Z" fill="#111111"/><path d="M200 34h-28v-5h15l-5-5h8l10 10Z" fill="#5CB446"/><path d="M172 36h28v5h-15l5 5h-8l-10-10Z" fill="#005CFF"/><path fill-rule="evenodd" clip-rule="evenodd" d="m272 54.778 2.492-.778v2.078l-2.492.78v-2.08Zm0 3.4v6.9h2.492V57.4l-2.492.778Zm4.975 4.828v2.072h7.014V63.02h-3.738v-.252l3.738-5.012V55.6h-7.014v2.058h3.766v.252l-3.766 5.096Zm9.487 2.072V55.6h3.99c.635 0 1.195.0747 1.68.224.485.1493.863.3967 1.134.742.28.3453.42.812.42 1.4 0 .392-.033.7233-.098.994-.065.2613-.173.4947-.322.7-.149.196-.359.378-.63.546.28.112.518.252.714.42.196.168.345.392.448.672.103.2707.154.6393.154 1.106 0 .5227-.089.9567-.266 1.302-.177.3453-.425.6207-.742.826-.308.196-.667.336-1.078.42-.411.084-.849.126-1.316.126h-4.088Zm2.492-1.75h1.386c.28 0 .509-.028.686-.084.177-.0653.308-.182.392-.35.093-.168.14-.4013.14-.7 0-.224-.033-.406-.098-.546s-.154-.2473-.266-.322c-.112-.0747-.243-.126-.392-.154-.149-.0373-.308-.056-.476-.056h-1.372v2.212Zm0-3.864h1.344c.392 0 .672-.0933.84-.28.168-.1867.252-.4667.252-.84 0-.364-.093-.6253-.28-.784-.177-.1587-.462-.238-.854-.238h-1.302v2.142Zm9.119-3.864-2.282 9.478h2.45l.392-1.568h2.828l.42 1.568h2.506l-2.296-9.478h-4.018Zm3.094 5.964h-2.184l.868-3.99h.476l.84 3.99Zm5.376 3.514V55.6h2.8l2.688 5.376h.224V55.6h2.492v9.478h-2.8l-2.674-5.544h-.238v5.544h-2.492Z" fill="#111111"/><path d="M304.471 41.0166c-2.201 3.7426-6.496 6.2835-11.433 6.2835-6.634 0-12.107-4.5864-12.901-10.5114l9.837-1.1351c.247 3.005 2.57 5.7826 5.964 6.7514 2.961.845 5.955.0908 7.864-1.7229l.669.3345ZM280.038 35.2827v.0348-.0348Z" fill="#005CFF"/><path d="M281.271 28.9837c2.201-3.7426 6.495-6.2835 11.433-6.2835 6.633 0 12.107 4.5864 12.901 10.5114l-9.838 1.1351c-.247-3.005-2.569-5.7826-5.963-6.7514-2.961-.845-5.955-.0908-7.864 1.7229l-.669-.3345ZM305.704 34.7176v-.0348.0348Z" fill="#FF0000"/><path d="M273.573 68.306v-.276h.249v.276h-.249Zm-.009 2.382v-2.07h.264v2.07h-.264ZM274.662 70.691v-.288l1.05-1.491v-.063h-1.05v-.231h1.362v.288l-1.053 1.491v.06h1.053v.234h-1.362ZM276.858 70.688v-2.07h.468l.549 1.689.555-1.689h.468v2.07h-.264v-1.776h-.045l-.57 1.704h-.282l-.57-1.704h-.045v1.776h-.264ZM279.858 68.306v-.276h.249v.276h-.249Zm-.009 2.382v-2.07h.264v2.07h-.264ZM281.064 70.688v-2.07h.774c.15 0 .275.022.375.066.1.044.175.113.225.207.052.094.078.215.078.363 0 .152-.03.28-.09.384-.06.102-.153.175-.279.219l.384.831h-.288l-.354-.774h-.561v.774h-.264Zm.264-1.002h.516c.098 0 .176-.018.234-.054.06-.038.102-.089.126-.153.026-.066.039-.14.039-.222 0-.138-.033-.241-.099-.309s-.168-.102-.306-.102h-.51v.84ZM284.501 70.688v-2.07h.765c.136 0 .25.018.342.054.092.036.162.093.21.171.048.076.072.177.072.303 0 .086-.011.16-.033.222-.02.06-.049.11-.087.15-.036.04-.082.075-.138.105.06.02.114.049.162.087.048.038.086.089.114.153.03.062.045.143.045.243 0 .108-.016.2-.048.276-.03.074-.074.134-.132.18-.058.044-.127.076-.207.096-.078.02-.167.03-.267.03h-.798Zm.264-.222h.522c.082 0 .153-.011.213-.033.06-.022.106-.059.138-.111.032-.054.048-.13.048-.228 0-.074-.014-.134-.042-.18-.026-.048-.061-.083-.105-.105-.042-.024-.086-.04-.132-.048-.046-.008-.089-.012-.129-.012h-.513v.717Zm0-.939h.51c.124 0 .213-.029.267-.087.056-.06.084-.15.084-.27 0-.114-.031-.197-.093-.249-.06-.054-.153-.081-.279-.081h-.489v.687ZM286.635 70.688l.558-2.07h.549l.558 2.07h-.264l-.144-.51h-.852l-.144.51h-.261Zm.456-.738h.75l-.3-1.11h-.15l-.3 1.11ZM289.07 70.688v-2.07h.459l.765 1.803h.057v-1.803h.264v2.07h-.45l-.774-1.806h-.057v1.806h-.264ZM291.568 70.688v-2.07h.264v1.836h.894v.234h-1.158ZM293.478 68.306v-.276h.249v.276h-.249Zm-.009 2.382v-2.07h.264v2.07h-.264ZM295.122 70.688v-.858l-.654-1.212h.294l.489.945.495-.945h.294l-.654 1.212v.858h-.264ZM297.522 70.718c-.216 0-.384-.039-.504-.117-.12-.08-.204-.198-.252-.354-.048-.158-.072-.353-.072-.585 0-.23.024-.425.072-.585.05-.16.135-.282.255-.366.12-.084.287-.126.501-.126.216 0 .384.042.504.126.12.082.204.204.252.366.05.16.075.355.075.585 0 .238-.024.435-.072.591-.048.156-.133.273-.255.351-.12.076-.288.114-.504.114Zm0-.231c.154 0 .271-.029.351-.087.08-.06.134-.151.162-.273.03-.122.045-.277.045-.465 0-.18-.015-.333-.045-.459s-.085-.222-.165-.288c-.08-.066-.196-.099-.348-.099-.152 0-.268.033-.348.099-.078.066-.132.162-.162.288-.03.124-.045.277-.045.459s.014.334.042.456c.03.122.084.214.162.276.08.062.197.093.351.093Zm.186-2.202V68h.237v.285h-.237Zm-.612 0V68h.237v.285h-.237ZM300.929 70.715c-.064 0-.137-.004-.219-.012-.08-.006-.16-.014-.24-.024-.08-.012-.15-.022-.21-.03l.024-.216c.06.006.128.013.204.021.078.008.155.015.231.021.076.006.141.009.195.009.14 0 .245-.031.315-.093.07-.064.105-.163.105-.297 0-.072-.014-.13-.042-.174-.028-.044-.075-.078-.141-.102-.064-.026-.151-.05-.261-.072-.146-.03-.267-.066-.363-.108-.096-.042-.168-.101-.216-.177-.046-.076-.069-.179-.069-.309 0-.138.028-.248.084-.33.056-.084.135-.145.237-.183.102-.038.221-.057.357-.057.06 0 .129.004.207.012.078.006.155.014.231.024.076.008.141.017.195.027l-.018.219c-.06-.008-.128-.015-.204-.021-.076-.008-.15-.015-.222-.021-.07-.006-.127-.009-.171-.009-.142 0-.249.026-.321.078-.072.052-.108.132-.108.24 0 .086.016.151.048.195.032.044.084.079.156.105.072.024.166.049.282.075.106.026.197.053.273.081.076.028.139.063.189.105.05.04.086.091.108.153.024.062.036.138.036.228 0 .154-.028.278-.084.372-.054.094-.131.163-.231.207-.1.042-.219.063-.357.063ZM302.453 68.306v-.276h.249v.276h-.249Zm-.009 2.382v-2.07h.264v2.07h-.264ZM304.241 70.715c-.064 0-.137-.004-.219-.012-.08-.006-.16-.014-.24-.024-.08-.012-.15-.022-.21-.03l.024-.216c.06.006.128.013.204.021.078.008.155.015.231.021.076.006.141.009.195.009.14 0 .245-.031.315-.093.07-.064.105-.163.105-.297 0-.072-.014-.13-.042-.174-.028-.044-.075-.078-.141-.102-.064-.026-.151-.05-.261-.072-.146-.03-.267-.066-.363-.108-.096-.042-.168-.101-.216-.177-.046-.076-.069-.179-.069-.309 0-.138.028-.248.084-.33.056-.084.135-.145.237-.183.102-.038.221-.057.357-.057.06 0 .129.004.207.012.078.006.155.014.231.024.076.008.141.017.195.027l-.018.219c-.06-.008-.128-.015-.204-.021-.076-.008-.15-.015-.222-.021-.07-.006-.127-.009-.171-.009-.142 0-.249.026-.321.078-.072.052-.108.132-.108.24 0 .086.016.151.048.195.032.044.084.079.156.105.072.024.166.049.282.075.106.026.197.053.273.081.076.028.139.063.189.105.05.04.086.091.108.153.024.062.036.138.036.228 0 .154-.028.278-.084.372-.054.094-.131.163-.231.207-.1.042-.219.063-.357.063ZM306.173 70.688v-1.836h-.621v-.234h1.5v.234h-.615v1.836h-.264ZM307.8 70.688v-2.07h1.281v.231h-1.017v.675h.837v.228h-.837v.705h1.017v.231H307.8ZM309.923 70.688v-2.07h.468l.549 1.689.555-1.689h.468v2.07h-.264v-1.776h-.045l-.57 1.704h-.282l-.57-1.704h-.045v1.776h-.264ZM312.923 68.306v-.276h.249v.276h-.249Zm-.009 2.382v-2.07h.264v2.07h-.264Z" fill="#111111"/></svg>