<!DOCTYPE svg PUBLIC "-//W3C//DTD SVG 1.1//EN" "http://www.w3.org/Graphics/SVG/1.1/DTD/svg11.dtd"><svg viewBox="0 0 3695 1821" xmlns="http://www.w3.org/2000/svg" xml:space="preserve" style="fill-rule:evenodd;clip-rule:evenodd;stroke-linejoin:round;stroke-miterlimit:1"><path style="fill:none" d="M0 0h3694.08v1820.08H0z"/><clipPath id="a"><path d="M0 0h3694.08v1820.08H0z"/></clipPath><g clip-path="url(#a)"><path d="m3175.21 506.221-33.07-19.094c-58.82-33.959-112.28-33.959-171.1 0l-299.42 172.869c-58.82 33.959-85.55 80.259-85.55 148.177v379.577c0 .42 0 .84-.01 1.25-.19 58.34-4.73 66.2-55.15 95.54l-1.08.63-849.01 490.17c-.36.21-.72.42-1.09.62-50.61 29-59.69 29-110.31 0-.36-.2-.72-.41-1.08-.62l-594.675-343.33c-58.818-33.96-112.281-33.96-171.1 0l-156.053 90.1c-1.125.65-2.253 1.29-3.385 1.92-51.548 29.26-74.06 35.29-133.329 35.73-1.297.01-2.595.02-3.893.02H-1826.91V213.325h3192.02c1.3 0 2.6.009 3.89.027 59.27.439 81.79 6.47 133.33 35.725 1.13.633 2.26 1.275 3.39 1.924l53.77 31.042c58.81 33.959 112.28 33.959 171.1 0l185.52-107.112c.36-.209.72-.415 1.08-.619 50.62-29.003 59.7-29.003 110.32 0 .36.204.72.41 1.09.619l431.01 248.844c58.81 33.959 112.28 33.959 171.1 0L3307.2 33.199c.37-.209.73-.415 1.09-.62 50.62-29.002 59.7-29.002 110.31 0 .37.205.73.411 1.09.62l92.09 53.166c.36.209.72.419 1.08.631 50.42 29.336 54.96 37.196 55.15 95.534.01.417.01.834.01 1.251v318.931c0 .417 0 .834-.01 1.251-.19 58.337-4.73 66.198-55.15 95.533-.36.213-.72.423-1.08.632l-30.72 17.733c-.36.209-.72.415-1.08.619-50.62 29.003-59.7 29.003-110.32 0-.36-.204-.72-.41-1.08-.619l-29.71-17.152 75.58-130.905-40.92-23.622-75.58 130.905-40.91-23.622 75.58-130.905-81.83-47.244-75.58 130.905Z" style="fill:#e8f7fd"/><circle cx="1890.52" cy="1654.27" r="5.906" style="fill:#bae3f8"/><circle cx="2299.67" cy="1418.05" r="5.906" style="fill:#bae3f8"/><path d="M1890.52 1654.27c24.4-422.06 293.13-630.96 695.55-566.97M2340.58 355.057c58.15 159.153 137.42 194.324 219.64 174.909 79.55-18.786 179.16-135.608 189.61-174.909" style="fill:none;stroke:#bae3f8;stroke-width:3.54px"/><path d="M2483.78 1311.75c-44.27-103.77-19.49-185.65 102.29-224.45" style="fill:none;stroke:#bae3f8;stroke-width:3.54px"/><path d="M2215.54 1025.92c-7.24 57.38-3.86 118.18 10.07 183.07" style="fill:none;stroke:#e8f7fd;stroke-width:8.27px"/><path d="M2490.4 633.794c-291.08 204.334-352.96 443.176-190.73 784.256M1890.52 1654.27c23.85-229.4 187.13-336.52 409.15-236.22M1890.52 1654.27c-88.01-36.7-236.68-94.05-306.86 129.92" style="fill:none;stroke:#bae3f8;stroke-width:3.54px"/><path d="M2490.4 633.794c-387.24 277.362-797.55 586.306-906.74 1150.396" style="fill:none;stroke:#bae3f8;stroke-width:3.54px;stroke-linecap:round"/><path d="M2749.8 355.151c53.92 93.389 31.94 241.225-61.44 295.143M2586.07 1087.3c-66.73-213.138-59.27-343.735 102.29-437.006" style="fill:none;stroke:#63bfed;stroke-width:9.45px;stroke-linecap:round"/><path d="M2749.8 355.151c16.77 182.454-76.44 222.676-207.27 324.843-189.65 148.095-56.96 286.48 43.57 407.366" style="fill:none;stroke:#63bfed;stroke-width:9.45px;stroke-linecap:round"/><path d="M2340.58 355.057c6.4 213.647-125.44 321.085-125.44 520.46 0 176.243 84.55 329.903 268.65 436.193" style="fill:none;stroke:#e8f7fd;stroke-width:14.17px;stroke-miterlimit:2"/><path d="M2340.58 355.057c6.4 213.647-125.44 321.085-125.44 520.46 0 176.243 84.55 329.903 268.65 436.193" style="fill:none;stroke:#63bfed;stroke-width:9.45px;stroke-linecap:round"/><path d="M2577.13 575.407c-28.81 21.101-63.45 45.241-105.49 73.8-157.85 107.258-199.47 306.223-100.98 503.023" style="fill:none;stroke:#e8f7fd;stroke-width:14.17px;stroke-linecap:round"/><path d="M2749.73 355.057c-39.42 114.512-50.74 139.676-278.09 294.15-201.14 136.673-213.55 422.253 12.14 662.503" style="fill:none;stroke:#63bfed;stroke-width:9.45px;stroke-linecap:round"/><path d="M2491.18 598.821c44.78 27.133 91.39 39.966 128.36 46.035" style="fill:none;stroke:#e8f7fd;stroke-width:14.17px;stroke-miterlimit:2"/><path d="M2340.58 355.057c46.64 297.657 315.77 295.237 347.78 295.237" style="fill:none;stroke:#63bfed;stroke-width:9.45px;stroke-linecap:round"/><path d="M2321.88 663.137c-15.81 107.283-18.22 200.525 76.82 296.143" style="fill:none;stroke:#e8f7fd;stroke-width:14.17px;stroke-miterlimit:2"/><path d="M2340.58 355.057c46.53 323.287-200.49 503.122 245.52 732.303" style="fill:none;stroke:#63bfed;stroke-width:9.45px;stroke-linecap:round"/><path d="M2340.58 355.057c0 312.246-756.92 486.583-756.92 1429.133" style="fill:none;stroke:#63bfed;stroke-width:9.45px;stroke-linecap:round"/><path d="m1851.82 834.004 3.63 3.334 8.3 3.704c3.92-5.939 8.42-11.715 13.47-17.231 5.06-5.515 10.42-10.496 15.99-14.924l-4.41-7.94-3.64-3.334-33.34 36.391Zm102.78-46.415c-2.47.109-4.97.334-7.49.673-17.6 2.371-35.98 10.31-52.41 23.303-5.33 4.221-10.46 8.976-15.29 14.247-4.83 5.271-9.12 10.796-12.86 16.48-13.16 19.995-19.52 41.96-18.67 61.759l-23.34 25.469 3.64 3.334 20.93-.913 133.38-145.565-.91-20.921-3.64-3.335-23.34 25.469Zm-83.98 77.036-6.67 7.278 10.92 10.004 6.67-7.278-10.92-10.004Zm10-10.918 10.92 10.004-6.67 7.278-10.92-10.004 6.67-7.278Zm10.01-10.917-6.67 7.278 10.92 10.004 6.67-7.278-10.92-10.004Zm6.67-7.278 6.67-7.279 10.91 10.004-6.66 7.279-10.92-10.004Zm10-10.918 10.92 10.004 6.67-7.278-10.92-10.004-6.67 7.278Zm16.68-18.195-6.67 7.278 10.91 10.004 6.67-7.278-10.91-10.004Z" style="fill:#63bfed"/><circle cx="2688.36" cy="650.294" r="8.858" style="fill:#fff"/><path d="M2688.36 633.168c9.45 0 17.12 7.674 17.12 17.126 0 9.452-7.67 17.126-17.12 17.126-9.46 0-17.13-7.674-17.13-17.126 0-9.452 7.67-17.126 17.13-17.126Zm0 8.268c-4.89 0-8.86 3.969-8.86 8.858 0 4.889 3.97 8.858 8.86 8.858 4.88 0 8.85-3.969 8.85-8.858 0-4.889-3.97-8.858-8.85-8.858Z" style="fill:#63bfed"/><circle cx="2749.86" cy="354.331" r="8.858" style="fill:#fff"/><path d="M2749.86 337.205c9.45 0 17.12 7.674 17.12 17.126 0 9.452-7.67 17.126-17.12 17.126-9.46 0-17.13-7.674-17.13-17.126 0-9.452 7.67-17.126 17.13-17.126Zm0 8.267c-4.89 0-8.86 3.97-8.86 8.859 0 4.889 3.97 8.858 8.86 8.858 4.88 0 8.86-3.969 8.86-8.858 0-4.889-3.98-8.859-8.86-8.859Z" style="fill:#63bfed"/><circle cx="2484.11" cy="1311.02" r="8.858" style="fill:#fff"/><path d="M2484.11 1293.9c9.45 0 17.12 7.67 17.12 17.12 0 9.46-7.67 17.13-17.12 17.13-9.45 0-17.13-7.67-17.13-17.13 0-9.45 7.68-17.12 17.13-17.12Zm0 8.26c-4.89 0-8.86 3.97-8.86 8.86 0 4.89 3.97 8.86 8.86 8.86 4.89 0 8.86-3.97 8.86-8.86 0-4.89-3.97-8.86-8.86-8.86Z" style="fill:#63bfed"/><circle cx="2342.38" cy="354.331" r="8.858" style="fill:#fff"/><path d="M2342.38 337.205c9.45 0 17.12 7.674 17.12 17.126 0 9.452-7.67 17.126-17.12 17.126-9.46 0-17.13-7.674-17.13-17.126 0-9.452 7.67-17.126 17.13-17.126Zm0 8.267c-4.89 0-8.86 3.97-8.86 8.859 0 4.889 3.97 8.858 8.86 8.858 4.88 0 8.85-3.969 8.85-8.858 0-4.889-3.97-8.859-8.85-8.859Z" style="fill:#63bfed"/><circle cx="2586.07" cy="1087.3" r="8.858" style="fill:#fff"/><path d="M2586.07 1070.18c9.45 0 17.13 7.67 17.13 17.12 0 9.45-7.68 17.13-17.13 17.13s-17.13-7.68-17.13-17.13 7.68-17.12 17.13-17.12Zm0 8.26c-4.89 0-8.86 3.97-8.86 8.86 0 4.89 3.97 8.86 8.86 8.86 4.89 0 8.86-3.97 8.86-8.86 0-4.89-3.97-8.86-8.86-8.86Z" style="fill:#63bfed"/><circle cx="1583.66" cy="1784.19" r="8.858" style="fill:#fff"/><path d="M1583.66 1767.07c9.46 0 17.13 7.67 17.13 17.12 0 9.45-7.67 17.13-17.13 17.13-9.45 0-17.12-7.68-17.12-17.13s7.67-17.12 17.12-17.12Zm0 8.26c-4.89 0-8.85 3.97-8.85 8.86 0 4.89 3.96 8.86 8.85 8.86s8.86-3.97 8.86-8.86c0-4.89-3.97-8.86-8.86-8.86ZM482.279 598.811c-3.293 0-5.967-2.673-5.967-5.966s2.674-5.966 5.967-5.966h258.338c3.293 0 5.966 2.673 5.966 5.966s-2.673 5.966-5.966 5.966H482.279Z" style="fill:#63bfed"/><circle cx="482.279" cy="592.845" r="21.627" style="fill:#63bfed"/><circle cx="482.279" cy="592.845" r="11.186" style="fill:#fff"/><circle cx="740.617" cy="592.845" r="21.627" style="fill:#63bfed"/><circle cx="740.617" cy="592.845" r="11.186" style="fill:#fff"/><path d="m837.375 634.503-2.189-7.283h-10.985l-2.189 7.283h-4.041l9.302-29.003h5.051l9.26 29.003h-4.209Zm-12.206-10.524h9.049l-4.504-15.154-4.545 15.154ZM850.254 635.008c-1.431 0-2.56-.428-3.388-1.284-.828-.856-1.242-2.056-1.242-3.599v-26.73l3.872-.463v27.109c0 .617.106 1.066.316 1.347.211.28.568.421 1.073.421.533 0 1.011-.084 1.431-.253l1.011 2.694c-.926.505-1.951.758-3.073.758ZM862.586 635.008c-1.431 0-2.56-.428-3.388-1.284-.828-.856-1.242-2.056-1.242-3.599v-26.73l3.873-.463v27.109c0 .617.105 1.066.315 1.347.211.28.569.421 1.074.421.533 0 1.01-.084 1.431-.253l1.01 2.694c-.926.505-1.95.758-3.073.758ZM869.026 619.686h11.911v3.283h-11.911zM904.634 603.395v31.108h-3.409l-.379-3.073c-.73 1.122-1.642 1.999-2.736 2.631-1.094.631-2.315.947-3.662.947-2.637 0-4.693-1.038-6.166-3.115-1.473-2.077-2.21-4.869-2.21-8.377 0-2.273.351-4.293 1.053-6.061.701-1.768 1.711-3.15 3.03-4.147 1.319-.996 2.862-1.494 4.63-1.494 2.273 0 4.265.912 5.977 2.736v-11.618l3.872.463Zm-9.344 28.54c1.178 0 2.189-.274 3.03-.821.842-.547 1.656-1.368 2.442-2.462v-10.861c-.73-.954-1.509-1.676-2.336-2.167-.828-.492-1.761-.737-2.799-.737-1.712 0-3.038.716-3.978 2.147-.94 1.431-1.41 3.564-1.41 6.398 0 2.862.435 4.995 1.305 6.398.87 1.403 2.118 2.105 3.746 2.105ZM927.573 629.325c0 .898.154 1.565.463 2 .308.435.771.764 1.389.989l-.884 2.694c-1.151-.14-2.077-.463-2.778-.968-.702-.505-1.221-1.291-1.557-2.358-1.488 2.217-3.69 3.326-6.609 3.326-2.188 0-3.914-.618-5.177-1.852-1.262-1.235-1.894-2.849-1.894-4.841 0-2.357.849-4.167 2.547-5.43 1.697-1.263 4.104-1.894 7.218-1.894h3.409v-1.642c0-1.572-.378-2.694-1.136-3.368-.758-.673-1.922-1.01-3.493-1.01-1.628 0-3.62.393-5.977 1.179l-.968-2.821c2.75-1.01 5.303-1.515 7.66-1.515 2.61 0 4.56.639 5.851 1.915 1.29 1.277 1.936 3.094 1.936 5.452v10.144Zm-9.092 2.778c2.217 0 3.957-1.15 5.219-3.451v-5.094h-2.904c-4.096 0-6.145 1.516-6.145 4.546 0 1.319.323 2.316.968 2.989.646.674 1.6 1.01 2.862 1.01ZM944.409 634.629c-.87 2.582-2.084 4.623-3.641 6.125-1.557 1.501-3.781 2.406-6.671 2.715l-.421-3.031c1.459-.253 2.623-.617 3.493-1.094.87-.478 1.565-1.088 2.084-1.832.519-.743 1.003-1.746 1.452-3.009H939.4l-7.45-22.184h4.125l5.935 19.363 5.808-19.363h3.998l-7.407 22.31ZM973.408 611.814c1.516 0 2.877.211 4.083.631 1.207.421 2.357 1.053 3.451 1.895l-1.641 2.441c-1.01-.645-1.971-1.122-2.883-1.431-.912-.309-1.873-.463-2.883-.463-1.263 0-2.259.26-2.989.779-.729.519-1.094 1.227-1.094 2.125 0 .898.344 1.6 1.031 2.105.688.505 1.929.996 3.725 1.473 2.469.618 4.314 1.46 5.535 2.526 1.22 1.066 1.831 2.526 1.831 4.378 0 2.189-.849 3.858-2.547 5.009-1.697 1.151-3.767 1.726-6.208 1.726-3.367 0-6.159-.968-8.376-2.905l2.063-2.357c1.88 1.431 3.956 2.147 6.229 2.147 1.459 0 2.617-.302 3.472-.905.856-.603 1.284-1.424 1.284-2.463 0-.757-.154-1.368-.463-1.831-.309-.463-.842-.87-1.599-1.22-.758-.351-1.866-.723-3.325-1.116-2.357-.617-4.062-1.445-5.114-2.483-1.053-1.039-1.579-2.358-1.579-3.957 0-1.151.344-2.196 1.032-3.136.687-.94 1.641-1.67 2.862-2.189 1.22-.519 2.588-.779 4.103-.779ZM1003.8 622.759c0 .645-.03 1.304-.09 1.978h-14.139c.168 2.441.786 4.237 1.852 5.388 1.066 1.151 2.441 1.726 4.125 1.726 1.066 0 2.048-.155 2.946-.463.898-.309 1.836-.8 2.816-1.474l1.69 2.316c-2.36 1.852-4.941 2.778-7.747 2.778-3.087 0-5.493-1.01-7.218-3.031-1.726-2.02-2.589-4.799-2.589-8.335 0-2.301.372-4.342 1.115-6.124.744-1.782 1.81-3.178 3.199-4.189 1.389-1.01 3.024-1.515 4.904-1.515 2.946 0 5.205.968 6.776 2.905 1.57 1.936 2.36 4.616 2.36 8.04Zm-3.833-1.137c0-2.189-.435-3.859-1.305-5.009-.87-1.151-2.174-1.726-3.914-1.726-3.171 0-4.897 2.329-5.177 6.988h10.396v-.253ZM1019.62 611.814c.79 0 1.52.084 2.19.253l-.71 3.788c-.68-.168-1.32-.252-1.94-.252-1.38 0-2.48.505-3.32 1.515-.85 1.01-1.51 2.582-1.98 4.714v12.671h-3.88v-22.184h3.33l.38 4.504c.59-1.655 1.39-2.904 2.4-3.746 1.01-.842 2.19-1.263 3.53-1.263ZM1042.52 612.319l-7.53 22.184h-4.68l-7.66-22.184h4.21l5.81 18.732 5.77-18.732h4.08ZM1050.81 612.319v22.184h-3.87v-22.184h3.87Zm-1.98-10.65c.82 0 1.48.253 1.98.758.51.505.76 1.137.76 1.894 0 .758-.25 1.382-.76 1.874-.5.491-1.16.736-1.98.736-.78 0-1.43-.245-1.93-.736-.51-.492-.76-1.116-.76-1.874 0-.757.25-1.389.76-1.894.5-.505 1.15-.758 1.93-.758ZM1066.89 611.814c1.32 0 2.52.19 3.62.568 1.09.379 2.15.99 3.16 1.831l-1.86 2.442c-.78-.561-1.55-.975-2.29-1.242-.74-.266-1.56-.4-2.46-.4-1.8 0-3.19.716-4.19 2.147-1 1.431-1.49 3.55-1.49 6.356s.49 4.876 1.47 6.209c.98 1.333 2.38 2 4.21 2 .87 0 1.67-.134 2.4-.4.73-.267 1.54-.695 2.44-1.284l1.77 2.525c-2.02 1.628-4.28 2.442-6.78 2.442-3 0-5.37-1.01-7.09-3.031-1.73-2.02-2.59-4.813-2.59-8.377 0-2.357.39-4.419 1.18-6.187.78-1.768 1.9-3.143 3.34-4.126 1.45-.982 3.17-1.473 5.16-1.473ZM1095.68 622.759c0 .645-.03 1.304-.08 1.978h-14.15c.17 2.441.79 4.237 1.86 5.388 1.06 1.151 2.44 1.726 4.12 1.726 1.07 0 2.05-.155 2.95-.463.89-.309 1.83-.8 2.82-1.474l1.68 2.316c-2.36 1.852-4.94 2.778-7.75 2.778-3.08 0-5.49-1.01-7.21-3.031-1.73-2.02-2.59-4.799-2.59-8.335 0-2.301.37-4.342 1.11-6.124.75-1.782 1.81-3.178 3.2-4.189 1.39-1.01 3.02-1.515 4.91-1.515 2.94 0 5.2.968 6.77 2.905 1.57 1.936 2.36 4.616 2.36 8.04Zm-3.83-1.137c0-2.189-.44-3.859-1.31-5.009-.87-1.151-2.17-1.726-3.91-1.726-3.17 0-4.9 2.329-5.18 6.988h10.4v-.253ZM1120.55 606.047c-1.17 0-2.02.26-2.52.779-.51.519-.76 1.326-.76 2.42v3.073h5.39l-.42 2.989h-4.97v19.195h-3.87v-19.195h-3.96v-2.989h3.96v-3.031c0-1.908.61-3.444 1.83-4.609 1.22-1.164 2.92-1.747 5.11-1.747 1.01 0 1.92.091 2.72.274.8.182 1.66.47 2.59.863l-1.22 2.82c-1.27-.561-2.56-.842-3.88-.842ZM1143.87 622.759c0 .645-.03 1.304-.08 1.978h-14.15c.17 2.441.79 4.237 1.86 5.388 1.06 1.151 2.44 1.726 4.12 1.726 1.07 0 2.05-.155 2.95-.463.9-.309 1.84-.8 2.82-1.474l1.68 2.316c-2.36 1.852-4.94 2.778-7.74 2.778-3.09 0-5.49-1.01-7.22-3.031-1.73-2.02-2.59-4.799-2.59-8.335 0-2.301.37-4.342 1.12-6.124.74-1.782 1.81-3.178 3.2-4.189 1.38-1.01 3.02-1.515 4.9-1.515 2.94 0 5.2.968 6.78 2.905 1.57 1.936 2.35 4.616 2.35 8.04Zm-3.83-1.137c0-2.189-.43-3.859-1.3-5.009-.87-1.151-2.18-1.726-3.92-1.726-3.17 0-4.89 2.329-5.18 6.988h10.4v-.253ZM1159.7 611.814c.78 0 1.51.084 2.19.253l-.72 3.788c-.67-.168-1.32-.252-1.94-.252-1.37 0-2.48.505-3.32 1.515-.84 1.01-1.5 2.582-1.98 4.714v12.671h-3.87v-22.184h3.32l.38 4.504c.59-1.655 1.39-2.904 2.4-3.746 1.01-.842 2.19-1.263 3.54-1.263ZM1175.94 611.814c.79 0 1.52.084 2.19.253l-.71 3.788c-.68-.168-1.32-.252-1.94-.252-1.37 0-2.48.505-3.32 1.515-.85 1.01-1.51 2.582-1.98 4.714v12.671h-3.87v-22.184h3.32l.38 4.504c.59-1.655 1.39-2.904 2.4-3.746 1.01-.842 2.19-1.263 3.53-1.263ZM1191.43 634.629c-.87 2.582-2.08 4.623-3.64 6.125-1.55 1.501-3.78 2.406-6.67 2.715l-.42-3.031c1.46-.253 2.62-.617 3.49-1.094.87-.478 1.57-1.088 2.09-1.832.52-.743 1-1.746 1.45-3.009h-1.31l-7.45-22.184h4.13l5.93 19.363 5.81-19.363h4l-7.41 22.31ZM1224.05 611.814c.79 0 1.52.084 2.19.253l-.71 3.788c-.68-.168-1.32-.252-1.94-.252-1.38 0-2.48.505-3.33 1.515-.84 1.01-1.5 2.582-1.97 4.714v12.671h-3.88v-22.184h3.33l.38 4.504c.59-1.655 1.39-2.904 2.4-3.746 1.01-.842 2.19-1.263 3.53-1.263ZM1238.99 611.814c3.12 0 5.54 1.038 7.27 3.115 1.72 2.077 2.58 4.897 2.58 8.461 0 2.301-.39 4.329-1.18 6.083-.78 1.753-1.92 3.114-3.4 4.083-1.49.968-3.26 1.452-5.31 1.452-3.11 0-5.54-1.038-7.28-3.115-1.74-2.077-2.61-4.897-2.61-8.461 0-2.301.39-4.329 1.18-6.083.79-1.753 1.92-3.115 3.41-4.083 1.49-.968 3.27-1.452 5.34-1.452Zm0 3.115c-3.84 0-5.76 2.834-5.76 8.503 0 5.641 1.91 8.461 5.72 8.461 3.82 0 5.73-2.834 5.73-8.503 0-5.641-1.9-8.461-5.69-8.461ZM1271.74 634.503h-3.33l-.29-3.452c-.84 1.375-1.81 2.378-2.9 3.01-1.1.631-2.43.947-4 .947-1.94 0-3.45-.589-4.55-1.768-1.09-1.179-1.64-2.848-1.64-5.009v-15.912h3.87v15.491c0 1.515.27 2.589.8 3.22.54.631 1.41.947 2.61.947 2.16 0 4.01-1.277 5.56-3.83v-15.828h3.87v22.184ZM1290.93 633.492c-1.46 1.011-3.11 1.516-4.96 1.516-1.88 0-3.35-.54-4.4-1.621-1.05-1.08-1.58-2.645-1.58-4.693v-13.386h-3.87v-2.989h3.87v-5.009l3.87-.463v5.472h5.26l-.42 2.989h-4.84v13.217c0 1.151.21 1.986.61 2.505.41.519 1.09.779 2.04.779.87 0 1.86-.295 2.95-.884l1.47 2.567ZM1311.68 622.759c0 .645-.03 1.304-.08 1.978h-14.14c.16 2.441.78 4.237 1.85 5.388 1.07 1.151 2.44 1.726 4.12 1.726 1.07 0 2.05-.155 2.95-.463.9-.309 1.84-.8 2.82-1.474l1.68 2.316c-2.35 1.852-4.94 2.778-7.74 2.778-3.09 0-5.49-1.01-7.22-3.031-1.73-2.02-2.59-4.799-2.59-8.335 0-2.301.37-4.342 1.12-6.124.74-1.782 1.81-3.178 3.2-4.189 1.39-1.01 3.02-1.515 4.9-1.515 2.95 0 5.21.968 6.78 2.905 1.57 1.936 2.35 4.616 2.35 8.04Zm-3.83-1.137c0-2.189-.43-3.859-1.3-5.009-.87-1.151-2.18-1.726-3.92-1.726-3.17 0-4.89 2.329-5.17 6.988h10.39v-.253ZM1323.89 611.814c1.51 0 2.88.211 4.08.631 1.21.421 2.36 1.053 3.45 1.895l-1.64 2.441c-1.01-.645-1.97-1.122-2.88-1.431-.91-.309-1.87-.463-2.88-.463-1.27 0-2.26.26-2.99.779-.73.519-1.1 1.227-1.1 2.125 0 .898.35 1.6 1.03 2.105.69.505 1.93.996 3.73 1.473 2.47.618 4.31 1.46 5.53 2.526 1.22 1.066 1.84 2.526 1.84 4.378 0 2.189-.85 3.858-2.55 5.009-1.7 1.151-3.77 1.726-6.21 1.726-3.37 0-6.16-.968-8.38-2.905l2.07-2.357c1.88 1.431 3.95 2.147 6.23 2.147 1.45 0 2.61-.302 3.47-.905.85-.603 1.28-1.424 1.28-2.463 0-.757-.15-1.368-.46-1.831-.31-.463-.84-.87-1.6-1.22-.76-.351-1.87-.723-3.33-1.116-2.35-.617-4.06-1.445-5.11-2.483-1.05-1.039-1.58-2.358-1.58-3.957 0-1.151.35-2.196 1.03-3.136.69-.94 1.65-1.67 2.87-2.189 1.22-.519 2.58-.779 4.1-.779Z" style="fill:#999;fill-rule:nonzero"/><path d="m839.2 553.431-.474 3.836h-9.044v28.792h-4.498v-28.792h-9.281v-3.836H839.2ZM862.733 586.059h-3.74l-.332-3.883c-.947 1.547-2.036 2.676-3.267 3.386-1.231.71-2.731 1.065-4.498 1.065-2.179 0-3.883-.663-5.114-1.989-1.231-1.326-1.847-3.204-1.847-5.635v-17.9h4.356v17.427c0 1.704.3 2.912.9 3.622.6.711 1.578 1.066 2.936 1.066 2.43 0 4.514-1.437 6.25-4.31v-17.805h4.356v24.956Zm-14.347-36.369c.758 0 1.397.26 1.918.781.521.521.781 1.161.781 1.918 0 .758-.26 1.397-.781 1.918-.521.521-1.16.781-1.918.781-.789 0-1.444-.26-1.965-.781-.521-.521-.781-1.16-.781-1.918 0-.757.26-1.397.781-1.918.521-.521 1.176-.781 1.965-.781Zm9.896 0c.79 0 1.445.26 1.965.781.521.521.782 1.161.782 1.918 0 .758-.261 1.397-.782 1.918-.52.521-1.175.781-1.965.781-.757 0-1.396-.26-1.917-.781-.521-.521-.782-1.16-.782-1.918 0-.757.261-1.397.782-1.918.521-.521 1.16-.781 1.917-.781ZM896.779 560.534c2.051 0 3.693.687 4.924 2.06 1.231 1.374 1.847 3.228 1.847 5.565v17.9h-4.356v-17.285c0-3.22-1.168-4.83-3.504-4.83-1.232 0-2.273.355-3.126 1.066-.852.71-1.767 1.823-2.746 3.338v17.711h-4.356v-17.285c0-3.22-1.168-4.83-3.504-4.83-1.263 0-2.32.363-3.173 1.089-.852.726-1.752 1.831-2.699 3.315v17.711h-4.356v-24.956h3.741l.379 3.646c1.862-2.81 4.261-4.215 7.197-4.215 1.547 0 2.865.395 3.954 1.184 1.089.79 1.87 1.895 2.344 3.315.978-1.452 2.059-2.565 3.243-3.338 1.184-.774 2.581-1.161 4.191-1.161ZM944.982 562.239c-.947.316-1.989.521-3.125.616-1.137.095-2.526.142-4.167.142 2.936 1.326 4.403 3.425 4.403 6.298 0 2.494-.852 4.531-2.557 6.109-1.704 1.579-4.024 2.368-6.96 2.368-1.137 0-2.194-.158-3.173-.474-.378.253-.678.592-.899 1.018-.221.427-.332.861-.332 1.303 0 1.357 1.089 2.036 3.267 2.036h3.978c1.673 0 3.157.3 4.451.9 1.294.6 2.296 1.42 3.007 2.462.71 1.042 1.065 2.226 1.065 3.552 0 2.431-.994 4.301-2.983 5.612-1.989 1.31-4.893 1.965-8.713 1.965-2.683 0-4.806-.276-6.368-.829-1.563-.552-2.676-1.381-3.338-2.486-.663-1.105-.995-2.526-.995-4.262h3.93c0 1.01.19 1.807.568 2.391.379.584 1.058 1.026 2.037 1.326.978.3 2.367.45 4.166.45 2.621 0 4.491-.323 5.612-.971 1.12-.647 1.68-1.618 1.68-2.912 0-1.168-.441-2.052-1.325-2.652-.884-.6-2.115-.9-3.694-.9h-3.93c-2.115 0-3.717-.449-4.806-1.349-1.089-.9-1.634-2.029-1.634-3.386 0-.821.237-1.61.711-2.368.473-.758 1.152-1.436 2.036-2.036-1.452-.758-2.518-1.697-3.196-2.818-.679-1.121-1.018-2.486-1.018-4.096 0-1.673.418-3.173 1.254-4.499.837-1.326 1.989-2.36 3.457-3.102 1.468-.742 3.101-1.113 4.901-1.113 1.957.032 3.598-.039 4.924-.213 1.326-.173 2.423-.41 3.291-.71.868-.3 1.934-.734 3.196-1.302l1.279 3.93Zm-12.69 1.421c-1.642 0-2.912.513-3.812 1.539-.9 1.026-1.349 2.376-1.349 4.049 0 1.705.457 3.07 1.373 4.096.915 1.026 2.209 1.539 3.882 1.539 1.705 0 3.007-.497 3.907-1.492.9-.994 1.349-2.391 1.349-4.191 0-3.693-1.783-5.54-5.35-5.54ZM968.042 586.059h-3.741l-.331-3.883c-.947 1.547-2.037 2.676-3.268 3.386-1.231.71-2.73 1.065-4.498 1.065-2.178 0-3.883-.663-5.114-1.989-1.231-1.326-1.847-3.204-1.847-5.635v-17.9h4.357v17.427c0 1.704.3 2.912.899 3.622.6.711 1.579 1.066 2.936 1.066 2.431 0 4.514-1.437 6.25-4.31v-17.805h4.357v24.956Zm-14.348-36.369c.758 0 1.397.26 1.918.781.521.521.781 1.161.781 1.918 0 .758-.26 1.397-.781 1.918-.521.521-1.16.781-1.918.781-.789 0-1.444-.26-1.965-.781-.521-.521-.781-1.16-.781-1.918 0-.757.26-1.397.781-1.918.521-.521 1.176-.781 1.965-.781Zm9.897 0c.789 0 1.444.26 1.965.781.521.521.781 1.161.781 1.918 0 .758-.26 1.397-.781 1.918-.521.521-1.176.781-1.965.781-.758 0-1.397-.26-1.918-.781-.521-.521-.781-1.16-.781-1.918 0-.757.26-1.397.781-1.918.521-.521 1.16-.781 1.918-.781ZM988.781 560.534c2.273 0 4.049.679 5.327 2.037 1.279 1.357 1.918 3.22 1.918 5.588v17.9h-4.356v-17.285c0-1.768-.332-3.015-.995-3.741-.662-.726-1.641-1.089-2.935-1.089-1.326 0-2.494.379-3.504 1.137-1.01.757-1.957 1.846-2.841 3.267v17.711h-4.357v-24.956h3.741l.379 3.693c.884-1.326 1.981-2.367 3.291-3.125 1.31-.758 2.754-1.137 4.332-1.137ZM1029.08 560.534c2.27 0 4.04.679 5.32 2.037 1.28 1.357 1.92 3.22 1.92 5.588v17.9h-4.36v-17.285c0-1.768-.33-3.015-1.01-3.741-.68-.726-1.67-1.089-2.96-1.089-1.3 0-2.45.379-3.46 1.137-1.01.757-1.96 1.831-2.84 3.22v17.758h-4.36v-34.948l4.36-.474v13.923c1.96-2.684 4.42-4.026 7.39-4.026ZM1049.44 561.103v24.956h-4.36v-24.956h4.36Zm-2.23-11.981c.92 0 1.66.284 2.23.852.57.568.85 1.279.85 2.131 0 .852-.28 1.555-.85 2.107-.57.553-1.31.829-2.23.829-.88 0-1.61-.276-2.18-.829-.56-.552-.85-1.255-.85-2.107 0-.852.29-1.563.85-2.131.57-.568 1.3-.852 2.18-.852ZM1073.07 561.103v3.315l-13.03 17.995h13.17l-.52 3.646h-17.57v-3.267l12.97-17.996h-11.88v-3.693h16.86ZM1104.17 560.534c2.06 0 3.7.687 4.93 2.06 1.23 1.374 1.85 3.228 1.85 5.565v17.9h-4.36v-17.285c0-3.22-1.17-4.83-3.5-4.83-1.23 0-2.28.355-3.13 1.066-.85.71-1.77 1.823-2.75 3.338v17.711h-4.35v-17.285c0-3.22-1.17-4.83-3.5-4.83-1.27 0-2.33.363-3.18 1.089-.85.726-1.75 1.831-2.7 3.315v17.711h-4.35v-24.956h3.74l.38 3.646c1.86-2.81 4.26-4.215 7.19-4.215 1.55 0 2.87.395 3.96 1.184 1.09.79 1.87 1.895 2.34 3.315.98-1.452 2.06-2.565 3.25-3.338 1.18-.774 2.58-1.161 4.18-1.161ZM1138.55 572.847c0 .726-.03 1.468-.09 2.226h-15.91c.19 2.746.88 4.767 2.08 6.061 1.2 1.295 2.75 1.942 4.64 1.942 1.2 0 2.31-.174 3.32-.521 1.01-.347 2.06-.9 3.17-1.658l1.89 2.605c-2.65 2.084-5.55 3.125-8.71 3.125-3.47 0-6.18-1.136-8.12-3.409-1.94-2.273-2.91-5.399-2.91-9.377 0-2.588.42-4.885 1.25-6.89.84-2.005 2.04-3.575 3.6-4.712 1.56-1.136 3.4-1.705 5.52-1.705 3.31 0 5.85 1.09 7.62 3.268 1.77 2.178 2.65 5.193 2.65 9.045Zm-4.31-1.279c0-2.462-.49-4.341-1.46-5.635-.98-1.294-2.45-1.942-4.41-1.942-3.56 0-5.51 2.621-5.82 7.861h11.69v-.284ZM1158.11 584.923c-1.64 1.136-3.51 1.704-5.59 1.704-2.11 0-3.76-.607-4.95-1.823-1.18-1.215-1.77-2.975-1.77-5.28v-15.059h-4.36v-3.362h4.36v-5.636l4.35-.521v6.157h5.92l-.47 3.362h-5.45v14.87c0 1.294.23 2.233.69 2.817.46.584 1.22.876 2.3.876.98 0 2.08-.331 3.31-.994l1.66 2.889ZM1193.48 561.103l-8.48 24.956h-5.25l-8.62-24.956h4.74l6.53 21.073 6.49-21.073h4.59ZM1217.3 572.847c0 .726-.03 1.468-.1 2.226h-15.91c.19 2.746.89 4.767 2.09 6.061 1.2 1.295 2.74 1.942 4.64 1.942 1.2 0 2.3-.174 3.31-.521 1.01-.347 2.07-.9 3.17-1.658l1.9 2.605c-2.65 2.084-5.56 3.125-8.72 3.125-3.47 0-6.17-1.136-8.12-3.409-1.94-2.273-2.91-5.399-2.91-9.377 0-2.588.42-4.885 1.26-6.89.83-2.005 2.03-3.575 3.6-4.712 1.56-1.136 3.4-1.705 5.51-1.705 3.32 0 5.86 1.09 7.62 3.268 1.77 2.178 2.66 5.193 2.66 9.045Zm-4.31-1.279c0-2.462-.49-4.341-1.47-5.635-.98-1.294-2.45-1.942-4.4-1.942-3.57 0-5.51 2.621-5.83 7.861h11.7v-.284ZM1235.1 560.534c.89 0 1.71.095 2.46.285l-.8 4.262c-.76-.19-1.49-.285-2.18-.285-1.55 0-2.79.569-3.74 1.705-.95 1.137-1.69 2.905-2.23 5.304v14.254h-4.35v-24.956h3.74l.42 5.067c.67-1.863 1.57-3.268 2.7-4.215 1.14-.947 2.47-1.421 3.98-1.421ZM1261.38 572.847c0 .726-.03 1.468-.09 2.226h-15.91c.19 2.746.88 4.767 2.08 6.061 1.2 1.295 2.75 1.942 4.64 1.942 1.2 0 2.3-.174 3.31-.521 1.01-.347 2.07-.9 3.18-1.658l1.89 2.605c-2.65 2.084-5.56 3.125-8.71 3.125-3.47 0-6.18-1.136-8.12-3.409-1.94-2.273-2.91-5.399-2.91-9.377 0-2.588.41-4.885 1.25-6.89.84-2.005 2.04-3.575 3.6-4.712 1.56-1.136 3.4-1.705 5.52-1.705 3.31 0 5.85 1.09 7.62 3.268 1.77 2.178 2.65 5.193 2.65 9.045Zm-4.31-1.279c0-2.462-.49-4.341-1.47-5.635-.98-1.294-2.44-1.942-4.4-1.942-3.57 0-5.51 2.621-5.82 7.861h11.69v-.284ZM1280.08 560.534c2.28 0 4.05.679 5.33 2.037 1.28 1.357 1.92 3.22 1.92 5.588v17.9h-4.36v-17.285c0-1.768-.33-3.015-.99-3.741-.66-.726-1.64-1.089-2.94-1.089-1.32 0-2.49.379-3.5 1.137-1.01.757-1.96 1.846-2.84 3.267v17.711h-4.36v-24.956h3.74l.38 3.693c.88-1.326 1.98-2.367 3.29-3.125s2.76-1.137 4.33-1.137ZM1326.96 561.103l-8.47 24.956h-5.26l-8.62-24.956h4.74l6.53 21.073 6.49-21.073h4.59ZM1348.74 580.234c0 1.011.18 1.76.52 2.25.35.489.87.86 1.57 1.113l-1 3.03c-1.29-.157-2.33-.521-3.12-1.089s-1.38-1.452-1.76-2.652c-1.67 2.494-4.15 3.741-7.43 3.741-2.46 0-4.4-.694-5.82-2.083-1.42-1.389-2.13-3.205-2.13-5.446 0-2.652.95-4.688 2.86-6.109 1.91-1.421 4.62-2.131 8.12-2.131h3.84v-1.847c0-1.768-.43-3.031-1.28-3.788-.85-.758-2.16-1.137-3.93-1.137-1.83 0-4.07.442-6.73 1.326l-1.08-3.173c3.09-1.136 5.96-1.705 8.61-1.705 2.94 0 5.13.719 6.59 2.155 1.45 1.437 2.17 3.481 2.17 6.133v11.412Zm-10.22 3.126c2.49 0 4.45-1.295 5.87-3.883v-5.73h-3.27c-4.61 0-6.91 1.704-6.91 5.114 0 1.484.36 2.605 1.09 3.362.72.758 1.79 1.137 3.22 1.137ZM1369.15 560.534c3.19 0 5.52 1.137 7.01 3.41 1.48 2.273 2.22 5.477 2.22 9.613 0 3.915-.85 7.072-2.55 9.471-1.71 2.4-4.12 3.599-7.25 3.599-2.77 0-4.95-.947-6.53-2.841v11.839l-4.36.521v-35.043h3.74l.33 3.362c.92-1.263 2.03-2.234 3.32-2.912 1.29-.679 2.65-1.019 4.07-1.019Zm-1.61 22.542c4.1 0 6.16-3.173 6.16-9.519 0-6.377-1.88-9.566-5.64-9.566-1.23 0-2.35.363-3.36 1.09-1.01.726-1.89 1.657-2.65 2.794v12.17c.63.979 1.42 1.728 2.37 2.249.94.521 1.98.782 3.12.782ZM1404.38 586.059h-3.74l-.33-3.883c-.95 1.547-2.04 2.676-3.27 3.386s-2.73 1.065-4.5 1.065c-2.18 0-3.88-.663-5.11-1.989-1.23-1.326-1.85-3.204-1.85-5.635v-17.9h4.36v17.427c0 1.704.3 2.912.9 3.622.6.711 1.58 1.066 2.93 1.066 2.43 0 4.52-1.437 6.25-4.31v-17.805h4.36v24.956ZM1424.22 560.534c.88 0 1.7.095 2.46.285l-.8 4.262c-.76-.19-1.49-.285-2.18-.285-1.55 0-2.79.569-3.74 1.705-.95 1.137-1.69 2.905-2.23 5.304v14.254h-4.35v-24.956h3.74l.42 5.067c.67-1.863 1.57-3.268 2.7-4.215 1.14-.947 2.46-1.421 3.98-1.421ZM1455.05 560.534c.88 0 1.7.095 2.46.285l-.81 4.262c-.76-.19-1.48-.285-2.17-.285-1.55 0-2.8.569-3.75 1.705-.94 1.137-1.68 2.905-2.22 5.304v14.254h-4.36v-24.956h3.74l.43 5.067c.66-1.863 1.56-3.268 2.7-4.215 1.13-.947 2.46-1.421 3.98-1.421ZM1471.86 560.534c3.5 0 6.22 1.168 8.16 3.505 1.94 2.336 2.91 5.509 2.91 9.518 0 2.589-.44 4.87-1.32 6.843-.88 1.973-2.16 3.504-3.84 4.594-1.67 1.089-3.66 1.633-5.96 1.633-3.51 0-6.24-1.168-8.19-3.504-1.96-2.336-2.94-5.509-2.94-9.518 0-2.589.44-4.87 1.33-6.843.88-1.973 2.16-3.505 3.83-4.594 1.68-1.089 3.68-1.634 6.02-1.634Zm0 3.505c-4.33 0-6.49 3.188-6.49 9.566 0 6.345 2.15 9.518 6.44 9.518 4.29 0 6.44-3.189 6.44-9.566 0-6.345-2.13-9.518-6.39-9.518ZM1502.73 584.923c-1.64 1.136-3.51 1.704-5.59 1.704-2.11 0-3.76-.607-4.95-1.823-1.18-1.215-1.77-2.975-1.77-5.28v-15.059h-4.36v-3.362h4.36v-5.636l4.35-.521v6.157h5.92l-.47 3.362h-5.45v14.87c0 1.294.23 2.233.69 2.817.46.584 1.22.876 2.3.876.98 0 2.08-.331 3.31-.994l1.66 2.889ZM1524.04 580.234c0 1.011.17 1.76.52 2.25.34.489.86.86 1.56 1.113l-1 3.03c-1.29-.157-2.33-.521-3.12-1.089s-1.37-1.452-1.75-2.652c-1.67 2.494-4.15 3.741-7.44 3.741-2.46 0-4.4-.694-5.82-2.083-1.42-1.389-2.13-3.205-2.13-5.446 0-2.652.95-4.688 2.86-6.109 1.91-1.421 4.62-2.131 8.12-2.131h3.84v-1.847c0-1.768-.43-3.031-1.28-3.788-.85-.758-2.16-1.137-3.93-1.137-1.83 0-4.07.442-6.72 1.326l-1.09-3.173c3.09-1.136 5.96-1.705 8.62-1.705 2.93 0 5.13.719 6.58 2.155 1.45 1.437 2.18 3.481 2.18 6.133v11.412Zm-10.23 3.126c2.49 0 4.45-1.295 5.87-3.883v-5.73h-3.27c-4.61 0-6.91 1.704-6.91 5.114 0 1.484.36 2.605 1.09 3.362.72.758 1.8 1.137 3.22 1.137ZM1537.96 586.627c-1.61 0-2.88-.481-3.82-1.444-.93-.963-1.39-2.312-1.39-4.049v-30.071l4.36-.521v30.497c0 .695.11 1.2.35 1.516.24.316.64.473 1.21.473.6 0 1.13-.094 1.61-.284l1.13 3.031c-1.04.568-2.19.852-3.45.852ZM1563.67 580.234c0 1.011.17 1.76.52 2.25.35.489.87.86 1.56 1.113l-.99 3.03c-1.3-.157-2.34-.521-3.13-1.089s-1.37-1.452-1.75-2.652c-1.67 2.494-4.15 3.741-7.43 3.741-2.47 0-4.41-.694-5.83-2.083-1.42-1.389-2.13-3.205-2.13-5.446 0-2.652.96-4.688 2.87-6.109 1.91-1.421 4.61-2.131 8.12-2.131h3.83v-1.847c0-1.768-.42-3.031-1.28-3.788-.85-.758-2.16-1.137-3.93-1.137-1.83 0-4.07.442-6.72 1.326l-1.09-3.173c3.09-1.136 5.97-1.705 8.62-1.705 2.93 0 5.13.719 6.58 2.155 1.45 1.437 2.18 3.481 2.18 6.133v11.412Zm-10.23 3.126c2.49 0 4.45-1.295 5.87-3.883v-5.73h-3.26c-4.61 0-6.92 1.704-6.92 5.114 0 1.484.37 2.605 1.09 3.362.73.758 1.8 1.137 3.22 1.137ZM1583.46 560.534c.89 0 1.71.095 2.46.285l-.8 4.262c-.76-.19-1.49-.285-2.18-.285-1.55 0-2.79.569-3.74 1.705-.95 1.137-1.69 2.905-2.23 5.304v14.254h-4.35v-24.956h3.74l.43 5.067c.66-1.863 1.56-3.268 2.69-4.215 1.14-.947 2.47-1.421 3.98-1.421ZM1590.89 561.103h4.356v24.956h-4.356z" style="fill-rule:nonzero"/><path d="M482.279 737.825c-1.235 0-2.238-1.003-2.238-2.238s1.003-2.237 2.238-2.237h258.338c1.235 0 2.237 1.002 2.237 2.237s-1.002 2.238-2.237 2.238H482.279Z" style="fill:#bae3f8"/><circle cx="482.279" cy="735.587" r="7.458" style="fill:#bae3f8"/><circle cx="740.617" cy="735.587" r="7.458" style="fill:#bae3f8"/><path style="fill:#999;fill-rule:nonzero" d="M821.928 748.242h3.999v29.003h-3.999zM843.772 754.557c.786 0 1.515.084 2.189.252l-.716 3.789c-.673-.169-1.318-.253-1.936-.253-1.375 0-2.483.505-3.325 1.515-.842 1.011-1.501 2.582-1.978 4.715v12.67h-3.872v-22.183h3.325l.379 4.504c.589-1.656 1.389-2.905 2.399-3.747 1.01-.841 2.188-1.262 3.535-1.262ZM860.019 754.557c.785 0 1.515.084 2.188.252l-.715 3.789c-.673-.169-1.319-.253-1.936-.253-1.375 0-2.483.505-3.325 1.515-.842 1.011-1.501 2.582-1.978 4.715v12.67h-3.873v-22.183h3.325l.379 4.504c.589-1.656 1.389-2.905 2.399-3.747 1.01-.841 2.189-1.262 3.536-1.262ZM883.379 765.501c0 .645-.028 1.305-.085 1.978h-14.142c.169 2.442.786 4.238 1.852 5.388 1.066 1.151 2.441 1.726 4.125 1.726 1.066 0 2.048-.154 2.946-.463.898-.308 1.838-.8 2.82-1.473l1.684 2.315c-2.357 1.852-4.939 2.778-7.745 2.778-3.086 0-5.492-1.01-7.218-3.03-1.726-2.021-2.589-4.799-2.589-8.335 0-2.301.372-4.343 1.116-6.125.743-1.782 1.81-3.178 3.199-4.188 1.389-1.01 3.023-1.515 4.903-1.515 2.946 0 5.205.968 6.777 2.904 1.571 1.936 2.357 4.616 2.357 8.04Zm-3.831-1.137c0-2.188-.435-3.858-1.304-5.009-.87-1.15-2.175-1.726-3.915-1.726-3.17 0-4.896 2.33-5.177 6.988h10.396v-.253ZM907.454 756.072c-.842.281-1.768.463-2.778.547-1.01.084-2.245.126-3.704.126 2.61 1.179 3.914 3.045 3.914 5.599 0 2.217-.757 4.027-2.272 5.43-1.516 1.403-3.578 2.105-6.188 2.105-1.01 0-1.95-.141-2.82-.421-.336.224-.603.526-.799.905-.197.379-.295.765-.295 1.157 0 1.207.968 1.81 2.904 1.81h3.536c1.487 0 2.806.267 3.956.8 1.151.533 2.042 1.263 2.673 2.189.631.926.947 1.979.947 3.157 0 2.161-.884 3.824-2.652 4.988-1.768 1.165-4.349 1.747-7.744 1.747-2.385 0-4.272-.245-5.661-.736-1.389-.491-2.378-1.228-2.968-2.21-.589-.983-.884-2.245-.884-3.789h3.494c0 .898.168 1.607.505 2.126.337.519.94.912 1.81 1.179.87.266 2.104.399 3.704.399 2.329 0 3.991-.287 4.987-.862.997-.576 1.495-1.439 1.495-2.589 0-1.039-.393-1.824-1.179-2.357-.786-.534-1.88-.8-3.283-.8h-3.493c-1.88 0-3.304-.4-4.272-1.2-.969-.8-1.453-1.803-1.453-3.01 0-.729.211-1.431.632-2.104.421-.674 1.024-1.277 1.81-1.81-1.291-.674-2.238-1.509-2.841-2.505-.604-.996-.905-2.21-.905-3.641 0-1.487.371-2.82 1.115-3.999.744-1.179 1.768-2.098 3.073-2.757 1.304-.66 2.756-.989 4.356-.989 1.74.028 3.199-.035 4.377-.19 1.179-.154 2.154-.365 2.925-.631.772-.267 1.719-.653 2.841-1.158l1.137 3.494Zm-11.28 1.263c-1.459 0-2.589.456-3.388 1.368-.8.912-1.2 2.112-1.2 3.599 0 1.515.407 2.729 1.221 3.641.813.912 1.964 1.368 3.451 1.368 1.515 0 2.673-.442 3.472-1.326.8-.884 1.2-2.126 1.2-3.725 0-3.284-1.585-4.925-4.756-4.925ZM927.952 777.245h-3.326l-.294-3.451c-.842 1.375-1.81 2.378-2.904 3.009-1.095.632-2.428.947-3.999.947-1.936 0-3.451-.589-4.546-1.768-1.094-1.178-1.641-2.848-1.641-5.009v-15.911h3.872v15.49c0 1.516.267 2.589.8 3.22.533.632 1.403.948 2.609.948 2.161 0 4.013-1.277 5.556-3.831v-15.827h3.873v22.183ZM940.368 777.75c-1.431 0-2.56-.428-3.388-1.284-.828-.855-1.242-2.055-1.242-3.599v-26.729l3.872-.463v27.108c0 .618.106 1.067.316 1.347.211.281.568.421 1.073.421.533 0 1.011-.084 1.431-.252l1.011 2.694c-.926.505-1.951.757-3.073.757ZM963.223 772.068c0 .898.154 1.564.463 1.999.308.435.771.765 1.389.989l-.884 2.694c-1.151-.14-2.077-.463-2.778-.968-.702-.505-1.221-1.291-1.557-2.357-1.488 2.217-3.69 3.325-6.609 3.325-2.188 0-3.914-.617-5.177-1.852-1.262-1.235-1.894-2.848-1.894-4.841 0-2.357.849-4.167 2.547-5.43 1.697-1.263 4.104-1.894 7.218-1.894h3.409v-1.642c0-1.571-.378-2.694-1.136-3.367-.758-.674-1.922-1.01-3.493-1.01-1.628 0-3.62.393-5.977 1.178l-.968-2.82c2.75-1.01 5.303-1.515 7.66-1.515 2.61 0 4.56.638 5.851 1.915 1.29 1.277 1.936 3.094 1.936 5.451v10.145Zm-9.092 2.778c2.217 0 3.957-1.151 5.219-3.452v-5.093h-2.904c-4.096 0-6.145 1.515-6.145 4.546 0 1.319.323 2.315.968 2.989.646.673 1.6 1.01 2.862 1.01ZM980.816 754.557c.786 0 1.515.084 2.189.252l-.716 3.789c-.673-.169-1.318-.253-1.936-.253-1.375 0-2.483.505-3.325 1.515-.842 1.011-1.501 2.582-1.978 4.715v12.67h-3.872v-22.183h3.325l.379 4.504c.589-1.656 1.388-2.905 2.399-3.747 1.01-.841 2.188-1.262 3.535-1.262ZM1006.11 748.79c-1.18 0-2.02.259-2.52.778-.51.52-.76 1.326-.76 2.421v3.073h5.39l-.42 2.988h-4.97v19.195h-3.873V758.05H995v-2.988h3.957v-3.031c0-1.908.61-3.445 1.833-4.609 1.22-1.165 2.92-1.747 5.11-1.747 1.01 0 1.92.091 2.72.273.8.183 1.66.47 2.59.863l-1.23 2.821c-1.26-.562-2.55-.842-3.87-.842ZM1029.43 765.501c0 .645-.03 1.305-.08 1.978h-14.15c.17 2.442.79 4.238 1.86 5.388 1.06 1.151 2.44 1.726 4.12 1.726 1.07 0 2.05-.154 2.95-.463.89-.308 1.83-.8 2.82-1.473l1.68 2.315c-2.36 1.852-4.94 2.778-7.74 2.778-3.09 0-5.5-1.01-7.22-3.03-1.73-2.021-2.59-4.799-2.59-8.335 0-2.301.37-4.343 1.11-6.125.75-1.782 1.81-3.178 3.2-4.188 1.39-1.01 3.03-1.515 4.91-1.515 2.94 0 5.2.968 6.77 2.904 1.57 1.936 2.36 4.616 2.36 8.04Zm-3.83-1.137c0-2.188-.44-3.858-1.3-5.009-.87-1.15-2.18-1.726-3.92-1.726-3.17 0-4.9 2.33-5.18 6.988h10.4v-.253ZM1045.26 754.557c.78 0 1.51.084 2.18.252l-.71 3.789c-.67-.169-1.32-.253-1.94-.253-1.37 0-2.48.505-3.32 1.515-.84 1.011-1.5 2.582-1.98 4.715v12.67h-3.87v-22.183h3.32l.38 4.504c.59-1.656 1.39-2.905 2.4-3.747 1.01-.841 2.19-1.262 3.54-1.262ZM1061.5 754.557c.79 0 1.52.084 2.19.252l-.72 3.789c-.67-.169-1.31-.253-1.93-.253-1.38 0-2.48.505-3.33 1.515-.84 1.011-1.5 2.582-1.97 4.715v12.67h-3.88v-22.183h3.33l.38 4.504c.59-1.656 1.39-2.905 2.4-3.747 1.01-.841 2.18-1.262 3.53-1.262ZM1076.99 777.372c-.87 2.581-2.08 4.623-3.64 6.124-1.56 1.502-3.78 2.407-6.67 2.715l-.42-3.031c1.46-.252 2.62-.617 3.49-1.094.87-.477 1.57-1.087 2.09-1.831.51-.744 1-1.747 1.45-3.01h-1.31l-7.45-22.183h4.13l5.93 19.363 5.81-19.363h4l-7.41 22.31ZM1109.61 754.557c.79 0 1.52.084 2.19.252l-.72 3.789c-.67-.169-1.31-.253-1.93-.253-1.38 0-2.49.505-3.33 1.515-.84 1.011-1.5 2.582-1.98 4.715v12.67h-3.87v-22.183h3.33l.38 4.504c.59-1.656 1.39-2.905 2.4-3.747 1.01-.841 2.18-1.262 3.53-1.262ZM1124.55 754.557c3.12 0 5.54 1.038 7.26 3.115 1.73 2.076 2.59 4.896 2.59 8.46 0 2.302-.39 4.329-1.18 6.083-.78 1.754-1.92 3.115-3.41 4.083-1.48.968-3.25 1.452-5.3 1.452-3.11 0-5.54-1.038-7.28-3.115-1.74-2.076-2.61-4.897-2.61-8.46 0-2.302.39-4.329 1.18-6.083.78-1.754 1.92-3.115 3.41-4.083 1.48-.968 3.27-1.452 5.34-1.452Zm0 3.115c-3.84 0-5.76 2.834-5.76 8.503 0 5.64 1.9 8.46 5.72 8.46s5.73-2.834 5.73-8.503c0-5.64-1.9-8.46-5.69-8.46ZM1157.3 777.245h-3.33l-.29-3.451c-.84 1.375-1.81 2.378-2.91 3.009-1.09.632-2.42.947-3.99.947-1.94 0-3.46-.589-4.55-1.768-1.09-1.178-1.64-2.848-1.64-5.009v-15.911h3.87v15.49c0 1.516.27 2.589.8 3.22.53.632 1.4.948 2.61.948 2.16 0 4.01-1.277 5.56-3.831v-15.827h3.87v22.183ZM1176.49 776.235c-1.46 1.01-3.11 1.515-4.97 1.515-1.88 0-3.34-.54-4.39-1.62-1.06-1.081-1.58-2.645-1.58-4.694V758.05h-3.87v-2.988h3.87v-5.009l3.87-.464v5.473h5.26l-.42 2.988h-4.84v13.218c0 1.15.2 1.985.61 2.504.41.52 1.09.779 2.04.779.87 0 1.85-.294 2.95-.884l1.47 2.568ZM1197.24 765.501c0 .645-.03 1.305-.08 1.978h-14.14c.16 2.442.78 4.238 1.85 5.388 1.06 1.151 2.44 1.726 4.12 1.726 1.07 0 2.05-.154 2.95-.463.9-.308 1.84-.8 2.82-1.473l1.68 2.315c-2.35 1.852-4.94 2.778-7.74 2.778-3.09 0-5.5-1.01-7.22-3.03-1.73-2.021-2.59-4.799-2.59-8.335 0-2.301.37-4.343 1.12-6.125.74-1.782 1.81-3.178 3.19-4.188 1.39-1.01 3.03-1.515 4.91-1.515 2.94 0 5.2.968 6.77 2.904 1.58 1.936 2.36 4.616 2.36 8.04Zm-3.83-1.137c0-2.188-.43-3.858-1.3-5.009-.87-1.15-2.18-1.726-3.92-1.726-3.17 0-4.89 2.33-5.17 6.988h10.39v-.253ZM1209.45 754.557c1.51 0 2.87.21 4.08.631 1.21.421 2.36 1.052 3.45 1.894l-1.64 2.442c-1.01-.646-1.97-1.123-2.88-1.432-.91-.308-1.88-.463-2.89-.463-1.26 0-2.25.26-2.98.779s-1.1 1.228-1.1 2.126c0 .898.35 1.599 1.03 2.105.69.505 1.93.996 3.73 1.473 2.47.617 4.31 1.459 5.53 2.526 1.22 1.066 1.83 2.525 1.83 4.377 0 2.189-.85 3.859-2.54 5.01-1.7 1.15-3.77 1.725-6.21 1.725-3.37 0-6.16-.968-8.38-2.904l2.07-2.357c1.87 1.431 3.95 2.146 6.22 2.146 1.46 0 2.62-.301 3.48-.905.85-.603 1.28-1.424 1.28-2.462 0-.758-.15-1.368-.46-1.831-.31-.463-.84-.87-1.6-1.221-.76-.351-1.87-.723-3.33-1.115-2.35-.618-4.06-1.446-5.11-2.484-1.05-1.038-1.58-2.357-1.58-3.957 0-1.15.34-2.196 1.03-3.136s1.64-1.67 2.86-2.189c1.22-.519 2.59-.778 4.11-.778Z"/><path d="M826.747 696.174c4.924 0 8.878 1.144 11.861 3.433 2.983 2.289 4.475 6.527 4.475 12.715 0 6.03-1.492 10.284-4.475 12.762-2.983 2.478-6.605 3.718-10.867 3.718h-7.813v-32.628h6.819Zm-2.321 3.599v25.477h3.646c3.031 0 5.493-.931 7.387-2.794 1.894-1.863 2.841-5.241 2.841-10.134 0-3.441-.489-6.085-1.468-7.932-.978-1.847-2.225-3.078-3.74-3.694-1.516-.616-3.299-.923-5.351-.923h-3.315ZM868.747 728.802h-3.741l-.331-3.884c-.947 1.547-2.036 2.676-3.267 3.386-1.232.711-2.731 1.066-4.499 1.066-2.178 0-3.883-.663-5.114-1.989-1.231-1.326-1.846-3.204-1.846-5.635v-17.901h4.356v17.427c0 1.705.3 2.912.9 3.623.599.71 1.578 1.065 2.935 1.065 2.431 0 4.514-1.436 6.251-4.309v-17.806h4.356v24.957Zm-14.347-36.37c.757 0 1.396.261 1.917.782.521.521.782 1.16.782 1.918 0 .757-.261 1.397-.782 1.918-.521.521-1.16.781-1.917.781-.79 0-1.445-.26-1.965-.781-.521-.521-.782-1.161-.782-1.918 0-.758.261-1.397.782-1.918.52-.521 1.175-.782 1.965-.782Zm9.896 0c.789 0 1.444.261 1.965.782.521.521.781 1.16.781 1.918 0 .757-.26 1.397-.781 1.918-.521.521-1.176.781-1.965.781-.758 0-1.397-.26-1.918-.781-.521-.521-.781-1.161-.781-1.918 0-.758.26-1.397.781-1.918.521-.521 1.16-.782 1.918-.782ZM892.375 703.845v3.315l-13.021 17.995h13.163l-.521 3.647h-17.567v-3.268l12.974-17.995h-11.885v-3.694h16.857ZM917.282 715.589c0 .726-.032 1.468-.095 2.226h-15.91c.189 2.747.884 4.767 2.083 6.062 1.2 1.294 2.747 1.941 4.641 1.941 1.199 0 2.304-.173 3.314-.521 1.011-.347 2.068-.899 3.173-1.657l1.894 2.604c-2.652 2.084-5.556 3.126-8.713 3.126-3.472 0-6.179-1.137-8.12-3.41-1.942-2.273-2.912-5.398-2.912-9.376 0-2.589.418-4.886 1.254-6.89.837-2.005 2.036-3.576 3.599-4.712 1.563-1.137 3.401-1.705 5.516-1.705 3.315 0 5.856 1.089 7.624 3.267 1.768 2.179 2.652 5.194 2.652 9.045Zm-4.309-1.278c0-2.463-.49-4.341-1.468-5.636-.979-1.294-2.447-1.941-4.404-1.941-3.567 0-5.508 2.62-5.824 7.861h11.696v-.284ZM935.985 703.277c2.273 0 4.049.679 5.327 2.036 1.279 1.358 1.918 3.22 1.918 5.588v17.901h-4.356v-17.285c0-1.768-.332-3.015-.995-3.741s-1.641-1.09-2.936-1.09c-1.325 0-2.493.379-3.504 1.137-1.01.758-1.957 1.847-2.841 3.268v17.711h-4.356v-24.957h3.741l.379 3.694c.884-1.326 1.981-2.368 3.291-3.126 1.31-.757 2.754-1.136 4.332-1.136ZM958.761 703.277c1.705 0 3.236.237 4.593.71 1.357.474 2.652 1.184 3.883 2.131l-1.847 2.747c-1.136-.726-2.218-1.263-3.243-1.61-1.026-.348-2.108-.521-3.244-.521-1.421 0-2.541.292-3.362.876-.821.584-1.231 1.381-1.231 2.391 0 1.011.387 1.8 1.16 2.368.773.568 2.17 1.121 4.191 1.658 2.778.694 4.853 1.641 6.226 2.841 1.373 1.2 2.06 2.841 2.06 4.925 0 2.462-.955 4.341-2.865 5.635-1.91 1.295-4.238 1.942-6.984 1.942-3.788 0-6.929-1.089-9.423-3.268l2.32-2.652c2.115 1.611 4.451 2.416 7.008 2.416 1.642 0 2.944-.34 3.907-1.019.963-.678 1.444-1.602 1.444-2.77 0-.852-.174-1.539-.521-2.06-.347-.521-.947-.979-1.799-1.373-.853-.395-2.099-.813-3.741-1.255-2.652-.695-4.569-1.626-5.753-2.794-1.184-1.168-1.776-2.652-1.776-4.452 0-1.294.387-2.47 1.16-3.528.774-1.057 1.847-1.878 3.22-2.462 1.373-.584 2.912-.876 4.617-.876ZM978.459 703.845v24.957h-4.356v-24.957h4.356Zm-2.226-11.981c.916 0 1.658.284 2.226.853.568.568.852 1.278.852 2.131 0 .852-.284 1.554-.852 2.107-.568.552-1.31.829-2.226.829-.883 0-1.61-.277-2.178-.829-.568-.553-.852-1.255-.852-2.107 0-.853.284-1.563.852-2.131.568-.569 1.295-.853 2.178-.853ZM1002.09 703.845v3.315l-13.024 17.995h13.164l-.52 3.647h-17.569v-3.268l12.974-17.995H985.23v-3.694h16.86ZM1039.02 703.845l-8.47 24.957h-5.26l-8.62-24.957h4.74l6.53 21.073 6.49-21.073h4.59ZM1060.8 722.977c0 1.01.18 1.76.52 2.249.35.49.87.861 1.57 1.113l-1 3.031c-1.29-.158-2.33-.521-3.12-1.089-.79-.569-1.38-1.453-1.76-2.652-1.67 2.494-4.15 3.741-7.43 3.741-2.46 0-4.4-.695-5.82-2.084-1.42-1.389-2.14-3.204-2.14-5.446 0-2.652.96-4.688 2.87-6.109 1.91-1.42 4.62-2.131 8.12-2.131h3.84v-1.846c0-1.768-.43-3.031-1.28-3.789-.85-.758-2.16-1.136-3.93-1.136-1.83 0-4.08.442-6.73 1.326l-1.09-3.173c3.1-1.137 5.97-1.705 8.62-1.705 2.94 0 5.13.718 6.58 2.155 1.46 1.436 2.18 3.48 2.18 6.132v11.413Zm-10.23 3.125c2.5 0 4.46-1.294 5.88-3.883v-5.73h-3.27c-4.61 0-6.91 1.705-6.91 5.115 0 1.483.36 2.604 1.08 3.362.73.757 1.8 1.136 3.22 1.136ZM1081.21 703.277c3.19 0 5.53 1.136 7.01 3.409 1.48 2.274 2.22 5.478 2.22 9.614 0 3.914-.85 7.071-2.55 9.471-1.71 2.399-4.12 3.599-7.25 3.599-2.78 0-4.95-.947-6.53-2.841v11.838l-4.36.521v-35.043h3.74l.33 3.362c.92-1.262 2.02-2.233 3.32-2.912 1.29-.679 2.65-1.018 4.07-1.018Zm-1.61 22.541c4.1 0 6.16-3.173 6.16-9.518 0-6.378-1.88-9.566-5.64-9.566-1.23 0-2.35.363-3.36 1.089-1.01.726-1.89 1.657-2.65 2.794v12.17c.63.979 1.42 1.729 2.36 2.25.95.521 1.99.781 3.13.781ZM1116.44 728.802h-3.74l-.33-3.884c-.95 1.547-2.04 2.676-3.27 3.386-1.23.711-2.73 1.066-4.5 1.066-2.18 0-3.88-.663-5.11-1.989-1.23-1.326-1.85-3.204-1.85-5.635v-17.901h4.36v17.427c0 1.705.3 2.912.9 3.623.6.71 1.58 1.065 2.93 1.065 2.43 0 4.52-1.436 6.25-4.309v-17.806h4.36v24.957ZM1136.28 703.277c.88 0 1.7.095 2.46.284l-.8 4.262c-.76-.189-1.49-.284-2.18-.284-1.55 0-2.8.568-3.74 1.705-.95 1.136-1.69 2.904-2.23 5.304v14.254h-4.35v-24.957h3.74l.42 5.067c.67-1.862 1.57-3.267 2.7-4.214 1.14-.948 2.46-1.421 3.98-1.421ZM1176.39 704.982c-.95.315-1.99.521-3.13.615-1.14.095-2.52.142-4.17.142 2.94 1.326 4.41 3.426 4.41 6.299 0 2.494-.86 4.53-2.56 6.109-1.7 1.578-4.03 2.367-6.96 2.367-1.14 0-2.19-.157-3.17-.473-.38.252-.68.592-.9 1.018-.22.426-.33.86-.33 1.302 0 1.358 1.08 2.037 3.26 2.037h3.98c1.67 0 3.16.299 4.45.899 1.3.6 2.3 1.421 3.01 2.463s1.06 2.226 1.06 3.551c0 2.431-.99 4.302-2.98 5.612-1.99 1.31-4.89 1.965-8.71 1.965-2.69 0-4.81-.276-6.37-.828-1.56-.553-2.68-1.382-3.34-2.487-.66-1.104-.99-2.525-.99-4.262h3.93c0 1.011.19 1.808.56 2.392.38.584 1.06 1.026 2.04 1.326.98.3 2.37.45 4.17.45 2.62 0 4.49-.324 5.61-.971s1.68-1.618 1.68-2.912c0-1.169-.44-2.052-1.33-2.652-.88-.6-2.11-.9-3.69-.9h-3.93c-2.11 0-3.72-.45-4.81-1.35-1.08-.899-1.63-2.028-1.63-3.386 0-.82.24-1.61.71-2.367.48-.758 1.15-1.437 2.04-2.037-1.45-.757-2.52-1.697-3.2-2.817-.68-1.121-1.02-2.487-1.02-4.097 0-1.673.42-3.172 1.26-4.498.83-1.326 1.99-2.36 3.46-3.102 1.46-.742 3.1-1.113 4.9-1.113 1.95.031 3.59-.04 4.92-.213 1.33-.174 2.42-.411 3.29-.711.87-.299 1.93-.734 3.2-1.302l1.28 3.931Zm-12.69 1.42c-1.65 0-2.92.513-3.82 1.539-.9 1.026-1.35 2.376-1.35 4.049 0 1.705.46 3.071 1.38 4.097.91 1.026 2.21 1.539 3.88 1.539 1.71 0 3.01-.498 3.91-1.492.9-.995 1.35-2.391 1.35-4.191 0-3.694-1.79-5.541-5.35-5.541ZM1199.44 728.802h-3.74l-.33-3.884c-.94 1.547-2.03 2.676-3.26 3.386-1.23.711-2.73 1.066-4.5 1.066-2.18 0-3.88-.663-5.12-1.989-1.23-1.326-1.84-3.204-1.84-5.635v-17.901h4.35v17.427c0 1.705.3 2.912.9 3.623.6.71 1.58 1.065 2.94 1.065 2.43 0 4.51-1.436 6.25-4.309v-17.806h4.35v24.957Zm-14.34-36.37c.76 0 1.4.261 1.92.782s.78 1.16.78 1.918c0 .757-.26 1.397-.78 1.918-.52.521-1.16.781-1.92.781-.79 0-1.45-.26-1.97-.781s-.78-1.161-.78-1.918c0-.758.26-1.397.78-1.918.52-.521 1.18-.782 1.97-.782Zm9.89 0c.79 0 1.45.261 1.97.782s.78 1.16.78 1.918c0 .757-.26 1.397-.78 1.918-.52.521-1.18.781-1.97.781-.75 0-1.39-.26-1.91-.781s-.78-1.161-.78-1.918c0-.758.26-1.397.78-1.918.52-.521 1.16-.782 1.91-.782ZM1223.07 703.845v3.315l-13.02 17.995h13.17l-.53 3.647h-17.56v-3.268l12.97-17.995h-11.88v-3.694h16.85ZM1247.98 715.589c0 .726-.03 1.468-.1 2.226h-15.9c.18 2.747.88 4.767 2.08 6.062 1.2 1.294 2.75 1.941 4.64 1.941 1.2 0 2.3-.173 3.31-.521 1.01-.347 2.07-.899 3.18-1.657l1.89 2.604c-2.65 2.084-5.55 3.126-8.71 3.126-3.47 0-6.18-1.137-8.12-3.41-1.94-2.273-2.91-5.398-2.91-9.376 0-2.589.41-4.886 1.25-6.89.84-2.005 2.04-3.576 3.6-4.712 1.56-1.137 3.4-1.705 5.51-1.705 3.32 0 5.86 1.089 7.63 3.267 1.77 2.179 2.65 5.194 2.65 9.045Zm-4.31-1.278c0-2.463-.49-4.341-1.47-5.636-.97-1.294-2.44-1.941-4.4-1.941-3.57 0-5.51 2.62-5.82 7.861h11.69v-.284ZM1265.78 703.277c.89 0 1.71.095 2.47.284l-.81 4.262c-.76-.189-1.48-.284-2.18-.284-1.54 0-2.79.568-3.74 1.705-.94 1.136-1.69 2.904-2.22 5.304v14.254h-4.36v-24.957h3.74l.43 5.067c.66-1.862 1.56-3.267 2.7-4.214 1.13-.948 2.46-1.421 3.97-1.421ZM1293.34 704.982c-.95.315-1.99.521-3.12.615-1.14.095-2.53.142-4.17.142 2.94 1.326 4.4 3.426 4.4 6.299 0 2.494-.85 4.53-2.55 6.109-1.71 1.578-4.03 2.367-6.96 2.367-1.14 0-2.2-.157-3.18-.473-.38.252-.67.592-.9 1.018-.22.426-.33.86-.33 1.302 0 1.358 1.09 2.037 3.27 2.037h3.98c1.67 0 3.15.299 4.45.899 1.29.6 2.3 1.421 3.01 2.463.7 1.042 1.06 2.226 1.06 3.551 0 2.431-.99 4.302-2.98 5.612-1.99 1.31-4.9 1.965-8.71 1.965-2.69 0-4.81-.276-6.37-.828-1.57-.553-2.68-1.382-3.34-2.487-.66-1.104-1-2.525-1-4.262h3.93c0 1.011.19 1.808.57 2.392.38.584 1.06 1.026 2.04 1.326.98.3 2.37.45 4.17.45 2.62 0 4.49-.324 5.61-.971s1.68-1.618 1.68-2.912c0-1.169-.45-2.052-1.33-2.652-.88-.6-2.11-.9-3.69-.9h-3.93c-2.12 0-3.72-.45-4.81-1.35-1.09-.899-1.63-2.028-1.63-3.386 0-.82.24-1.61.71-2.367.47-.758 1.15-1.437 2.03-2.037-1.45-.757-2.51-1.697-3.19-2.817-.68-1.121-1.02-2.487-1.02-4.097 0-1.673.42-3.172 1.26-4.498.83-1.326 1.98-2.36 3.45-3.102 1.47-.742 3.1-1.113 4.9-1.113 1.96.031 3.6-.04 4.93-.213 1.32-.174 2.42-.411 3.29-.711.87-.299 1.93-.734 3.19-1.302l1.28 3.931Zm-12.69 1.42c-1.64 0-2.91.513-3.81 1.539-.9 1.026-1.35 2.376-1.35 4.049 0 1.705.46 3.071 1.37 4.097.92 1.026 2.21 1.539 3.89 1.539 1.7 0 3-.498 3.9-1.492.9-.995 1.35-2.391 1.35-4.191 0-3.694-1.78-5.541-5.35-5.541ZM1314.65 722.977c0 1.01.17 1.76.52 2.249.35.49.87.861 1.56 1.113l-.99 3.031c-1.3-.158-2.34-.521-3.13-1.089-.78-.569-1.37-1.453-1.75-2.652-1.67 2.494-4.15 3.741-7.43 3.741-2.46 0-4.41-.695-5.83-2.084-1.42-1.389-2.13-3.204-2.13-5.446 0-2.652.96-4.688 2.87-6.109 1.91-1.42 4.61-2.131 8.12-2.131h3.83v-1.846c0-1.768-.42-3.031-1.27-3.789-.86-.758-2.17-1.136-3.93-1.136-1.84 0-4.08.442-6.73 1.326l-1.09-3.173c3.1-1.137 5.97-1.705 8.62-1.705 2.94 0 5.13.718 6.58 2.155 1.45 1.436 2.18 3.48 2.18 6.132v11.413Zm-10.23 3.125c2.5 0 4.45-1.294 5.87-3.883v-5.73h-3.26c-4.61 0-6.92 1.705-6.92 5.115 0 1.483.37 2.604 1.09 3.362.73.757 1.8 1.136 3.22 1.136ZM1335.34 703.277c2.28 0 4.05.679 5.33 2.036 1.28 1.358 1.92 3.22 1.92 5.588v17.901h-4.36v-17.285c0-1.768-.34-3.015-1.02-3.741-.68-.726-1.66-1.09-2.96-1.09-1.29 0-2.44.379-3.45 1.137-1.01.758-1.96 1.831-2.84 3.22v17.759h-4.36v-34.949l4.36-.473v13.922c1.95-2.683 4.42-4.025 7.38-4.025ZM1356.32 729.37c-1.61 0-2.88-.482-3.81-1.444-.93-.963-1.4-2.313-1.4-4.049v-30.071l4.36-.521v30.497c0 .694.12 1.2.35 1.515.24.316.64.474 1.21.474.6 0 1.14-.095 1.61-.284l1.14 3.03c-1.05.569-2.2.853-3.46.853ZM1382.03 722.977c0 1.01.17 1.76.52 2.249.35.49.87.861 1.56 1.113l-.99 3.031c-1.29-.158-2.34-.521-3.13-1.089-.79-.569-1.37-1.453-1.75-2.652-1.67 2.494-4.15 3.741-7.43 3.741-2.46 0-4.41-.695-5.83-2.084-1.42-1.389-2.13-3.204-2.13-5.446 0-2.652.96-4.688 2.87-6.109 1.91-1.42 4.62-2.131 8.12-2.131h3.83v-1.846c0-1.768-.42-3.031-1.27-3.789-.86-.758-2.17-1.136-3.93-1.136-1.84 0-4.08.442-6.73 1.326l-1.09-3.173c3.1-1.137 5.97-1.705 8.62-1.705 2.94 0 5.13.718 6.58 2.155 1.45 1.436 2.18 3.48 2.18 6.132v11.413Zm-10.23 3.125c2.5 0 4.45-1.294 5.87-3.883v-5.73h-3.26c-4.61 0-6.92 1.705-6.92 5.115 0 1.483.37 2.604 1.09 3.362.73.757 1.8 1.136 3.22 1.136ZM1401.82 703.277c.89 0 1.71.095 2.47.284l-.81 4.262c-.76-.189-1.48-.284-2.18-.284-1.54 0-2.79.568-3.74 1.705-.94 1.136-1.69 2.904-2.22 5.304v14.254h-4.36v-24.957h3.74l.43 5.067c.66-1.862 1.56-3.267 2.7-4.214 1.13-.948 2.46-1.421 3.97-1.421ZM1409.26 703.845h4.356v24.956h-4.356z" style="fill-rule:nonzero"/></g></svg>