<svg width="28" height="28" fill="none" xmlns="http://www.w3.org/2000/svg"><path d="M25.6 20.0166c-2.2008 3.7426-6.4955 6.2835-11.433 6.2835-6.63365 0-12.1068-4.5864-12.90097-10.5114l9.83737-1.1351c.247 3.005 2.5696 5.7826 5.9638 6.7514 2.9606.845 5.9551.0908 7.8637-1.7229l.6691.3345ZM1.16701 14.2827c-.00001.0058-.00002.0116-.00002.0174s.00001.0116.00002.0174v-.0348Z" fill="#005CFF"/><path d="M2.40002 7.98345c2.20081-3.74257 6.49544-6.2835 11.43298-6.2835 6.6336 0 12.1068 4.58642 12.901 10.51145l-9.8374 1.1351c-.247-3.005-2.5696-5.78263-5.9638-6.7514-2.96058-.84501-5.95514-.09085-7.86374 1.72287l-.66904-.33452ZM26.833 13.7173V13.6826v.0347Z" fill="#FF0000"/></svg>