<!DOCTYPE svg PUBLIC "-//W3C//DTD SVG 1.1//EN" "http://www.w3.org/Graphics/SVG/1.1/DTD/svg11.dtd"><svg viewBox="0 0 5209 5209" xmlns="http://www.w3.org/2000/svg" xml:space="preserve" style="fill-rule:evenodd;clip-rule:evenodd;stroke-linejoin:round;stroke-miterlimit:2"><path style="fill:none" d="M0 0h5208.66v5208.66H0z"/><path d="m3299.63 3332.25-476.11 274.85c-35.44 20.46-67.59 20-90.66 6.68-23.08-13.33-39.56-40.94-39.56-81.86v-94.24c0-40.96 16.47-68.57 39.54-81.88 23.06-13.32 55.21-13.78 90.68 6.7l112.61 65.02c35.96 20.76 63.26 20.76 99.22 0l264.28-152.56v57.29Zm59.53-91.65 94.67-54.65c36.47-21.06 63.59-30.67 90.4-30.67 26.8 0 53.92 9.61 90.39 30.67l230.66 133.17c36.47 21.06 58.35 39.74 71.76 62.95 13.4 23.21 18.63 51.51 18.63 93.62v182.78c0 13.68-11.11 24.8-24.8 24.8-13.69 0-24.8-11.12-24.8-24.8v-182.78c0-30.82-2.19-51.83-12-68.82-9.8-16.98-26.91-29.38-53.6-44.79l-230.65-133.17c-26.69-15.41-45.98-24.02-65.59-24.02-19.62 0-38.91 8.61-65.6 24.02l-119.47 68.97v-57.28Zm-389.62 239.23c-16.5-2.65-33.41-9.35-52.01-20.09l-112.61-65.02c-21.03-12.14-39.81-14.6-53.48-6.7-13.67 7.89-20.93 25.39-20.93 49.66v94.24c0 24.25 7.27 41.74 20.95 49.64 13.67 7.89 32.45 5.45 53.46-6.68l164.62-95.05Z" style="fill:#ffbd24"/><path d="m3765.23 2641.79-406.09 234.45v-57.27l356.5-205.83c16.89 9.76 34.35 19.85 49.59 28.65Zm-12.39-50.12 560.2-323.43c26.69-15.41 43.79-27.81 53.6-44.8 9.81-16.99 11.99-38 11.99-68.82v-232.38c0-13.68 11.11-24.8 24.8-24.8 13.69 0 24.8 11.12 24.8 24.8v232.38c0 42.12-5.23 70.41-18.63 93.62-13.4 23.22-35.29 41.9-71.76 62.96l-534.85 308.79c-4.08-1.87-8.41-4.21-13.18-6.97-11.21-6.47-23.96-13.84-36.97-21.35Zm-453.22 318.94-545.68 315.05c-26.69 15.41-43.8 27.81-53.61 44.8-9.8 16.98-11.99 38-11.99 68.81v142.32c0 42.12-5.23 70.41-18.64 93.62-11.1 19.23-28.02 35.35-54.23 52.28-1.2 1.06-2.53 2.02-3.97 2.85l-652.33 376.62c-36.47 21.06-63.59 30.67-90.4 30.67-26.8 0-53.92-9.61-90.39-30.67l-974.536-562.64c-11.855-6.85-15.923-22.03-9.078-33.89 6.844-11.85 22.026-15.92 33.882-9.08L1803.18 3964c26.69 15.41 45.98 24.03 65.59 24.03 19.62 0 38.91-8.62 65.6-24.03l638.77-368.8c26.69-15.4 43.8-27.8 53.6-44.79 9.81-16.99 12-38 12-68.82v-142.32c0-42.11 5.23-70.4 18.63-93.62 13.41-23.21 35.29-41.89 71.76-62.95l570.49-329.37v57.28Z" style="fill:red"/><path d="M3354.23 4369.4v256.39c0 13.69-11.12 24.8-24.81 24.8-13.68 0-24.8-11.11-24.8-24.8V4369.4c5.34 8.03 14.46 13.32 24.81 13.32 10.34 0 19.46-5.3 24.8-13.32Z" style="fill:#93a2e1"/><path d="M3688.41 2554.44c67.04-38.7 109.1-62.98 109.1-62.98 26.69-15.41 43.8-27.8 53.6-44.79 9.81-16.99 12-38 12-68.82v-464.76c0-30.81-2.19-51.83-12-68.81-9.8-16.99-26.91-29.39-53.6-44.8l-359.53-207.58c-26.69-15.4-45.98-24.02-65.59-24.02-19.62 0-38.91 8.62-65.6 24.02l-445.45 257.19c-36.47 21.05-63.6 30.67-90.4 30.67-26.8 0-53.93-9.62-90.4-30.67L1139.6 959.424c-36.47-21.057-58.36-39.737-71.76-62.951-13.4-23.214-18.64-51.507-18.64-93.62V272.835c0-13.69 11.12-24.804 24.81-24.804s24.8 11.114 24.8 24.804v530.018c0 30.817 2.19 51.83 11.99 68.817 9.81 16.988 26.91 29.385 53.6 44.793l1540.95 889.667c26.69 15.41 45.98 24.02 65.59 24.02 19.62 0 38.91-8.61 65.59-24.02l445.46-257.19c36.47-21.05 63.59-30.67 90.4-30.67 26.8 0 53.92 9.62 90.39 30.67l359.54 207.58c36.47 21.06 58.35 39.74 71.75 62.95 13.41 23.21 18.64 51.51 18.64 93.62v464.76c0 42.12-5.23 70.41-18.64 93.62-13.4 23.22-35.28 41.9-71.75 62.95 0 0-60.46 34.9-84.33 48.67-18.08-10.45-35.74-20.65-49.58-28.65Zm12.38 50.13c-11.4 6.58-23.66 13.66-36.76 21.22-80.9 46.71-143.45 69.25-205.72 69.25-38.38 0-76.86-8.56-119.67-26.06 11.37 31.06 15.54 69.14 15.54 121.35 0 375.1.05 1562.62.05 1562.62 0 13.69-11.11 24.81-24.8 24.81-13.69 0-24.81-11.12-24.81-24.81 0 0-.05-1187.52-.05-1562.62 0-56.07-3.86-92.84-20.92-122.41-17.04-29.54-46.89-51.26-95.36-79.24l-.13-.08c-50.3-29.04-89.51-51.67-107.41-62h-.01c-11.85-6.84-15.92-22.02-9.08-33.88 6.84-11.86 22.02-15.93 33.88-9.08 18.07 10.42 57.24 33.03 107.42 62l.1.06c19.61 11.31 41.24 23.8 64.33 37.13 71.34 41.19 125.99 62.6 180.92 62.6 54.92 0 109.57-21.41 180.91-62.6 4.08-2.35 8.08-4.66 11.99-6.92 10.4 6.01 28.85 16.67 49.58 28.66Z" style="fill:#005bff"/><path d="M1746.49 3894.09v-108.36c0-39.85 4.63-66.69 17.31-88.66s33.61-39.39 68.13-59.32l982.46-567.22c28.64-16.54 46.7-30.19 57.23-48.43 10.52-18.23 13.32-40.7 13.32-73.77v-315.95c0-39.85 4.62-66.69 17.31-88.66 12.68-21.96 33.61-39.39 68.13-59.31l330.12-190.61c19.45-11.22 35-16.38 50.41-16.38 15.4 0 30.95 5.16 50.4 16.38l193.32 111.62c19.44 11.22 31.69 22.11 39.39 35.45 7.7 13.35 11.01 29.4 11.01 51.85 0 15.93 1.55 27.49 7.02 36.96 4.96 8.58 13.01 15.24 24.76 22.35 26.25 15.17 76.16 44.02 111.14 64.22 14.11 8.15 24.73 12.72 35.52 12.72 10.79 0 21.4-4.57 35.52-12.72 24.6-14.21 42.94-24.84 42.94-24.84 7.11-4.11 16.22-1.69 20.34 5.42 4.12 7.11 1.69 16.22-5.42 20.34 0 0-18.36 10.63-42.98 24.85-19.87 11.47-35.22 16.71-50.4 16.71-15.19 0-30.54-5.24-50.4-16.71-12.79-7.38-472.57-272.83-472.57-272.83-13.8-7.97-24.58-12.4-35.52-12.4-10.93 0-21.72 4.43-35.51 12.4l-244.21 140.99c-28.65 16.54-46.71 30.19-57.24 48.43-10.52 18.23-13.32 40.7-13.32 73.77v315.95c0 39.85-4.62 66.69-17.31 88.66-12.68 21.96-33.61 39.39-68.12 59.31l-982.46 567.23c-28.65 16.54-46.71 30.19-57.23 48.42-10.53 18.23-13.32 40.71-13.32 73.78v108.36c0 8.22-6.67 14.89-14.89 14.89-8.21 0-14.88-6.67-14.88-14.89Zm1882.42-1361.08c-4.38-10.81-6.2-23.67-6.2-40.29 0-17.57-2-30.25-8.02-40.68-6.03-10.44-16.01-18.51-31.22-27.29l-193.33-111.61c-15.21-8.78-27.18-13.4-39.23-13.4-12.06 0-24.03 4.62-39.25 13.4l-38 21.94c11.55 1.61 23.61 6.46 38 14.78l317.25 183.15Z" style="fill:#b6cb04"/><path d="M826.167 1654.36v-536.07c0-24.04 5.361-40.28 15.858-50.78 10.496-10.49 26.738-15.86 50.778-15.86h172.077c37.56 0 59.96 6.08 92.23 24.72l419.07 241.95c29.11 16.8 35.71 18.57 69.32 18.57h12.29c34.54 0 38.16.97 68.08 18.24l82.73 47.77c19.65 11.34 28.6 26.92 28.6 41.88 0 14.97-8.95 30.54-28.6 41.89l-350.76 202.51c-32.52 18.78-54.97 24.72-92.23 24.72H885.708c-23.166 0-37.523-4.26-46.404-13.14s-13.137-23.24-13.137-46.4Zm238.713-580.38H892.803c-16.365 0-27.848 2.17-34.993 9.32-7.146 7.14-9.32 18.62-9.32 34.99v536.07c0 15.04.831 24.85 6.598 30.62 5.768 5.76 15.575 6.6 30.62 6.6h479.902c32.75 0 52.48-5.22 81.06-21.73l350.77-202.51c11.05-6.38 17.43-14.15 17.43-22.56 0-8.41-6.38-16.17-17.43-22.55l-82.73-47.77c-25.01-14.44-28.04-15.25-56.92-15.25h-12.29c-39.02 0-46.69-2.05-80.48-21.56l-419.07-241.95c-28.37-16.38-48.06-21.72-81.07-21.72Z" style="fill:#0df"/><path d="M739.343 1056.61h-94.938c-8.214 0-14.882-6.66-14.882-14.88 0-8.21 6.668-14.88 14.882-14.88h420.475c45.06 0 65.62 5.51 104.64 28.04l419.06 241.95c25.01 14.44 28.04 15.25 56.92 15.25h12.29c39.02 0 46.69 2.05 80.48 21.56l82.73 47.77c27.76 16.02 41.08 39.88 41.08 63.36 0 23.49-13.32 47.34-41.08 63.37l-350.76 202.51c-39.02 22.53-59.58 28.04-104.63 28.04H885.708c-29.802 0-50.505-6.84-64.004-20.34-13.499-13.5-20.34-34.2-20.34-64v-535.73c0-22.25-3.721-38.13-13.802-48.21-10.081-10.08-25.962-13.81-48.219-13.81Zm325.537-7.44H797.005c2.27 1.68 4.382 3.5 6.342 5.46 13.499 13.5 20.34 34.2 20.34 64v535.73c0 22.25 3.721 38.14 13.802 48.22 10.081 10.08 25.962 13.8 48.219 13.8h479.902c40.25 0 58.61-4.92 93.47-25.05l350.76-202.51c19.57-11.3 29.92-27.48 29.92-44.04 0-16.55-10.35-32.73-29.92-44.03l-82.73-47.76c-29.1-16.81-35.71-18.58-69.32-18.58h-12.29c-34.54 0-38.16-.97-68.08-18.24l-419.06-241.95c-34.86-20.13-53.23-25.05-93.48-25.05Z" style="fill:#ff5eb3"/><path d="m1590.02 1902.5-237.77-137.27c-7.12-4.11-9.55-13.21-5.44-20.33 4.1-7.12 13.21-9.55 20.32-5.45l32.74 18.9c34.26 19.79 61.02 28.42 87.92 26.68 27.49-1.79 54.82-14.1 89.84-34.32l197.78-114.19c7.12-4.11 16.22-1.66 20.33 5.45 4.11 7.11 1.67 16.22-5.45 20.33l-214.8 124.01c-16.09 9.29-24.79 22.79-24.79 36.72s8.7 27.43 24.79 36.72l29.41 16.98c28.64 16.54 49.5 25.35 70.55 25.35 21.05 0 41.91-8.81 70.56-25.35l166.21-95.97c34.51-19.92 60.07-29.34 85.43-29.34 25.37 0 50.93 9.42 85.44 29.34l595.82 344c28.64 16.54 49.5 25.35 70.55 25.35 21.05 0 41.91-8.81 70.55-25.35l319.39-184.4c7.11-4.11 16.22-1.67 20.33 5.45 4.11 7.11 1.67 16.22-5.45 20.33l-319.38 184.39c-34.52 19.93-60.07 29.35-85.44 29.35-25.37 0-50.92-9.42-85.43-29.35l-595.82-343.99c-28.64-16.54-49.5-25.35-70.56-25.35-21.05 0-41.91 8.81-70.55 25.35l-166.21 95.96c-34.51 19.93-60.07 29.34-85.44 29.34-25.36 0-50.92-9.41-85.43-29.34Zm-48.87-49.69c-6.04-9.33-9.05-19.57-9.05-29.78 0-11.84 4.04-23.73 12.19-34.18-19.59 8.54-37.45 13.58-55.3 14.74-12.98.84-25.96-.35-39.61-3.76l91.77 52.98Z" style="fill:#21ab72"/></svg>