<svg width="32" height="32" viewBox="0 0 32 32" fill="none" xmlns="http://www.w3.org/2000/svg">
<path d="M24 16.7444V22.2601H20.7713V17.0807C20.7713 15.8027 20.3004 14.9283 19.157 14.9283C18.2825 14.9283 17.7444 15.5336 17.5426 16.0718C17.4753 16.2735 17.4081 16.5426 17.4081 16.8789V22.2601H14.1794C14.1794 22.2601 14.2466 13.5157 14.1794 12.6413H17.4081V13.9865C17.8117 13.3139 18.6188 12.3722 20.3004 12.3722C22.3856 12.3722 24 13.7848 24 16.7444ZM10.8161 8C9.73991 8 9 8.73991 9 9.68161C9 10.6233 9.67264 11.3632 10.7489 11.3632C11.8924 11.3632 12.565 10.6233 12.565 9.68161C12.6323 8.67265 11.9596 8 10.8161 8ZM9.20179 22.2601H12.4305V12.6413H9.20179V22.2601Z" fill="white"/>
</svg>
