<!DOCTYPE svg PUBLIC "-//W3C//DTD SVG 1.1//EN" "http://www.w3.org/Graphics/SVG/1.1/DTD/svg11.dtd"><svg viewBox="0 0 4422 4961" xmlns="http://www.w3.org/2000/svg" xml:space="preserve" style="fill-rule:evenodd;clip-rule:evenodd;stroke-linejoin:round;stroke-miterlimit:2"><path style="fill:#fcfbf9" d="M0 0h4421.89v4960.63H0z"/><clipPath id="a"><path d="M0 0h4421.89v4960.63H0z"/></clipPath><g clip-path="url(#a)"><path d="m3149.05 2301.35-37.71-21.77c-67.06-38.72-128.01-38.72-195.07 0l-341.37 197.09c-67.06 38.71-97.54 91.5-97.54 168.93v429.06c0 72.95-4.15 80.15-67.33 116.62l-961.54 555.15c-63.18 36.48-71.48 36.48-134.66 0l-674.784-389.58c-67.06-38.72-128.013-38.72-195.073 0l-174.198 100.57c-66.858 38.6-91.121 45.1-168.323 45.1H-1021.17l-69.97-1535.11h2172.18c77.2 0 101.47 6.5 168.32 45.11l57.58 33.24c67.06 38.72 128.02 38.72 195.08 0l208.31-120.27c63.18-36.47 71.48-36.47 134.66 0l488.19 281.86c67.06 38.72 128.01 38.72 195.07 0l768.08-443.45c63.18-36.48 71.48-36.48 134.66 0l98.57 56.91c63.18 36.48 67.33 43.67 67.33 116.62v356.21c0 72.95-4.15 80.15-67.33 116.62l-28.6 16.52c-63.18 36.47-71.48 36.47-134.66 0l-30.66-17.71 86.16-149.24-46.64-26.94-86.17 149.25-46.65-26.93 86.17-149.25-93.29-53.86-86.17 149.25Z" style="fill:#e3f5fc"/><path d="m2932.02 3455.09 23.62 40.91-446.16 257.6c-37.2 21.47-70.92 21.23-95.14 7.24-24.21-13.98-41.29-43.06-41.29-86.01v-102.32c0-42.99 17.07-72.08 41.27-86.05 24.2-13.98 57.93-14.21 95.16 7.28l122.28 70.6c40.23 23.23 70.8 23.23 111.03 0l189.23-109.25ZM2754.6 3584.8c-48.79 28.17-85.86 28.17-134.65 0l-122.28-70.6c-56.1-32.39-101-6.47-101 58.31v102.32c0 64.72 44.95 90.67 101 58.31l256.93-148.34Z" style="fill:#ffbd24"/><path d="M2943.83 3475.54s-129.2 74.6-189.23 109.26c-48.79 28.17-85.86 28.17-134.65 0-36.3-20.96-81.83-47.24-122.28-70.6-56.1-32.39-101-6.47-101 58.31v102.32c0 64.72 44.95 90.67 101 58.31 145.13-83.79 446.16-257.6 446.16-257.6Z" style="fill:none;stroke:#ffbd24;stroke-width:23.62px"/><path d="M3713.51 3812.24v-188.53M3620.22 3462.12l-233.24-134.66M3200.39 3327.46l-307.32 177.39M2933.37 3481.58l-80.61 46.55" style="fill:none;stroke:#ffbd24;stroke-width:47.24px;stroke-linecap:round"/><path d="M3713.51 3650.64v-36.86c0-79.19-16.11-107.1-84.69-146.69-8.4-4.85-31.93-18.43-31.93-18.43M3410.31 3340.93s-23.28-13.44-31.93-18.44c-68.58-39.59-100.81-39.59-169.38 0-8.4 4.85-31.93 18.44-31.93 18.44" style="fill:none;stroke:#ffbd24;stroke-width:47.24px"/><path d="m331.598 3556.38 1049.562 605.97" style="fill:none;stroke:red;stroke-width:47.24px;stroke-linecap:round"/><path d="M1357.83 4148.88s23.28 13.44 31.93 18.44c68.58 39.59 100.81 39.59 169.38 0 8.4-4.85 31.93-18.44 31.93-18.44" style="fill:none;stroke:red;stroke-width:47.24px;stroke-miterlimit:1"/><path d="m1567.75 4162.35 676.38-390.51" style="fill:none;stroke:red;stroke-width:47.24px;stroke-linecap:round;stroke-miterlimit:1"/><path d="M2220.8 3785.3s23.29-13.44 31.94-18.43c68.57-39.59 84.68-67.5 84.68-146.69v-36.86" style="fill:none;stroke:red;stroke-width:47.24px;stroke-miterlimit:1"/><path d="M2337.42 3610.25v-134.66" style="fill:none;stroke:red;stroke-width:47.24px;stroke-linecap:round;stroke-miterlimit:1"/><path d="M2454.04 3300.53s-23.28 13.44-31.93 18.44c-68.57 39.59-84.69 67.5-84.69 146.68v36.87" style="fill:none;stroke:red;stroke-width:47.24px;stroke-miterlimit:1"/><path d="m2920.51 3031.22 513.12-296.25" style="fill:none;stroke:#fff;stroke-width:56.69px;stroke-miterlimit:1"/><path d="m2430.72 3314 1702.62-983.01" style="fill:none;stroke:red;stroke-width:47.24px;stroke-linecap:round;stroke-miterlimit:1"/><path d="M4110.01 2344.46s23.28-13.44 31.93-18.44c68.58-39.59 84.69-67.5 84.69-146.68v-36.87" style="fill:none;stroke:red;stroke-width:47.24px;stroke-miterlimit:1"/><path d="M4226.63 2169.4v-242.38" style="fill:none;stroke:red;stroke-width:47.24px;stroke-linecap:round;stroke-miterlimit:1"/><path d="M3060.45 4862.57v-296.25" style="fill:none;stroke:#93a2e1;stroke-width:47.24px;stroke-linecap:round;stroke-miterlimit:1"/><path d="m3060.45 4566.32-.05-1696.61" style="fill:none;stroke:#fff;stroke-width:56.69px;stroke-linecap:round"/><path d="M2803.89 2559.91s78.57 45.34 186.59 107.71c165.31 95.43 254.52 95.44 419.83 0 108.02-62.37 163.26-94.24 163.26-94.24" style="fill:none;stroke:#fff;stroke-width:56.69px;stroke-miterlimit:1"/><path d="M3060.45 4566.32s-.05-1289.43-.05-1696.72c0-134.29-23.57-175.24-139.87-242.37-71.78-41.43-116.64-67.32-116.64-67.32" style="fill:none;stroke:#005bff;stroke-width:47.24px;stroke-linecap:round;stroke-miterlimit:1"/><path d="M2803.89 2559.91s78.57 45.34 186.59 107.71c165.31 95.43 254.52 95.44 419.83 0 108.02-62.37 163.26-94.24 163.26-94.24" style="fill:none;stroke:#005bff;stroke-width:47.24px;stroke-linecap:round;stroke-miterlimit:1"/><path d="M3550.25 2586.84s23.28-13.44 31.93-18.43c68.57-39.59 84.68-67.5 84.68-146.69v-36.87" style="fill:none;stroke:#005bff;stroke-width:47.24px;stroke-miterlimit:1"/><path d="M3666.86 2411.79v-484.77" style="fill:none;stroke:#005bff;stroke-width:47.24px;stroke-linecap:round;stroke-miterlimit:1"/><path d="M3666.86 1953.95v-36.87c0-79.19-16.11-107.09-84.68-146.69-8.4-4.84-31.93-18.43-31.93-18.43" style="fill:none;stroke:#005bff;stroke-width:47.24px;stroke-miterlimit:1"/><path d="m3573.57 1765.42-373.18-215.45" style="fill:none;stroke:#005bff;stroke-width:47.24px;stroke-linecap:round;stroke-miterlimit:1"/><path d="M3223.72 1563.44s-23.28-13.44-31.93-18.44c-68.58-39.59-100.8-39.59-169.38 0-8.4 4.85-31.93 18.44-31.93 18.44" style="fill:none;stroke:#005bff;stroke-width:47.24px;stroke-miterlimit:1"/><path d="m3013.8 1549.97-466.47 269.32" style="fill:none;stroke:#005bff;stroke-width:47.24px;stroke-linecap:round;stroke-miterlimit:1"/><path d="M2337.42 1805.82s23.28 13.44 31.93 18.44c68.58 39.59 100.8 39.59 169.38 0 8.4-4.85 31.93-18.44 31.93-18.44" style="fill:none;stroke:#005bff;stroke-width:47.24px;stroke-miterlimit:1"/><path d="M2360.75 1819.29 704.774 863.213" style="fill:none;stroke:#005bff;stroke-width:47.24px;stroke-linecap:round;stroke-miterlimit:1"/><path d="M611.48 674.691v36.869c0 79.183 16.114 107.092 84.688 146.684 8.399 4.849 31.93 18.435 31.93 18.435" style="fill:none;stroke:#005bff;stroke-width:47.24px;stroke-miterlimit:1"/><path d="M611.48 459.237V216.852" style="fill:none;stroke:#fff;stroke-width:56.69px;stroke-linecap:round;stroke-miterlimit:1"/><path d="M611.48 701.623V136.057" style="fill:none;stroke:#005bff;stroke-width:47.24px;stroke-linecap:round;stroke-miterlimit:1"/><path d="M3410.32 2613.72s86.19 49.82 139.93 80.85c36.89 21.3 56.39 21.3 93.29 0 26.73-15.43 46.65-26.98 46.65-26.98" style="fill:none;stroke:#fff;stroke-width:35.43px;stroke-linecap:round;stroke-miterlimit:1"/><path d="M1357.83 4068.09v-107.73" style="fill:none;stroke:#b6cb04;stroke-width:28.35px;stroke-linecap:round;stroke-miterlimit:1"/><path d="m1451.13 3798.77 1049.56-605.96M2593.98 3031.22v-323.19M2687.28 2546.45l233.23-134.66" style="fill:none;stroke:#b6cb04;stroke-width:28.35px;stroke-miterlimit:1"/><path d="m2857.63 2464.46-14.18-24.55 93.3-53.86 93.29-53.87c20.74-11.97 37.31-17.52 53.74-17.52 16.42 0 33 5.55 53.73 17.52l209.91 121.2c20.74 11.97 33.83 23.54 42.05 37.77 8.21 14.22 11.69 31.35 11.69 55.3 0 17.73 1.8 30.58 7.89 41.12 6.08 10.54 16.3 18.53 31.67 27.4l69.97 40.39c6.78 3.92 9.1 12.59 5.18 19.36-3.91 6.78-12.58 9.11-19.36 5.19l-69.97-40.4-396.5-228.92c-15.36-8.86-27.39-13.72-39.56-13.72-12.17 0-24.2 4.86-39.56 13.72l-93.29 53.87Zm576 162.78c-36.09-20.84-46.65-39.12-46.65-80.79 0-41.68-10.55-59.96-46.64-80.8l-209.92-121.19c-36.09-20.84-57.2-20.84-93.29 0l-93.3 53.86c36.1-20.84 57.21-20.84 93.3 0l396.5 228.92Z" style="fill:#b6cb04"/><path d="M3503.6 2667.64s-430.38-248.48-466.47-269.32c-36.09-20.84-57.2-20.84-93.3 0-41.33 23.86-93.29 53.86-93.29 53.86s119.82-69.18 186.59-107.72c36.09-20.84 57.2-20.84 93.29 0 36.1 20.84 173.82 100.35 209.92 121.19 36.09 20.84 46.64 39.12 46.64 80.8 0 41.67 10.56 59.95 46.65 80.79 36.09 20.84 69.97 40.4 69.97 40.4Z" style="fill:none;stroke:#b6cb04;stroke-width:14.17px;stroke-linecap:round;stroke-miterlimit:1"/><path d="M3410.31 2613.77s86.2 49.77 139.94 80.8c36.89 21.3 56.39 21.3 93.29 0 26.73-15.43 46.65-26.98 46.65-26.98" style="fill:none;stroke:#b6cb04;stroke-width:28.35px;stroke-linecap:round;stroke-miterlimit:1"/><path d="M1474.45 3785.3s-23.28 13.44-31.93 18.44c-68.57 39.59-84.69 67.5-84.69 146.68v36.87M2477.36 3206.27s23.28-13.44 31.93-18.43c68.58-39.6 84.69-67.5 84.69-146.69v-36.87M2710.6 2532.98s-23.28 13.44-31.93 18.43c-68.57 39.6-84.69 67.5-84.69 146.69v36.87" style="fill:none;stroke:#b6cb04;stroke-width:28.35px;stroke-miterlimit:1"/><path d="m2862.2 1960.68-338.19 195.25M2337.42 2155.93l-629.73-363.57M1521.1 1792.36l-163.27 94.26M921.683 1742.53l21.941 12.67" style="fill:none;stroke:#21ab72;stroke-width:28.35px;stroke-linecap:round;stroke-miterlimit:1"/><path d="M1731.01 1805.82s-23.28-13.44-31.93-18.43c-68.57-39.59-100.8-39.59-169.38 0-8.39 4.85-31.92 18.43-31.92 18.43M2314.1 2142.47s23.28 13.44 31.93 18.43c68.57 39.59 100.8 39.59 169.37 0 8.4-4.85 31.93-18.43 31.93-18.43" style="fill:none;stroke:#21ab72;stroke-width:28.35px;stroke-miterlimit:1"/><path d="m1159.58 1758.69 221.58-127.92" style="fill:none;stroke:#21ab72;stroke-width:28.35px;stroke-linecap:round;stroke-miterlimit:1"/><path d="M1147.92 1873.15s23.28 13.44 31.93 18.44c68.58 39.59 100.8 39.59 169.38 0 8.4-4.85 31.93-18.44 31.93-18.44" style="fill:none;stroke:#21ab72;stroke-width:28.35px;stroke-miterlimit:1"/><path d="m1164.16 1739.68 14.17 24.55-23.32 13.47c-18.19 10.5-27.91 25.84-27.91 41.59 0 15.75 9.72 31.09 27.91 41.59l23.32 13.46c6.78 3.92 9.1 12.58 5.19 19.36-3.91 6.78-12.58 9.11-19.36 5.19l-235.569-136 14.173-24.55 21.547 12.44c37.639 21.73 67.039 31.14 96.589 29.22 30.11-1.95 60.06-15.38 98.42-37.52l4.84-2.8Zm-16.24 133.47c-46.66-26.94-46.66-80.79 0-107.73l18.49-10.67c-81.4 47-127.79 55.3-209.186 8.3l190.696 110.1Z" style="fill:#21ab72"/><path d="m1171.25 1886.62-235.573-136.01s4.399 2.54 21.547 12.44c81.396 47 127.786 38.7 209.186-8.3 2.82-1.63 4.84-2.79 4.84-2.79s-3.33 1.92-23.33 13.46c-46.66 26.94-46.66 80.79 0 107.73 10.71 6.18 23.33 13.47 23.33 13.47Z" style="fill:none;stroke:#21ab72;stroke-width:7.09px;stroke-linecap:square;stroke-linejoin:miter;stroke-miterlimit:1"/><path d="M327.558 1577.15v58.99c0 56.52 22.942 79.46 79.462 79.46h54.779M327.558 1113.43v-58.99c0-56.518-22.942-79.461-79.463-79.461h-54.778M214.98 966.9h326.53M448.215 1715.6h412.827M1404.48 1473.84l-310.83 179.46M1151.53 1251.14l-396.069-228.67M327.558 1081v533.97" style="fill:none;stroke:#ff5eb3;stroke-width:21.26px;stroke-miterlimit:1"/><path d="M145.009 970.94h139.942" style="fill:none;stroke:#ff5eb3;stroke-width:28.35px;stroke-linecap:round;stroke-miterlimit:1"/><path d="M448.215 993.832h93.295M751.853 1051.49l384.627 222.06M1381.16 1456.21l-303.21 175.06M448.215 1688.67h419.824M354.49 1604.08v-511.7M518.186 993.832h83.387c38.307 0 61.162 6.198 94.086 25.208 32.924 19.01 67.64 39.05 67.64 39.05" style="fill:none;stroke:#0df;stroke-width:21.26px;stroke-miterlimit:1"/><path d="M518.186 966.9h83.387c46.312 0 67.444 5.662 107.552 28.818 32.924 19.012 67.64 39.052 67.64 39.052" style="fill:none;stroke:#ff5eb3;stroke-width:21.26px;stroke-miterlimit:1"/><path d="M1094.4 1621.77s-37.89 21.87-72.21 41.69c-33.177 19.15-56.071 25.21-94.088 25.21h-78.104" style="fill:none;stroke:#0df;stroke-width:21.26px;stroke-miterlimit:1"/><path d="M1107.87 1645.09s-37.89 21.88-72.22 41.69c-40.104 23.16-61.235 28.82-107.548 28.82h-78.104M1138.06 1243.37s20.28 11.7 26.09 15.06c29.83 17.22 33.44 18.19 67.87 18.19h13.34c39.43 0 47.18 2.07 81.33 21.79 18.46 10.66 26.09 15.06 26.09 15.06" style="fill:none;stroke:#ff5eb3;stroke-width:21.26px;stroke-miterlimit:1"/><path d="M1339.32 1336.79s-20.28-11.7-26.09-15.06c-29.83-17.22-33.43-18.18-67.87-18.18h-13.34c-39.43 0-47.18-2.08-81.33-21.8-18.46-10.66-26.09-15.06-26.09-15.06M354.49 1577.15v58.99c0 41.47 11.061 52.53 52.53 52.53h54.779" style="fill:none;stroke:#0df;stroke-width:21.26px;stroke-miterlimit:1"/><path d="M1334.94 1334.27s34.74 20.05 68.12 39.33c33.32 19.23 33.32 50.73 0 69.97-18.06 10.42-33.13 19.12-33.13 19.12" style="fill:none;stroke:#0df;stroke-width:21.26px;stroke-miterlimit:1"/><path d="M1348.41 1310.94s34.73 20.06 68.11 39.33c51.39 29.67 51.39 86.95 0 116.62-18.05 10.42-33.13 19.13-33.13 19.13" style="fill:none;stroke:#ff5eb3;stroke-width:21.26px;stroke-miterlimit:1"/><path d="M354.49 1105.35v-51.28c0-43.87 16.372-60.238 60.235-60.238h47.074" style="fill:none;stroke:#0df;stroke-width:21.26px;stroke-miterlimit:1"/><circle cx="2862.2" cy="1960.68" r="8.08" style="fill:#fff"/><circle cx="2663.95" cy="2075.14" r="8.08" style="fill:#fff"/><circle cx="2430.72" cy="2190.61" r="8.08" style="fill:#fff"/><circle cx="2314.1" cy="2142.47" r="8.08" style="fill:#fff"/><circle cx="2197.48" cy="2075.14" r="8.08" style="fill:#fff"/><circle cx="2080.86" cy="2007.81" r="8.08" style="fill:#fff"/><circle cx="1964.25" cy="1940.48" r="8.08" style="fill:#fff"/><circle cx="1847.63" cy="1873.15" r="8.08" style="fill:#fff"/><circle cx="1731.01" cy="1805.82" r="8.08" style="fill:#fff"/><circle cx="1614.39" cy="1757.68" r="8.08" style="fill:#fff"/><circle cx="1439.47" cy="1839.49" r="8.08" style="fill:#fff"/><circle cx="1264.54" cy="1921.28" r="8.08" style="fill:#fff"/><circle cx="1194.57" cy="1738.49" r="8.08" style="fill:#fff"/><circle cx="1381.16" cy="1630.77" r="8.08" style="fill:#fff"/><circle cx="715.033" cy="1715.6" r="8.08" style="fill:#fff"/><circle cx="715.033" cy="1688.67" r="8.08" style="fill:#fff"/><circle cx="457.239" cy="1715.6" r="8.08" style="fill:#fff"/><circle cx="457.239" cy="1688.67" r="8.08" style="fill:#fff"/><circle cx="327.558" cy="1617.3" r="8.08" style="fill:#fff"/><circle cx="354.49" cy="1617.3" r="8.08" style="fill:#fff"/><circle cx="327.558" cy="1455.71" r="8.08" style="fill:#fff"/><circle cx="354.49" cy="1455.71" r="8.08" style="fill:#fff"/><circle cx="327.558" cy="1294.12" r="8.08" style="fill:#fff"/><circle cx="354.49" cy="1294.12" r="8.08" style="fill:#fff"/><circle cx="327.558" cy="1132.53" r="8.08" style="fill:#fff"/><circle cx="354.49" cy="1132.53" r="8.08" style="fill:#fff"/><circle cx="1173.27" cy="1263.69" r="8.08" style="fill:#fff"/><circle cx="1361.87" cy="1318.72" r="8.08" style="fill:#fff"/><circle cx="1334.94" cy="1334.27" r="8.08" style="fill:#fff"/><circle cx="921.683" cy="1715.6" r="8.08" style="fill:#fff"/><circle cx="921.683" cy="1688.67" r="8.08" style="fill:#fff"/><circle cx="921.683" cy="1742.53" r="8.08" style="fill:#fff"/><circle cx="1159.8" cy="1287.01" r="8.08" style="fill:#fff"/><circle cx="1050.82" cy="1192.99" r="8.08" style="fill:#fff"/><circle cx="1037.35" cy="1216.32" r="8.08" style="fill:#fff"/><circle cx="928.368" cy="1122.3" r="8.08" style="fill:#fff"/><circle cx="914.902" cy="1145.62" r="8.08" style="fill:#fff"/><circle cx="805.919" cy="1051.6" r="8.08" style="fill:#fff"/><circle cx="792.453" cy="1074.93" r="8.08" style="fill:#fff"/><circle cx="682.9" cy="981.896" r="8.08" style="fill:#fff"/><circle cx="669.172" cy="1005.67" r="8.08" style="fill:#fff"/><circle cx="145.009" cy="970.94" r="8.08" style="fill:#fff"/><circle cx="1357.83" cy="4068.09" r="8.08" style="fill:#fff"/><circle cx="1387.76" cy="3844.25" r="8.08" style="fill:#fff"/><circle cx="2593.98" cy="2815.74" r="8.08" style="fill:#fff"/><circle cx="3269.5" cy="2420.03" r="8.08" style="fill:#fff"/><circle cx="3344.43" cy="2580.35" r="8.08" style="fill:#fff"/><circle cx="3690.19" cy="2667.64" r="8.08" style="fill:#fff"/><circle cx="3129.37" cy="2456.19" r="8.08" style="fill:#fff"/><circle cx="2593.98" cy="2950.38" r="8.08" style="fill:#fff"/><circle cx="1357.83" cy="4068.09" r="8.08" style="fill:#fff"/><circle cx="1567.71" cy="3731.42" r="8.08" style="fill:#fff"/><circle cx="1684.33" cy="3664.08" r="8.08" style="fill:#fff"/><circle cx="1800.95" cy="3596.75" r="8.08" style="fill:#fff"/><circle cx="1917.58" cy="3529.42" r="8.08" style="fill:#fff"/><circle cx="2034.2" cy="3462.09" r="8.08" style="fill:#fff"/><circle cx="2150.83" cy="3394.75" r="8.08" style="fill:#fff"/><circle cx="2407.39" cy="3246.67" r="8.08" style="fill:#fff"/><circle cx="2267.45" cy="3327.42" r="8.08" style="fill:#fff"/><circle cx="2577.37" cy="3129.35" r="8.08" style="fill:#fff"/><circle cx="2594.28" cy="2681.1" r="8.08" style="fill:#fff"/><circle cx="2733.92" cy="2519.51" r="8.08" style="fill:#fff"/><circle cx="2389.94" cy="3617.59" r="13.466" style="fill:#fff"/><circle cx="2527.4" cy="3523.59" r="13.466" style="fill:#fff"/><circle cx="2527.36" cy="3723.77" r="13.466" style="fill:#fff"/><circle cx="2389.94" cy="3617.59" r="13.466" style="fill:#fff"/><circle cx="2757.24" cy="3583.27" r="13.466" style="fill:#fff"/><circle cx="3107.1" cy="3381.33" r="13.466" style="fill:#fff"/><circle cx="3363.66" cy="3314" r="13.466" style="fill:#fff"/><circle cx="3503.6" cy="3394.79" r="13.466" style="fill:#fff"/><circle cx="3643.54" cy="3475.59" r="13.466" style="fill:#fff"/><circle cx="3713.51" cy="3596.78" r="13.466" style="fill:#fff"/><circle cx="3713.51" cy="3704.51" r="13.466" style="fill:#fff"/><circle cx="3713.51" cy="3812.24" r="13.466" style="fill:#fff"/><circle cx="4226.63" cy="1927.01" r="13.466" style="fill:#fff"/><circle cx="4226.63" cy="2034.74" r="13.466" style="fill:#fff"/><circle cx="4226.63" cy="2142.42" r="13.466" style="fill:#fff"/><circle cx="4156.8" cy="2317.4" r="13.466" style="fill:#fff"/><circle cx="3993.39" cy="2411.79" r="13.466" style="fill:#fff"/><circle cx="3830.13" cy="2506.05" r="13.466" style="fill:#fff"/><circle cx="3620.22" cy="2627.24" r="13.466" style="fill:#fff"/><circle cx="3130.42" cy="2910.02" r="13.466" style="fill:#fff"/><circle cx="2733.92" cy="3138.9" r="13.466" style="fill:#fff"/><circle cx="2617.3" cy="3206.23" r="13.466" style="fill:#fff"/><circle cx="2477.36" cy="3287.07" r="13.466" style="fill:#fff"/><circle cx="2174.16" cy="3812.24" r="13.466" style="fill:#fff"/><circle cx="2337.35" cy="3617.59" r="13.466" style="fill:#fff"/><circle cx="1972.02" cy="3928.94" r="13.466" style="fill:#fff"/><circle cx="1769.88" cy="4045.64" r="13.466" style="fill:#fff"/><circle cx="1567.75" cy="4162.35" r="13.466" style="fill:#fff"/><circle cx="1194.57" cy="4054.62" r="13.466" style="fill:#fff"/><circle cx="1357.83" cy="4148.84" r="13.466" style="fill:#fff"/><circle cx="1050.74" cy="3971.58" r="13.466" style="fill:#fff"/><circle cx="906.912" cy="3888.54" r="13.466" style="fill:#fff"/><circle cx="763.083" cy="3805.5" r="13.466" style="fill:#fff"/><circle cx="619.255" cy="3722.46" r="13.466" style="fill:#fff"/><circle cx="475.426" cy="3639.42" r="13.466" style="fill:#fff"/><circle cx="331.598" cy="3556.38" r="13.466" style="fill:#fff"/><circle cx="3060.45" cy="4862.57" r="13.466" style="fill:#fff"/><ellipse cx="3060.45" cy="4781.78" rx="13.466" ry="13.467" style="fill:#fff"/><circle cx="3060.45" cy="4700.98" r="13.466" style="fill:#fff"/><circle cx="3060.45" cy="2869.62" r="13.466" style="fill:#fff"/><circle cx="3060.45" cy="3085.33" r="13.466" style="fill:#fff"/><path d="M3060.45 3152.41c7.43 0 13.47 6.03 13.47 13.46 0 7.44-6.04 13.47-13.47 13.47-7.43 0-13.46-6.03-13.46-13.47 0-7.43 6.03-13.46 13.46-13.46Zm0 3.54c-5.47 0-9.92 4.45-9.92 9.92 0 5.48 4.45 9.93 9.92 9.93 5.48 0 9.93-4.45 9.93-9.93 0-5.47-4.45-9.92-9.93-9.92Z" style="fill:#fff" opacity="0.5"/><circle cx="3060.45" cy="3515.94" r="13.466" style="fill:#fff"/><circle cx="3060.45" cy="3408.26" r="13.466" style="fill:#fff"/><circle cx="3060.45" cy="3596.74" r="13.466" style="fill:#fff"/><circle cx="3060.45" cy="3677.53" r="13.466" style="fill:#fff"/><circle cx="3060.45" cy="3758.33" r="13.466" style="fill:#fff"/><circle cx="3060.45" cy="3839.12" r="13.466" style="fill:#fff"/><circle cx="3060.45" cy="3919.92" r="13.466" style="fill:#fff"/><circle cx="3060.45" cy="4000.71" r="13.466" style="fill:#fff"/><circle cx="3060.45" cy="4081.51" r="13.466" style="fill:#fff"/><circle cx="3060.45" cy="4162.3" r="13.466" style="fill:#fff"/><circle cx="3060.45" cy="4243.1" r="13.466" style="fill:#fff"/><circle cx="3060.45" cy="4323.89" r="13.466" style="fill:#fff"/><circle cx="3060.45" cy="4404.69" r="13.466" style="fill:#fff"/><circle cx="3060.45" cy="4485.48" r="13.466" style="fill:#fff"/><circle cx="3060.45" cy="4566.32" r="13.466" style="fill:#fff"/><circle cx="3060.45" cy="2869.62" r="13.466" style="fill:#fff"/><circle cx="2803.89" cy="2559.91" r="13.466" style="fill:#fff"/><circle cx="3550.25" cy="2586.84" r="13.466" style="fill:#fff"/><circle cx="3666.86" cy="2238.81" r="13.466" style="fill:#fff"/><circle cx="3666.86" cy="2007.81" r="13.466" style="fill:#fff"/><circle cx="3398.46" cy="1664.32" r="13.466" style="fill:#fff"/><circle cx="2920.51" cy="1603.84" r="13.466" style="fill:#fff"/><circle cx="2733.92" cy="1711.56" r="13.466" style="fill:#fff"/><circle cx="2547.33" cy="1819.29" r="13.466" style="fill:#fff"/><circle cx="2290.78" cy="1778.89" r="13.466" style="fill:#fff"/><circle cx="2080.86" cy="1657.7" r="13.466" style="fill:#fff"/><circle cx="1870.95" cy="1536.51" r="13.466" style="fill:#fff"/><circle cx="1661.04" cy="1415.31" r="13.466" style="fill:#fff"/><circle cx="1427.8" cy="1280.65" r="13.466" style="fill:#fff"/><ellipse cx="1171.24" cy="1132.53" rx="13.464" ry="13.466" style="fill:#fff"/><circle cx="938.01" cy="997.871" r="13.466" style="fill:#fff"/><path d="M704.774 849.747c7.432 0 13.466 6.034 13.466 13.466 0 7.432-6.034 13.466-13.466 13.466-7.432 0-13.466-6.034-13.466-13.466 0-7.432 6.034-13.466 13.466-13.466Zm0 3.543c-5.476 0-9.922 4.446-9.922 9.923 0 5.476 4.446 9.922 9.922 9.922 5.477 0 9.923-4.446 9.923-9.922 0-5.477-4.446-9.923-9.923-9.923Z" style="fill:#fff" opacity="0.5"/><circle cx="611.48" cy="701.623" r="13.466" style="fill:#fff"/><circle cx="611.48" cy="620.827" r="13.466" style="fill:#fff"/><path d="M611.48 526.566c7.432 0 13.466 6.034 13.466 13.466 0 7.432-6.034 13.466-13.466 13.466-7.432 0-13.466-6.034-13.466-13.466 0-7.432 6.034-13.466 13.466-13.466Zm0 3.544c-5.476 0-9.922 4.446-9.922 9.922 0 5.477 4.446 9.923 9.922 9.923 5.477 0 9.923-4.446 9.923-9.923 0-5.476-4.446-9.922-9.923-9.922ZM611.48 445.771c7.432 0 13.466 6.034 13.466 13.466 0 7.432-6.034 13.466-13.466 13.466-7.432 0-13.466-6.034-13.466-13.466 0-7.432 6.034-13.466 13.466-13.466Zm0 3.544c-5.476 0-9.922 4.446-9.922 9.922 0 5.477 4.446 9.923 9.922 9.923 5.477 0 9.923-4.446 9.923-9.923 0-5.476-4.446-9.922-9.923-9.922Z" style="fill:#fff" opacity="0.5"/><circle cx="611.48" cy="378.442" r="13.466" style="fill:#fff"/><circle cx="611.48" cy="297.647" r="13.466" style="fill:#fff"/><circle cx="611.481" cy="216.852" r="13.466" style="fill:#fff"/><circle cx="611.48" cy="136.057" r="13.466" style="fill:#fff"/><path d="m3147.09 4028.92-26.45-7.96 6.68-6.68 19.72 1.34 16.54-16.54-39.01-22.9 9.03-9.03 46.9 15.01 27.1-27.1c1.77-1.77 4.17-2.77 6.67-2.77 2.51 0 4.91 1 6.68 2.77 1.77 1.77 2.77 4.17 2.77 6.68 0 2.5-1 4.9-2.77 6.68l-27.09 27.09 15 46.9-9.03 9.03-22.89-39.01-16.55 16.54 1.34 19.73-6.68 6.67-7.96-26.45Z" style="fill:#4d4040"/></g></svg>