<?xml version="1.0" encoding="UTF-8" standalone="no"?>
<!DOCTYPE svg PUBLIC "-//W3C//DTD SVG 1.1//EN" "http://www.w3.org/Graphics/SVG/1.1/DTD/svg11.dtd">
<svg width="100%" height="100%" viewBox="0 0 107 107" version="1.1" xmlns="http://www.w3.org/2000/svg" xmlns:xlink="http://www.w3.org/1999/xlink" xml:space="preserve" xmlns:serif="http://www.serif.com/" style="fill-rule:evenodd;clip-rule:evenodd;stroke-linejoin:round;stroke-miterlimit:2;">
    <rect id="spinner" x="0" y="0" width="106.299" height="106.299" style="fill:none;"/>
    <g id="Çevre-Yolu-connection" serif:id="Çevre Yolu connection">
        <path d="M29.528,28.346L76.772,28.346C90.461,28.346 101.575,39.46 101.575,53.15C101.575,66.839 90.461,77.953 76.772,77.953L29.528,77.953C15.838,77.953 4.724,66.839 4.724,53.15C4.724,39.46 15.838,28.346 29.528,28.346ZM29.528,37.795C21.053,37.795 14.173,44.675 14.173,53.15C14.173,61.624 21.053,68.504 29.528,68.504L76.772,68.504C85.246,68.504 92.126,61.624 92.126,53.15C92.126,44.675 85.246,37.795 76.772,37.795L29.528,37.795Z" style="fill:rgb(58,22,22);"/>
        <path d="M29.528,37.795L76.772,37.795C85.246,37.795 92.126,44.675 92.126,53.15C92.126,61.624 85.246,68.504 76.772,68.504L29.528,68.504C21.053,68.504 14.173,61.624 14.173,53.15C14.173,44.675 21.053,37.795 29.528,37.795Z" style="fill:white;"/>
        <g>
            <path d="M68.504,53.15C68.504,48.587 72.209,44.882 76.772,44.882C81.335,44.882 85.039,48.587 85.039,53.15C85.039,57.713 81.335,61.417 76.772,61.417C72.209,61.417 68.504,57.713 68.504,53.15Z" style="fill:rgb(33,171,114);"/>
        </g>
        <g>
            <path d="M44.882,53.15C44.882,48.587 48.587,44.882 53.15,44.882C57.713,44.882 61.417,48.587 61.417,53.15C61.417,57.713 57.713,61.417 53.15,61.417C48.587,61.417 44.882,57.713 44.882,53.15Z" style="fill:rgb(255,94,179);"/>
        </g>
        <g>
            <path d="M21.26,53.15C21.26,48.587 24.964,44.882 29.528,44.882C34.091,44.882 37.795,48.587 37.795,53.15C37.795,57.713 34.091,61.417 29.528,61.417C24.964,61.417 21.26,57.713 21.26,53.15Z" style="fill:rgb(0,221,255);"/>
        </g>
    </g>
</svg>
