<svg width="32" height="32" viewBox="0 0 32 32" fill="none" xmlns="http://www.w3.org/2000/svg">
<path d="M26.6 10.9C25.9 11.2 25.1 11.4 24.3 11.5C25.1 11 25.8 10.2 26.1 9.3C25.3 9.8 24.5 10.1 23.5 10.3C22.8 9.5 21.7 9 20.6 9C18.4 9 16.6 10.8 16.6 13C16.6 13.3 16.6 13.6 16.7 13.9C13.4 13.7 10.4 12.1 8.39999 9.7C8.09999 10.3 7.89999 11 7.89999 11.7C7.89999 13.1 8.6 14.3 9.7 15C9 15 8.39999 14.8 7.89999 14.5C7.89999 16.4 9.29999 18.1 11.1 18.4C10.8 18.5 10.4 18.5 10 18.5C9.7 18.5 9.5 18.5 9.2 18.4C9.7 20 11.2 21.2 13 21.2C11.6 22.3 9.9 22.9 8 22.9C7.7 22.9 7.4 22.9 7 22.8C8.8 23.9 10.9 24.6 13.2 24.6C20.6 24.6 24.6 18.5 24.6 13.2V12.7C25.4 12.4 26.1 11.7 26.6 10.9Z" fill="white"/>
</svg>
